<?xml version="1.0" encoding="utf-8"?>
<!-- Generator: Adobe Illustrator 24.2.2, SVG Export Plug-In . SVG Version: 6.00 Build 0)  -->
<svg version="1.1" id="Layer_1" xmlns="http://www.w3.org/2000/svg" xmlns:xlink="http://www.w3.org/1999/xlink" x="0px" y="0px"
	 viewBox="0 0 1972.7 1022.8" style="enable-background:new 0 0 1972.7 1022.8;" xml:space="preserve">
<style type="text/css">
	.st0{fill:#FFFAE2;}
	.st1{fill:#FEFCF3;}
	.st2{fill:#B1D4F1;}
	.st3{fill:none;stroke:#83B2D9;stroke-width:2;stroke-linecap:round;stroke-linejoin:round;stroke-miterlimit:10;}
	.st4{fill:#83B2D9;}
	.st5{fill:#4E6CA3;}
	.st6{fill:none;stroke:#392C28;stroke-linecap:round;stroke-linejoin:round;stroke-miterlimit:10;}
	.st7{fill:#EDA647;}
	.st8{fill:#392C28;stroke:#392C28;stroke-width:0.75;stroke-linecap:round;stroke-linejoin:round;stroke-miterlimit:10;}
	.st9{fill:none;stroke:#392C28;stroke-linecap:round;stroke-linejoin:round;}
	.st10{fill:none;stroke:#D1B78B;stroke-width:2;stroke-linecap:round;stroke-linejoin:round;stroke-miterlimit:10;}
	.st11{fill:none;stroke:#AC8F62;stroke-width:2;stroke-linecap:round;stroke-linejoin:round;stroke-miterlimit:10;}
	.st12{fill:none;stroke:#FFFAE2;stroke-width:2;stroke-linecap:round;stroke-linejoin:round;stroke-miterlimit:10;}
	.st13{fill:#D1B78B;}
	.st14{font-family:'Nanami';}
	.st15{font-size:22px;}
	.st16{letter-spacing:3;}
	.st17{fill:none;stroke:#B79A95;stroke-width:0.75;stroke-linecap:round;stroke-linejoin:round;stroke-miterlimit:10;}
	.st18{stroke:#B79A95;stroke-width:0.75;stroke-linecap:round;stroke-linejoin:round;stroke-miterlimit:10;}
</style>
<path class="st0" d="M214.14,925.25"/>
<path class="st0" d="M214.14,931.11"/>
<line class="st0" x1="214.54" y1="925.25" x2="214.14" y2="925.25"/>
<line class="st0" x1="177.09" y1="830.46" x2="177.03" y2="830.46"/>
<path class="st0" d="M283,614.57c-1.51,2.73-3.02,5.47-4.95,7.92c-1.92,2.45-4.3,4.61-7.14,5.88c-0.03,0.01-0.06,0.03-0.1,0.04"/>
<path class="st0" d="M260.8,631.97c-0.36,0.68-0.71,1.37-1.06,2.05c-0.08,0.15-0.16,0.31-0.15,0.48c0.02,0.19,0.16,0.36,0.32,0.47
	c0.1,0.07,0.2,0.11,0.3,0.14"/>
<path class="st0" d="M289.29,606.31c-0.02,0.02-0.03,0.05-0.05,0.07"/>
<path class="st0" d="M294.76,624.28c0.84,0.32,1.8,0.29,2.62-0.06"/>
<path class="st0" d="M299.14,622.46c0.03-0.06,0.06-0.12,0.08-0.18c0.34-0.89,0.29-1.88,0.12-2.82c-0.17-0.98-0.47-1.93-0.89-2.83"
	/>
<path class="st0" d="M285.86,620.56c1.15-0.02,2.28-0.48,3.13-1.25c0.84-0.78,1.39-1.87,1.51-3.01"/>
<line class="st0" x1="290.45" y1="603.57" x2="290.44" y2="603.57"/>
<line class="st0" x1="295.4" y1="599.33" x2="295.4" y2="600"/>
<path class="st0" d="M289.21,606.18c-0.25,0.06-0.5,0.1-0.76,0.1"/>
<path class="st0" d="M297.81,594.63c-0.05,0.08-0.11,0.15-0.17,0.22"/>
<path class="st0" d="M289.76,592.5c-1.44,0.97-2.61,2.36-3.31,3.95"/>
<path class="st0" d="M289.84,634.79c-0.06,0.01-0.13,0.03-0.19,0.04"/>
<path class="st0" d="M285.35,646.39c-0.1,0.03-0.2,0.06-0.3,0.08"/>
<path class="st0" d="M246.66,645.41c0.09,0.05,0.19,0.08,0.3,0.08"/>
<path class="st0" d="M374.92,639.55"/>
<line class="st0" x1="326.21" y1="637.4" x2="326.21" y2="641.23"/>
<line class="st0" x1="335.71" y1="639.9" x2="333.82" y2="643.23"/>
<line class="st0" x1="313.16" y1="664.98" x2="309.93" y2="667.03"/>
<line class="st0" x1="306.92" y1="656.76" x2="310.75" y2="656.75"/>
<path class="st0" d="M268.96,639.02c1.84,0.95,3.71,1.88,5.69,2.5c2.17,0.67,4.51,0.96,6.73,0.47"/>
<path class="st0" d="M268.65,638.86c-0.07-0.03-0.15-0.07-0.22-0.11"/>
<line class="st0" x1="184" y1="662.02" x2="180.88" y2="662.02"/>
<path class="st0" d="M392.8,628.41c-0.04-0.01-0.07-0.03-0.1-0.04c-2.85-1.27-5.22-3.43-7.14-5.88c-1.93-2.45-3.44-5.19-4.95-7.92"
	/>
<path class="st0" d="M403.07,635.15c0.22,0,0.44-0.05,0.63-0.18c0.16-0.11,0.3-0.28,0.31-0.47c0.02-0.17-0.06-0.33-0.14-0.48
	c-0.35-0.68-0.7-1.37-1.06-2.05"/>
<path class="st0" d="M371.3,600.66c-0.01-0.31-0.02-0.64-0.02-0.99"/>
<path class="st0" d="M365.16,616.63c-0.42,0.9-0.72,1.85-0.89,2.83c-0.17,0.94-0.21,1.93,0.12,2.82c0.32,0.85,0.99,1.55,1.81,1.92
	c0.83,0.37,1.8,0.4,2.64,0.07"/>
<path class="st0" d="M377.75,620.56c-1.15-0.02-2.28-0.48-3.13-1.25c-0.84-0.78-1.39-1.87-1.51-3.01"/>
<line class="st0" x1="368.22" y1="599.33" x2="368.22" y2="600"/>
<path class="st0" d="M382.52,647.02c-1.44,0-2.88-0.21-4.26-0.63"/>
<path class="st0" d="M416.67,645.49c-0.01,0-0.01,0-0.02,0"/>
<path class="st0" d="M382.23,641.99c2.22,0.49,4.56,0.2,6.73-0.47c1.9-0.6,3.69-1.47,5.46-2.38"/>
<path class="st0" d="M395.18,638.75c-0.18,0.09-0.35,0.18-0.53,0.27"/>
<path class="st0" d="M386.68,631.32c0,0-12.2,1.37-16-1.72"/>
<path class="st0" d="M384.64,612.04c-0.01-0.03-0.07,0.03-0.03,0.05"/>
<path class="st0" d="M367.66,605.83c-0.03-0.14-0.24-0.12-0.37-0.05c-0.98,0.48-1.71,1.39-2.16,2.38s-0.67,2.08-0.85,3.16
	c-0.05,0.28-0.14,0.62-0.42,0.68"/>
<path class="st0" d="M367.21,590.81c0.96,0.14,1.93,0.28,2.89,0.41"/>
<polyline class="st0" points="378.44,673.98 380.36,673.98 380.36,686.88 378.44,686.88 "/>
<polyline class="st0" points="389.59,673.98 386.43,673.98 380.36,679.34 386.65,686.88 389.59,686.88 "/>
<line class="st0" x1="395.6" y1="673.98" x2="395.6" y2="686.47"/>
<polyline class="st0" points="401.89,686.88 401.89,673.98 413.03,686.47 413.03,673.98 "/>
<polyline class="st0" points="428.55,684.14 428.55,686.47 419.04,686.47 419.04,673.98 428.55,673.98 428.55,676.06 "/>
<path class="st0" d="M419,678.85c0.18-0.66,0.98-0.92,1.66-0.97c1.19-0.1,2.39,0.05,3.52,0.45c1.38,0.49,2.67,1.35,4.13,1.48
	c1.41,0.12,2.85-0.5,3.73-1.61"/>
<polyline class="st0" points="446.24,673.11 441.21,682.18 435.32,673.11 435.32,686.88 "/>
<line class="st0" x1="464.77" y1="686.48" x2="461.43" y2="679.83"/>
<line class="st0" x1="453.47" y1="686.88" x2="452.16" y2="686.88"/>
<line class="st0" x1="463.08" y1="686.88" x2="466.14" y2="686.88"/>
<line class="st0" x1="221.75" y1="686.48" x2="218.41" y2="679.83"/>
<line class="st0" x1="212.16" y1="679.83" x2="209.14" y2="686.88"/>
<line class="st0" x1="207.94" y1="686.88" x2="210.45" y2="686.88"/>
<line class="st0" x1="220.06" y1="686.88" x2="223.12" y2="686.88"/>
<line class="st0" x1="446.24" y1="686.88" x2="444.22" y2="686.88"/>
<line class="st0" x1="437.18" y1="686.88" x2="433.57" y2="686.88"/>
<line class="st0" x1="419.04" y1="673.98" x2="417.51" y2="673.98"/>
<line class="st0" x1="419.04" y1="686.47" x2="417.51" y2="686.47"/>
<polyline class="st0" points="247.53,684.14 247.53,686.47 238.02,686.47 238.02,673.98 247.53,673.98 247.53,676.06 "/>
<path class="st0" d="M237.98,678.85c0.18-0.66,0.98-0.92,1.66-0.97c1.19-0.1,2.39,0.05,3.52,0.45c1.38,0.49,2.67,1.35,4.13,1.48
	c1.41,0.12,2.85-0.5,3.73-1.61"/>
<line class="st0" x1="238.02" y1="673.98" x2="236.49" y2="673.98"/>
<line class="st0" x1="238.02" y1="686.47" x2="236.49" y2="686.47"/>
<line class="st0" x1="403.31" y1="686.88" x2="400.61" y2="686.88"/>
<line class="st0" x1="411.4" y1="673.98" x2="414.56" y2="673.98"/>
<line class="st0" x1="397.32" y1="686.88" x2="394.07" y2="686.88"/>
<line class="st0" x1="397.32" y1="673.98" x2="394.07" y2="673.98"/>
<line class="st0" x1="228.5" y1="673.98" x2="228.5" y2="686.47"/>
<line class="st0" x1="230.21" y1="686.88" x2="226.97" y2="686.88"/>
<line class="st0" x1="257.6" y1="673.98" x2="257.6" y2="686.47"/>
<line class="st0" x1="259.32" y1="686.88" x2="256.08" y2="686.88"/>
<line class="st0" x1="271.97" y1="686.88" x2="268.73" y2="686.88"/>
<line class="st0" x1="230.21" y1="673.98" x2="226.97" y2="673.98"/>
<polyline class="st0" points="262.08,676.28 262.08,673.98 253.08,673.98 253.08,676.28 "/>
<polyline class="st0" points="264.14,673.98 265.88,673.98 270.26,679.05 270.26,686.47 "/>
<polyline class="st0" points="270.26,679.05 273.97,673.98 276.38,673.98 "/>
<path class="st0" d="M203.31,676.84v-2.18c-1.09-0.89-3.67-1.42-5.14-1.42c-3.57,0-6.47,3.12-6.47,6.97s2.89,6.97,6.47,6.97
	s5.46-3.12,5.46-6.97h-2.77"/>
<line class="st0" x1="177.09" y1="991.04" x2="177.09" y2="990.72"/>
<line class="st0" x1="477.24" y1="726.73" x2="477.24" y2="726.25"/>
<line class="st0" x1="51.65" y1="967.84" x2="51.65" y2="967.66"/>
<line class="st0" x1="611.3" y1="808.88" x2="611.3" y2="808.66"/>
<line class="st0" x1="147.66" y1="1006.99" x2="147.66" y2="1006.54"/>
<line class="st0" x1="177.09" y1="983.29" x2="177.03" y2="983.29"/>
<line class="st0" x1="177.09" y1="974.14" x2="177.03" y2="974.14"/>
<polyline class="st0" points="162.88,707.49 165.79,709.69 177.09,718.22 "/>
<polyline class="st0" points="261.04,707.49 263.94,709.68 279.67,721.56 "/>
<polyline class="st0" points="377.27,707.49 380.18,709.69 395.9,721.56 "/>
<polyline class="st0" points="493.51,707.49 496.41,709.68 510.3,720.17 "/>
<line class="st0" x1="477.43" y1="961.54" x2="477.24" y2="961.54"/>
<g>
	<path class="st1" d="M611.3,777.64h39.4v6.98h-7.47v6.31H633.2v3.01h-4.64l-5.23,0.09v15.05H611.3v158.76l5.16,4.66v34.04H56.82
		v-34.22l-5.17-4.66V726.73h42.7v-5.17h-42.7v-55.48h3.88v-4.16h4.23l0.17-7.27h2.95v-9.28h73.8l50.37,0.04h59.61
		c-0.19-0.11-0.33-0.31-0.37-0.53c-0.05-0.32,0.06-0.65,0.21-0.94c0.39-0.77,1.01-1.39,1.66-1.96c2.39-2.08,5.19-3.59,8.09-4.91
		l-0.24-0.53c0.46-1.28,1.15-3.71,1.79-4.62c2.02-2.83,5.89-3.72,8.97-5.33c3.09-1.61,6.11-3.56,8.16-6.37
		c1.61-2.21,2.53-4.83,3.76-7.27c1.24-2.44,2.94-4.83,5.45-5.91c1.31-0.57,2.75-0.74,4.19-0.75c-0.91-0.01-1.83-0.4-2.52-1.01
		c-0.91-0.81-1.47-1.96-1.73-3.15c-0.16-0.71-0.22-1.45-0.03-2.14c0.19-0.66,0.58-1.24,0.94-1.82c0.07-0.12,0.15-0.26,0.14-0.4
		c-0.01-0.14-0.11-0.26-0.2-0.37c-0.51-0.65-0.94-1.4-1-2.22c-0.06-0.99,0.44-1.96,1.13-2.67c1.22-1.24,3.07-1.82,4.78-1.5
		c0.16-0.9,0.95-1.6,1.82-1.88c0.87-0.28,1.82-0.21,2.72-0.06c0.64,0.11,1.28,0.26,1.83,0.6c0.56,0.33,1.01,0.87,1.11,1.51
		c0.72,0.18,1.18,0.94,1.18,1.68c0,0.65-0.29,1.26-0.69,1.77h-0.35c-0.13,0.15-0.28,0.28-0.44,0.39l0.8,0.11
		c0.84,1.14,0.04,2.91,0.77,4.13c0.24,0.39,0.5,0.76,0.82,1.08c0.34,0.33,0.75,0.92-0.21,1.19l-1.04,0.39c0,0-0.09,2.79-1.06,3.3
		c-0.44,0.23-1.01,0.24-1.31,0.62c-0.16,0.21-0.21,0.47-0.24,0.72c-0.13,0.93-0.22,1.87-0.26,2.81l0.05,0.14
		c2.59,1.51,5.02,3.33,7.2,5.39c0,0,1.5,1.25,2.43,2.25l0.27,0.39c3.33-2.26,6.94-4.1,10.77-5.45l-0.95-1.85
		c-0.29-0.69-0.57-1.49-0.21-2.13c0.28-0.53,0.89-0.76,1.39-1.09c1.22-0.79,1.89-2.33,1.63-3.76c-0.21-1.2-0.99-2.22-1.62-3.27
		c-0.62-1.05-1.11-2.34-0.68-3.48c0.36-0.95,1.29-1.59,2.27-1.85c0.98-0.27,2.02-0.22,3.03-0.16v-5.53c0,0-0.14-3.98,4.5-3.98h5.35
		c4.64,0,4.5,3.98,4.5,3.98v5.53c1.02-0.06,2.05-0.11,3.03,0.16c0.98,0.26,1.91,0.9,2.27,1.85c0.43,1.14-0.06,2.43-0.68,3.48
		c-0.63,1.05-1.41,2.07-1.62,3.27c-0.25,1.43,0.42,2.97,1.63,3.76c0.5,0.33,1.11,0.56,1.4,1.09c0.35,0.64,0.07,1.44-0.22,2.13
		l-0.07,0.32c6.18,1.35,11.93,3.96,16.98,7.55l0.7-0.96c0.93-1,2.43-2.25,2.43-2.25c2.18-2.06,4.61-3.88,7.2-5.39l0.04-0.14
		c-0.03-0.94-0.12-1.88-0.25-2.81c-0.04-0.25-0.08-0.51-0.24-0.72c-0.3-0.38-0.87-0.39-1.31-0.62c-0.97-0.51-1.06-3.3-1.06-3.3
		l-1.04-0.39c-0.96-0.27-0.55-0.86-0.21-1.19c0.32-0.32,0.58-0.69,0.82-1.08c0.73-1.22-0.07-2.99,0.77-4.13
		c-0.37-0.28-0.64-0.52-0.64-0.52s0.65-1.9,2.06-3.8c1.35-1.81,3.39-3.6,6.21-3.75v-1.9c0,0-3.36-0.15-5.41,1.53l-4.02-6.15
		c0,0,10.77-5.93,18.68,2.49c6.25,6.66,3.15,13.97,3.15,13.97h-1.98c0,0,0.36-8.74-5.54-11.17l-0.91,2.03
		c6.49,2.82,0.48,15.83,0.48,15.83c1.42,0.33,2.47,0.63,3.77,1.29c0.8,0.41,1.61,0.84,2.28,1.45c0.78,0.7,1.35,1.64,1.52,2.67
		c0.18,1.03-0.07,2.14-0.74,2.94c-0.02,0.03-0.05,0.05-0.08,0.05h-0.01l-0.12,0.07c0.15,0.26,0.29,0.53,0.42,0.79
		c1.24,2.44,2.16,5.06,3.77,7.27c2.05,2.81,5.07,4.76,8.16,6.37c3.08,1.61,6.95,2.5,8.97,5.33c0.64,0.91,1.33,3.34,1.79,4.62
		l-0.24,0.53c2.9,1.32,5.7,2.83,8.09,4.91c0.65,0.57,1.27,1.19,1.66,1.96c0.15,0.29,0.26,0.62,0.21,0.94
		c-0.06,0.31-0.33,0.61-0.65,0.61v1.74h103.04v0.37H623.4v7.05h-2.96l-0.17,7.27h-4.23v4.16h-3.88v55.48h28.49v5.17H611.3V777.64z"
		/>
</g>
<path class="st2" d="M223.41,961.54v-5.97h4.34c0,0-1.8-1.31-1.5-2.42s1.5-2.21,1.5-2.21l4.05-0.21V845.61h-17.25v115.93H223.41z"/>
<path class="st2" d="M250.93,845.61v105.13h3.69c0.78,0.16,2.14,0.69,2.14,2.42c0,2.42-2.52,2.42-2.52,2.42H260v5.97h6.13v12.6
	h114.72v-12.6h8.45v-5.97h3.68c0,0-1.81-1.62-1.81-2.42c0-0.79,1.81-2.31,1.81-2.31l3.74-0.11V845.61H250.93z"/>
<path class="st2" d="M122.24,823.33H94.28h-5.61h-5.13v121.7v6.05h10.74h27.96v0.33h10.05v-0.33v-6.05V830.46v-7.12H122.24z
	 M122.24,945.03H94.28V830.46h27.96V945.03z"/>
<polygon class="st2" points="650.71,777.84 158.92,777.84 158.92,782.23 158.92,784.62 158.92,809.08 623.34,809.08 623.34,794.03 
	633.2,793.85 633.2,790.93 643.24,790.93 643.24,784.62 650.71,784.62 "/>
<g>
	<polyline class="st3" points="342.19,951.06 342.19,938.27 314.51,938.27 314.51,951.06 	"/>
</g>
<g>
	<polyline class="st3" points="342.19,940.06 342.19,963.86 314.51,963.86 314.51,940.06 	"/>
</g>
<g>
	<polyline class="st3" points="389.29,951.06 389.29,938.27 361.61,938.27 361.61,951.06 	"/>
</g>
<g>
	<polyline class="st3" points="361.61,940.06 361.61,963.86 381.41,963.86 	"/>
	<line class="st3" x1="389.29" y1="940.06" x2="389.29" y2="955.57"/>
</g>
<g>
	<polyline class="st3" points="296.75,951.06 296.75,938.27 269.07,938.27 269.07,951.06 	"/>
</g>
<g>
	<polyline class="st3" points="296.75,940.06 296.75,963.86 269.07,963.86 269.07,940.06 	"/>
</g>
<g>
	<polyline class="st3" points="231.8,938.27 224.7,938.27 224.7,951.06 	"/>
</g>
<g>
	<line class="st3" x1="224.7" y1="954.71" x2="224.7" y2="940.06"/>
</g>
<rect x="94.28" y="830.46" class="st1" width="27.96" height="114.57"/>
<rect x="94.35" y="721.56" class="st2" width="546.3" height="5.17"/>
<rect x="544.78" y="859.89" class="st0" width="55.96" height="79.21"/>
<rect x="549.2" y="863.59" class="st4" width="46.91" height="70.91"/>
<path class="st0" d="M574.29,892.62h-3.94l-5.68,5.78v29.46c0,0,0.32,2.05,2.21,2.05c1.89,0,12.31,0,12.31,0s2.1,0.1,2.1-2.9
	c0-3.87-0.21-30.25-0.21-30.25L574.29,892.62z"/>
<rect x="570.92" y="906.08" class="st5" width="10.36" height="10.36"/>
<rect x="569.94" y="888.28" class="st5" width="4.34" height="4.34"/>
<polygon class="st0" points="554.88,882.2 554.88,872.87 558.04,872.21 560.24,878.52 562.45,872.87 564.66,872.21 566.66,882.83 
	563.72,882.83 563.61,877.71 560.77,882.83 559.19,882.83 557.19,877.52 557.3,882.83 "/>
<rect x="568.13" y="872.87" class="st0" width="2.79" height="9.97"/>
<polygon class="st0" points="572.97,872.21 572.97,882.83 580.02,882.83 580.02,879.57 575.29,879.89 575.18,872.21 "/>
<polygon class="st0" points="581.7,872.21 581.7,882.83 583.91,883.68 583.91,878.73 585.7,879.78 587.91,882.83 590.85,881.68 
	586.86,877.05 590.85,873.56 588.22,870.63 584.65,875.68 584.02,872.21 "/>
<line class="st6" x1="600.74" y1="939.1" x2="544.78" y2="939.1"/>
<rect x="521.48" y="877.85" class="st7" width="18.49" height="31.2"/>
<line class="st6" x1="539.96" y1="909.05" x2="521.48" y2="909.05"/>
<circle class="st8" cx="326.21" cy="656.62" r="1.21"/>
<polygon class="st8" points="326.58,656.48 320.48,639.9 319.61,640.23 325.84,656.77 "/>
<rect x="315.53" y="656.2" class="st8" width="10.68" height="0.87"/>
<rect x="378.06" y="852.9" class="st8" width="11.24" height="30.44"/>
<rect x="360.46" y="852.9" class="st8" width="11.24" height="30.44"/>
<rect x="378.06" y="888.41" class="st8" width="11.24" height="31.18"/>
<rect x="360.46" y="888.41" class="st8" width="11.24" height="31.18"/>
<line class="st8" x1="350.9" y1="925.25" x2="396.72" y2="925.25"/>
<line class="st8" x1="350.9" y1="931.11" x2="396.72" y2="931.11"/>
<rect x="332.11" y="852.9" class="st8" width="11.24" height="30.44"/>
<rect x="314.51" y="852.9" class="st8" width="11.24" height="30.44"/>
<rect x="332.11" y="888.41" class="st8" width="11.24" height="31.18"/>
<rect x="314.51" y="888.41" class="st8" width="11.24" height="31.18"/>
<line class="st8" x1="304.95" y1="925.25" x2="350.77" y2="925.25"/>
<line class="st8" x1="304.95" y1="931.11" x2="350.77" y2="931.11"/>
<rect x="287.16" y="852.9" class="st8" width="11.24" height="30.44"/>
<rect x="269.56" y="852.9" class="st8" width="11.24" height="30.44"/>
<rect x="287.16" y="888.41" class="st8" width="11.24" height="31.18"/>
<rect x="269.56" y="888.41" class="st8" width="11.24" height="31.18"/>
<line class="st8" x1="260" y1="925.25" x2="305.82" y2="925.25"/>
<line class="st8" x1="260" y1="931.11" x2="305.82" y2="931.11"/>
<rect x="223.7" y="852.9" class="st8" width="8.09" height="30.44"/>
<rect x="223.7" y="888.41" class="st8" width="8.09" height="31.18"/>
<line class="st8" x1="250.93" y1="925.25" x2="259.97" y2="925.25"/>
<path class="st8" d="M214.14,925.25"/>
<line class="st8" x1="250.93" y1="931.11" x2="259.97" y2="931.11"/>
<path class="st8" d="M214.14,931.11"/>
<line class="st8" x1="214.14" y1="925.25" x2="231.8" y2="925.25"/>
<line class="st8" x1="429.68" y1="830.46" x2="415.85" y2="830.46"/>
<line class="st8" x1="396.14" y1="830.46" x2="250.93" y2="830.46"/>
<line class="st8" x1="231.8" y1="830.46" x2="204.55" y2="830.46"/>
<line class="st8" x1="433.15" y1="830.46" x2="443.1" y2="830.46"/>
<line class="st8" x1="462.23" y1="830.46" x2="477.25" y2="830.46"/>
<line class="st8" x1="185.41" y1="830.46" x2="177.03" y2="830.46"/>
<path class="st6" d="M260.8,631.97c-0.35,0.68-0.7,1.37-1.06,2.05c-0.08,0.15-0.16,0.31-0.14,0.47c0.01,0.2,0.15,0.37,0.32,0.48
	c0.6,0.4,1.44,0.09,1.93-0.43c0.49-0.52,0.76-1.21,1.15-1.81c1.66-2.58,5.11-3.12,7.92-4.37c2.85-1.27,5.22-3.43,7.14-5.88
	s3.44-5.19,4.94-7.92"/>
<path class="st6" d="M289.25,606.28c-1.73-0.03-3.51,0.07-5.11,0.76c-2.51,1.08-4.21,3.47-5.45,5.91c-1.24,2.44-2.16,5.06-3.77,7.27
	c-2.05,2.81-5.07,4.76-8.15,6.37c-3.09,1.61-6.95,2.5-8.97,5.34c-0.65,0.91-1.34,3.34-1.8,4.62"/>
<path class="st6" d="M289.24,606.38c0.55-0.77,0.91-1.68,1.05-2.62"/>
<path class="st6" d="M295.3,609.37c0.04-0.94,0.12-1.87,0.25-2.8c0.04-0.25,0.08-0.52,0.24-0.72c0.3-0.39,0.88-0.4,1.31-0.62
	c0.98-0.51,1.06-3.3,1.06-3.3l1.04-0.39c0.96-0.27,0.56-0.86,0.21-1.19c-0.32-0.32-0.59-0.69-0.82-1.08
	c-0.74-1.22,0.07-2.98-0.77-4.13"/>
<path class="st6" d="M295.34,609.51c2.6,1.51,5.02,3.33,7.2,5.4c0,0,1.51,1.25,2.43,2.25"/>
<path class="st6" d="M298.46,616.63c0.42,0.9,0.72,1.85,0.89,2.83c0.17,0.94,0.21,1.93-0.12,2.82c-0.32,0.85-0.99,1.55-1.81,1.92
	c-0.83,0.37-1.8,0.4-2.64,0.07"/>
<path class="st6" d="M285.86,620.56c1.15-0.02,2.28-0.48,3.13-1.25c0.84-0.78,1.39-1.87,1.51-3.01"/>
<path class="st6" d="M291.86,599.23c-0.36-0.57-1.14-0.81-1.79-0.59c-0.64,0.21-1.12,0.81-1.27,1.47c-0.15,0.66,0,1.36,0.32,1.96
	c0.32,0.6,0.81,1.09,1.34,1.51"/>
<path class="st6" d="M292.07,599.22c0.13-0.94,0.41-1.92,1.13-2.55c1.19-1.06,3.22-0.83,4.27-2.03"/>
<line class="st6" x1="295.4" y1="599.33" x2="295.4" y2="600"/>
<path class="st6" d="M297.64,594.85c0.48-0.56,0.86-1.25,0.86-1.99c0-0.74-0.46-1.5-1.18-1.68c-0.1-0.64-0.56-1.18-1.11-1.52
	c-0.55-0.33-1.2-0.49-1.83-0.59c-0.9-0.15-1.85-0.22-2.72,0.06c-0.87,0.28-1.66,0.98-1.82,1.88c-1.71-0.32-3.56,0.26-4.77,1.5
	c-0.7,0.71-1.2,1.67-1.13,2.66c0.05,0.82,0.48,1.58,1,2.22c0.09,0.11,0.19,0.23,0.2,0.37c0.01,0.14-0.06,0.28-0.14,0.4
	c-0.36,0.58-0.75,1.16-0.94,1.82c-0.19,0.69-0.13,1.43,0.02,2.13c0.26,1.19,0.82,2.35,1.74,3.16c0.92,0.81,2.22,1.22,3.4,0.9"/>
<path class="st6" d="M289.76,592.5c-1.44,0.97-2.61,2.36-3.31,3.95"/>
<path class="st6" d="M270.97,628.8c1.96-0.11,3.72,1.08,5.37,2.14c2.02,1.31,4.12,2.53,6.4,3.3c2.28,0.77,4.76,1.08,7.11,0.55"/>
<path class="st6" d="M268.51,639.91c1.67,2.78,4.28,4.98,7.3,6.14c3.02,1.16,6.44,1.28,9.54,0.34"/>
<line class="st6" x1="274.32" y1="645.41" x2="244.11" y2="645.41"/>
<path class="st6" d="M257.12,645.37c-1.04-0.59-1.37-1.94-1.32-3.13c0.02-0.35,0.06-0.71,0.23-1.02c0.26-0.46,0.78-0.72,1.27-0.92
	c1.55-0.63,3.21-0.96,4.88-0.97c2.09-0.02,4.22,0.45,6.24-0.06"/>
<path class="st6" d="M260.04,635.43c-4.19,1.76-8.45,3.57-11.88,6.55c-0.65,0.57-1.28,1.19-1.67,1.96c-0.15,0.29-0.26,0.62-0.2,0.94
	s0.34,0.62,0.66,0.6"/>
<path class="st6" d="M374.92,639.55"/>
<path class="st6" d="M326.73,623.85c17.59,1.55,31.4,17.05,31.4,35.95v25.67h4.91v-25.67c0-19.92-15.36-36.07-34.31-36.07
	c-0.67,0-1.34,0.02-2,0.06c-18.02,1.09-32.32,16.8-32.32,36.01v25.68l-4.26-0.01v-19.28"/>
<path class="st6" d="M330.05,616.73c21.48,1.38,38.49,20.13,38.49,43.06v6.39h3.69"/>
<line class="st9" x1="326.21" y1="637.4" x2="326.21" y2="641.23"/>
<line class="st9" x1="326.21" y1="672.16" x2="326.21" y2="675.99"/>
<line class="st9" x1="316.71" y1="639.9" x2="318.6" y2="643.23"/>
<line class="st9" x1="333.82" y1="670.15" x2="335.71" y2="673.49"/>
<line class="st9" x1="309.93" y1="646.35" x2="313.16" y2="648.4"/>
<line class="st9" x1="339.27" y1="664.98" x2="342.5" y2="667.03"/>
<line class="st9" x1="335.71" y1="639.9" x2="333.82" y2="643.23"/>
<line class="st9" x1="318.6" y1="670.15" x2="316.71" y2="673.49"/>
<line class="st9" x1="342.5" y1="646.35" x2="339.27" y2="648.4"/>
<line class="st9" x1="313.16" y1="664.98" x2="309.93" y2="667.03"/>
<line class="st9" x1="306.92" y1="656.76" x2="310.75" y2="656.75"/>
<line class="st9" x1="341.68" y1="656.64" x2="345.5" y2="656.62"/>
<ellipse class="st6" cx="326.58" cy="656.6" rx="19.66" ry="20.06"/>
<ellipse class="st6" cx="326.58" cy="656.6" rx="14.85" ry="15.16"/>
<path class="st6" d="M268.43,638.75c2.02,1.04,4.05,2.09,6.22,2.77s4.51,0.97,6.72,0.47"/>
<polyline class="st6" points="290.15,685.46 285.16,685.46 285.16,666.18 "/>
<polyline class="st6" points="368.53,666.18 368.53,685.46 363.04,685.46 "/>
<path class="st6" d="M286.45,685.46v1.17c0,1.31,1.06,2.37,2.37,2.37h3.2c1.31,0,2.37-1.06,2.37-2.37v-1.16"/>
<path class="st6" d="M359.3,685.46v1.17c0,1.31,1.06,2.37,2.37,2.37h3.2c1.31,0,2.37-1.06,2.37-2.37v-1.16"/>
<path class="st6" d="M473.01,662.02h-93.99v-2.23c0-27.77-21.42-50.28-47.83-50.28c-26.42,0-47.83,22.51-47.83,50.28v2.23H180.88"/>
<path class="st6" d="M377.51,647.23h92.85v7.52h2.65v7.28h2.95v4.16H372.22v-6.39c0-23.82-18.37-43.14-41.03-43.14
	c-22.66,0-41.03,19.31-41.03,43.14v6.39H179.76"/>
<polyline class="st6" points="243.38,645.41 187.05,645.41 187.05,654.64 184.09,654.64 184,661.92 179.76,661.92 179.76,666.08 "/>
<polyline class="st6" points="466.49,647.23 519.72,647.23 519.72,654.64 515.99,654.64 515.78,661.92 511.54,661.92 511.54,666.08 
	475.95,666.08 "/>
<polyline class="st6" points="189.09,645.41 136.68,645.37 136.68,654.64 139.64,654.64 139.8,661.92 144.04,661.92 144.04,666.08 
	179.62,666.08 "/>
<polyline class="st6" points="132.81,645.37 132.81,654.64 135.76,654.64 135.93,661.92 140.16,661.92 140.16,666.08 144.04,666.08 
	144.04,721.56 "/>
<polyline class="st6" points="136.68,645.37 62.89,645.37 62.89,654.64 59.93,654.64 59.77,661.92 55.53,661.92 55.53,666.08 
	51.66,666.08 51.66,721.56 54.31,721.56 612.63,721.56 "/>
<path class="st6" d="M276.93,631.32c0,0,12.2,1.37,16-1.72"/>
<path class="st6" d="M402.82,631.97c0.35,0.68,0.7,1.37,1.06,2.05c0.08,0.15,0.16,0.31,0.14,0.47c-0.01,0.2-0.15,0.37-0.32,0.48
	c-0.6,0.4-1.44,0.09-1.93-0.43c-0.49-0.52-0.76-1.21-1.15-1.81c-1.66-2.58-5.11-3.12-7.92-4.37c-2.85-1.27-5.22-3.43-7.14-5.88
	c-1.93-2.45-3.44-5.19-4.94-7.92"/>
<path class="st6" d="M407.61,636.54c-0.46-1.29-1.15-3.71-1.8-4.62c-2.02-2.84-5.88-3.73-8.97-5.34s-6.11-3.55-8.15-6.37
	c-1.61-2.21-2.53-4.83-3.77-7.27s-2.93-4.83-5.45-5.91c-1.59-0.69-3.37-0.79-5.11-0.76c0,0-3.08,0-3.08-6.61"/>
<path class="st6" d="M368.32,609.37c-0.04-0.94-0.12-1.87-0.25-2.8c-0.04-0.25-0.08-0.52-0.24-0.72c-0.3-0.39-0.88-0.4-1.31-0.62
	c-0.98-0.51-1.06-3.3-1.06-3.3l-1.04-0.39c-0.96-0.27-0.56-0.86-0.21-1.19c0.32-0.32,0.59-0.69,0.82-1.08
	c0.74-1.22-0.07-2.98,0.77-4.13"/>
<path class="st6" d="M368.28,609.51c-2.6,1.51-5.02,3.33-7.2,5.4c0,0-1.51,1.25-2.43,2.25"/>
<path class="st6" d="M365.16,616.63c-0.42,0.9-0.72,1.85-0.89,2.83c-0.17,0.94-0.21,1.93,0.12,2.82c0.32,0.85,0.99,1.55,1.81,1.92
	c0.83,0.37,1.8,0.4,2.64,0.07"/>
<path class="st6" d="M377.75,620.56c-1.15-0.02-2.28-0.48-3.13-1.25c-0.84-0.78-1.39-1.87-1.51-3.01"/>
<path class="st6" d="M367.03,595.89c1.34,0.56,2.64,0.99,3.5,2.16c0.51,0.7,0.58,1.63,0.52,2.49l6.83,3.15c0,0,6-13.01-0.49-15.83
	c-8.64-3.76-12.24,6.76-12.24,6.76S366.18,595.53,367.03,595.89z"/>
<line class="st6" x1="368.22" y1="599.33" x2="368.22" y2="600"/>
<path class="st6" d="M392.65,628.8c-1.96-0.11-3.72,1.08-5.37,2.14c-2.02,1.31-4.12,2.53-6.4,3.3c-2.28,0.77-4.76,1.08-7.11,0.55"/>
<path class="st6" d="M395.1,639.91c-1.67,2.78-4.28,4.98-7.3,6.14c-3.02,1.16-6.44,1.28-9.54,0.34"/>
<path class="st6" d="M406.5,645.37c1.04-0.59,1.37-1.94,1.32-3.13c-0.02-0.35-0.06-0.71-0.23-1.02c-0.26-0.46-0.78-0.72-1.27-0.92
	c-1.55-0.63-3.21-0.96-4.88-0.97c-2.09-0.02-4.22,0.45-6.24-0.06"/>
<path class="st6" d="M403.57,635.43c4.19,1.76,8.45,3.57,11.88,6.55c0.65,0.57,1.28,1.19,1.67,1.96c0.15,0.29,0.26,0.62,0.2,0.94
	s-0.34,0.62-0.66,0.6"/>
<path class="st6" d="M395.18,638.75c-2.02,1.04-4.05,2.09-6.22,2.77s-4.51,0.97-6.72,0.47"/>
<path class="st6" d="M386.68,631.32c0,0-12.2,1.37-16-1.72"/>
<path class="st6" d="M373.42,587.06v-1.89c0,0-3.36-0.15-5.41,1.52l-4.01-6.15c0,0,10.77-5.94,18.68,2.49
	c6.25,6.66,3.15,13.97,3.15,13.97h-1.98c0,0,0.36-8.74-5.54-11.18l-0.91,2.03"/>
<path class="st6" d="M377.88,603.69c1.42,0.33,2.47,0.63,3.76,1.29c0.8,0.41,1.61,0.84,2.28,1.45c0.78,0.7,1.35,1.64,1.52,2.67
	c0.17,1.03-0.07,2.14-0.74,2.94c-0.02,0.03-0.06,0.06-0.09,0.04c-0.03-0.02,0.02-0.08,0.03-0.04"/>
<path class="st6" d="M367.66,605.83c-0.03-0.14-0.24-0.12-0.37-0.05c-0.98,0.48-1.71,1.39-2.16,2.38s-0.67,2.08-0.85,3.16
	c-0.05,0.28-0.14,0.62-0.42,0.68"/>
<path class="st6" d="M367.21,590.81c0.96,0.14,1.93,0.28,2.89,0.41"/>
<path class="st6" d="M320.41,610.23c-0.29-0.68-0.57-1.48-0.21-2.13c0.29-0.52,0.9-0.76,1.4-1.09c1.21-0.79,1.88-2.34,1.63-3.76
	c-0.21-1.21-1-2.22-1.62-3.27s-1.11-2.34-0.68-3.48c0.36-0.95,1.29-1.59,2.27-1.85c0.98-0.26,2.01-0.21,3.02-0.16v-5.53
	c0,0-0.14-3.97,4.5-3.97"/>
<path class="st6" d="M341.04,610.23c0.29-0.68,0.57-1.48,0.21-2.13c-0.29-0.52-0.9-0.76-1.4-1.09c-1.21-0.79-1.88-2.34-1.63-3.76
	c0.21-1.21,1-2.22,1.62-3.27c0.62-1.05,1.11-2.34,0.68-3.48c-0.36-0.95-1.29-1.59-2.27-1.85c-0.98-0.26-2.01-0.21-3.02-0.16v-5.53
	c0,0,0.14-3.97-4.5-3.97h-5.35c-4.64,0-4.5,3.97-4.5,3.97v5.53c-1.01-0.05-2.05-0.1-3.02,0.16c-0.98,0.26-1.91,0.9-2.27,1.85
	c-0.43,1.15,0.06,2.43,0.68,3.48c0.62,1.05,1.41,2.07,1.62,3.27c0.25,1.42-0.42,2.97-1.63,3.76c-0.5,0.33-1.11,0.56-1.4,1.09
	c-0.36,0.65-0.07,1.45,0.21,2.13l0.95,1.86"/>
<polyline class="st6" points="378.44,673.98 380.36,673.98 380.36,686.88 378.44,686.88 "/>
<polyline class="st6" points="389.59,673.98 386.43,673.98 380.36,679.34 386.65,686.88 389.59,686.88 "/>
<line class="st6" x1="395.6" y1="673.98" x2="395.6" y2="686.47"/>
<polyline class="st6" points="401.89,686.88 401.89,673.98 413.03,686.47 413.03,673.98 "/>
<polyline class="st6" points="428.55,684.14 428.55,686.47 419.04,686.47 419.04,673.98 428.55,673.98 428.55,676.06 "/>
<path class="st6" d="M419,678.85c0.18-0.66,0.98-0.92,1.66-0.97c1.19-0.1,2.39,0.05,3.52,0.45c1.38,0.49,2.67,1.35,4.13,1.48
	c1.41,0.12,2.85-0.5,3.73-1.61"/>
<polyline class="st6" points="435.32,686.88 435.32,673.11 441.22,682.18 446.24,673.11 446.24,686.88 "/>
<polyline class="st6" points="452.16,686.88 458.06,673.11 464.78,686.47 "/>
<line class="st6" x1="461.43" y1="679.83" x2="455.18" y2="679.83"/>
<line class="st6" x1="450.96" y1="686.88" x2="453.47" y2="686.88"/>
<line class="st6" x1="463.08" y1="686.88" x2="466.14" y2="686.88"/>
<polyline class="st6" points="209.14,686.88 215.04,673.11 221.76,686.47 "/>
<line class="st6" x1="218.42" y1="679.83" x2="212.16" y2="679.83"/>
<line class="st6" x1="207.94" y1="686.88" x2="210.45" y2="686.88"/>
<line class="st6" x1="220.06" y1="686.88" x2="223.12" y2="686.88"/>
<line class="st6" x1="448.32" y1="686.88" x2="444.22" y2="686.88"/>
<line class="st6" x1="437.18" y1="686.88" x2="433.57" y2="686.88"/>
<line class="st6" x1="419.04" y1="673.98" x2="417.51" y2="673.98"/>
<line class="st6" x1="419.04" y1="686.47" x2="417.51" y2="686.47"/>
<polyline class="st6" points="247.53,684.14 247.53,686.47 238.02,686.47 238.02,673.98 247.53,673.98 247.53,676.06 "/>
<path class="st6" d="M237.98,678.85c0.18-0.66,0.98-0.92,1.66-0.97c1.19-0.1,2.39,0.05,3.52,0.45c1.38,0.49,2.67,1.35,4.13,1.48
	c1.41,0.12,2.85-0.5,3.73-1.61"/>
<line class="st6" x1="238.02" y1="673.98" x2="236.49" y2="673.98"/>
<line class="st6" x1="238.02" y1="686.47" x2="236.49" y2="686.47"/>
<line class="st6" x1="403.31" y1="686.88" x2="400.61" y2="686.88"/>
<line class="st6" x1="411.4" y1="673.98" x2="414.56" y2="673.98"/>
<line class="st6" x1="397.32" y1="686.88" x2="394.07" y2="686.88"/>
<line class="st6" x1="397.32" y1="673.98" x2="394.07" y2="673.98"/>
<line class="st6" x1="228.5" y1="673.98" x2="228.5" y2="686.47"/>
<line class="st6" x1="230.21" y1="686.88" x2="226.97" y2="686.88"/>
<line class="st6" x1="257.6" y1="673.98" x2="257.6" y2="686.47"/>
<line class="st6" x1="259.32" y1="686.88" x2="256.08" y2="686.88"/>
<line class="st6" x1="271.97" y1="686.88" x2="268.73" y2="686.88"/>
<line class="st6" x1="230.21" y1="673.98" x2="226.97" y2="673.98"/>
<polyline class="st6" points="262.08,676.28 262.08,673.98 253.08,673.98 253.08,676.28 "/>
<polyline class="st6" points="264.14,673.98 265.88,673.98 270.26,679.05 270.26,686.47 "/>
<polyline class="st6" points="270.26,679.05 273.97,673.98 276.38,673.98 "/>
<path class="st6" d="M203.31,676.84v-2.18c-1.09-0.89-3.67-1.42-5.14-1.42c-3.57,0-6.47,3.12-6.47,6.97s2.89,6.97,6.47,6.97
	s5.46-3.12,5.46-6.97h-2.77"/>
<rect x="372.71" y="670.15" class="st6" width="96.91" height="20.14"/>
<rect x="185.03" y="670.15" class="st6" width="96.91" height="20.14"/>
<polyline class="st6" points="177.1,667.03 177.1,721.56 147.66,721.56 147.66,667.03 "/>
<line class="st6" x1="477.25" y1="666.08" x2="477.25" y2="721.56"/>
<polyline class="st6" points="510.3,667.03 510.3,721.56 480.87,721.56 480.87,667.03 "/>
<line class="st6" x1="144.04" y1="726.73" x2="144.04" y2="967.66"/>
<line class="st6" x1="147.66" y1="1006.54" x2="147.66" y2="727.2"/>
<line class="st6" x1="177.1" y1="808.88" x2="177.1" y2="991.04"/>
<line class="st6" x1="177.1" y1="727.2" x2="177.1" y2="777.64"/>
<line class="st6" x1="477.25" y1="809.55" x2="477.25" y2="983.29"/>
<line class="st6" x1="477.25" y1="726.25" x2="477.25" y2="777.64"/>
<line class="st6" x1="480.87" y1="777.64" x2="480.87" y2="727.2"/>
<line class="st6" x1="480.87" y1="983.29" x2="480.87" y2="809.55"/>
<line class="st6" x1="510.3" y1="809.55" x2="510.3" y2="989.53"/>
<line class="st6" x1="510.3" y1="727.2" x2="510.3" y2="777.64"/>
<polyline class="st6" points="640.65,726.73 94.35,726.73 94.35,721.56 "/>
<line class="st6" x1="132.81" y1="654.64" x2="62.89" y2="654.64"/>
<line class="st6" x1="59.77" y1="661.92" x2="135.93" y2="661.92"/>
<line class="st6" x1="55.53" y1="666.08" x2="140.16" y2="666.08"/>
<polyline class="st6" points="519.72,647.6 623.4,647.6 623.4,654.64 620.44,654.64 620.28,661.92 616.04,661.92 616.04,666.08 
	612.17,666.08 612.17,721.56 640.65,721.56 "/>
<line class="st6" x1="640.65" y1="726.73" x2="640.65" y2="721.56"/>
<line class="st6" x1="519.72" y1="654.64" x2="623.4" y2="654.64"/>
<line class="st6" x1="620.28" y1="661.92" x2="515.78" y2="661.92"/>
<line class="st6" x1="616.04" y1="666.08" x2="511.54" y2="666.08"/>
<polyline class="st6" points="51.66,967.84 51.66,726.73 94.35,726.73 "/>
<polyline class="st6" points="611.3,808.66 611.3,967.84 616.47,972.5 616.47,1006.54 56.82,1006.54 "/>
<polyline class="st6" points="613.96,726.73 611.3,726.73 611.3,777.64 "/>
<rect x="158.92" y="777.64" class="st6" width="491.78" height="6.78"/>
<polyline class="st6" points="643.24,784.42 643.24,790.93 633.2,790.93 633.2,793.94 623.33,793.94 623.33,797.62 623.33,808.88 
	158.92,808.88 158.92,784.42 "/>
<polyline class="st6" points="344.88,784.42 344.88,790.93 334.85,790.93 334.85,793.94 324.98,793.94 324.98,797.62 324.98,808.88 
	"/>
<line class="st6" x1="334.85" y1="793.94" x2="623.33" y2="793.94"/>
<polyline class="st6" points="549.33,1006.54 549.33,998.34 147.66,998.34 147.66,1006.99 "/>
<polyline class="st6" points="536.41,998.34 536.41,990.72 160.65,990.72 160.65,998.34 "/>
<polyline class="st6" points="489.77,990.72 489.77,983.29 177.03,983.29 "/>
<polyline class="st6" points="177.1,961.54 218.37,961.54 218.37,974.14 "/>
<rect x="177.03" y="955.57" class="st6" width="36.59" height="5.97"/>
<path class="st6" d="M210.38,953.16L210.38,953.16c0-1.34-1.13-2.42-2.52-2.42h-25.48c-1.39,0-2.52,1.08-2.52,2.42l0,0
	c0,1.34,1.13,2.42,2.52,2.42h25.48C209.25,955.57,210.38,954.49,210.38,953.16z"/>
<polyline class="st6" points="195.32,955.57 195.32,961.54 195.32,974.14 "/>
<rect x="185.41" y="819.77" class="st6" width="19.13" height="130.97"/>
<rect x="223.41" y="955.57" class="st6" width="36.59" height="5.97"/>
<path class="st6" d="M256.76,953.16L256.76,953.16c0-1.34-1.13-2.42-2.52-2.42h-25.48c-1.39,0-2.52,1.08-2.52,2.42l0,0
	c0,1.34,1.13,2.42,2.52,2.42h25.48C255.63,955.57,256.76,954.49,256.76,953.16z"/>
<line class="st6" x1="241.71" y1="955.57" x2="241.71" y2="961.54"/>
<rect x="177.03" y="808.97" class="st6" width="36.59" height="5.97"/>
<path class="st6" d="M210.38,817.35L210.38,817.35c0,1.34-1.13,2.42-2.52,2.42h-25.48c-1.39,0-2.52-1.08-2.52-2.42l0,0
	c0-1.34,1.13-2.42,2.52-2.42h25.48C209.25,814.93,210.38,816.02,210.38,817.35z"/>
<line class="st6" x1="195.32" y1="814.93" x2="195.32" y2="808.97"/>
<rect x="223.41" y="808.97" class="st6" width="36.59" height="5.97"/>
<path class="st6" d="M256.76,817.35L256.76,817.35c0,1.34-1.13,2.42-2.52,2.42h-25.48c-1.39,0-2.52-1.08-2.52-2.42l0,0
	c0-1.34,1.13-2.42,2.52-2.42h25.48C255.63,814.93,256.76,816.02,256.76,817.35z"/>
<line class="st6" x1="241.71" y1="814.93" x2="241.71" y2="808.97"/>
<rect x="231.8" y="819.77" class="st6" width="19.13" height="130.97"/>
<polyline class="st6" points="218.37,961.54 266.13,961.54 266.13,974.14 "/>
<polyline class="st6" points="388.4,961.54 429.68,961.54 429.68,974.14 "/>
<rect x="388.34" y="955.57" class="st6" width="36.59" height="5.97"/>
<path class="st6" d="M421.68,953.16L421.68,953.16c0-1.34-1.13-2.42-2.52-2.42h-25.48c-1.39,0-2.52,1.08-2.52,2.42l0,0
	c0,1.34,1.13,2.42,2.52,2.42h25.48C420.55,955.57,421.68,954.49,421.68,953.16z"/>
<polyline class="st6" points="406.63,955.57 406.63,961.54 406.63,974.14 "/>
<rect x="396.72" y="819.77" class="st6" width="19.13" height="130.97"/>
<rect x="434.72" y="955.57" class="st6" width="36.59" height="5.97"/>
<path class="st6" d="M468.06,953.16L468.06,953.16c0-1.34-1.13-2.42-2.52-2.42h-25.48c-1.39,0-2.52,1.08-2.52,2.42l0,0
	c0,1.34,1.13,2.42,2.52,2.42h25.48C466.94,955.57,468.06,954.49,468.06,953.16z"/>
<line class="st6" x1="453.01" y1="955.57" x2="453.01" y2="961.54"/>
<rect x="388.34" y="808.97" class="st6" width="36.59" height="5.97"/>
<path class="st6" d="M421.68,817.35L421.68,817.35c0,1.34-1.13,2.42-2.52,2.42h-25.48c-1.39,0-2.52-1.08-2.52-2.42l0,0
	c0-1.34,1.13-2.42,2.52-2.42h25.48C420.55,814.93,421.68,816.02,421.68,817.35z"/>
<line class="st6" x1="406.63" y1="814.93" x2="406.63" y2="808.97"/>
<rect x="434.72" y="808.97" class="st6" width="36.59" height="5.97"/>
<path class="st6" d="M468.06,817.35L468.06,817.35c0,1.34-1.13,2.42-2.52,2.42h-25.48c-1.39,0-2.52-1.08-2.52-2.42l0,0
	c0-1.34,1.13-2.42,2.52-2.42h25.48C466.94,814.93,468.06,816.02,468.06,817.35z"/>
<line class="st6" x1="453.01" y1="814.93" x2="453.01" y2="808.97"/>
<rect x="443.1" y="819.77" class="st6" width="19.13" height="130.97"/>
<polyline class="st6" points="462.23,983.29 462.23,974.14 177.03,974.14 "/>
<polyline class="st6" points="388.34,961.54 381.41,961.54 381.41,974.14 "/>
<line class="st6" x1="453.01" y1="961.54" x2="453.01" y2="974.14"/>
<line class="st6" x1="241.71" y1="961.54" x2="241.71" y2="974.14"/>
<line class="st6" x1="324.98" y1="793.94" x2="158.92" y2="793.94"/>
<line class="st6" x1="255.79" y1="777.64" x2="162.89" y2="707.49"/>
<rect x="159.98" y="700.8" class="st6" width="5.81" height="13.38"/>
<line class="st6" x1="353.95" y1="777.64" x2="261.04" y2="707.49"/>
<rect x="258.14" y="700.8" class="st6" width="5.81" height="13.38"/>
<line class="st6" x1="470.18" y1="777.64" x2="377.28" y2="707.49"/>
<rect x="374.37" y="700.8" class="st6" width="5.81" height="13.38"/>
<line class="st6" x1="586.42" y1="777.64" x2="493.51" y2="707.49"/>
<rect x="490.61" y="700.8" class="st6" width="5.81" height="13.38"/>
<line class="st6" x1="350.9" y1="972.5" x2="350.9" y2="845.61"/>
<line class="st6" x1="304.95" y1="845.61" x2="396.14" y2="845.61"/>
<polyline class="st6" points="250.93,845.61 305.74,845.61 305.74,974.14 "/>
<polyline class="st6" points="214.55,961.54 214.55,845.61 231.8,845.61 "/>
<line class="st6" x1="260" y1="955.57" x2="260" y2="845.61"/>
<polyline class="st6" points="477.43,961.54 429.68,961.54 429.68,845.61 433.15,845.61 433.15,830.46 429.68,830.46 429.68,808.88 
	"/>
<line class="st6" x1="415.85" y1="845.61" x2="428.55" y2="845.61"/>
<line class="st6" x1="433.15" y1="845.61" x2="443.1" y2="845.61"/>
<line class="st6" x1="462.23" y1="845.61" x2="477.25" y2="845.61"/>
<line class="st6" x1="510.3" y1="967.66" x2="611.3" y2="967.66"/>
<polyline class="st6" points="56.82,1006.35 56.82,972.31 51.66,967.66 144.04,967.66 147.66,973.14 "/>
<rect x="83.55" y="823.33" class="st6" width="48.75" height="127.75"/>
<line class="st6" x1="88.67" y1="823.33" x2="88.67" y2="951.08"/>
<rect x="94.28" y="829.77" class="st6" width="31.27" height="115.26"/>
<line class="st6" x1="122.24" y1="945.03" x2="122.24" y2="829.77"/>
<g>
	<g>
		<path class="st0" d="M1876.6,830.16v152.03h7.47v20.71h-357.39v-20.71h-7.14V830.16h27.11V800.5h5.35v-8.83h-32.46v-9.44h-0.12
			V531.75h4.91c1.66,0,3.16-0.67,4.25-1.76c1.09-1.09,1.76-2.59,1.76-4.25h5.01v-8.23h-12.94v-15.34h-2.99v-69.38h5.77v-11.45
			h-19.15v-41.35h10.38v-8.31h3.58v-5.55l-4.17-0.23v-17.33h-4.16v-14.55h-5.63V177.06h5.78l-0.15-11.23h385.58v11.23h-5.77v156.96
			h5.77v14.55h4.16v17.33h4.62v5.54h-3.58v8.32h-13.16v41.58h-19.65v11.45h6.27v69.38h-4.22l0.11,15.34h-4.05l-0.04,14.39l8.2-0.15
			v250.48h0.69v9.44h74.22v8.83h8.03v29.66H1876.6z"/>
	</g>
	<rect x="1836.53" y="982.19" class="st2" width="47.55" height="20.72"/>
	<rect x="1526.68" y="982.19" class="st2" width="43.69" height="20.72"/>
	<rect x="1690.8" y="850.61" class="st2" width="91.77" height="144.26"/>
	<rect x="1570.37" y="850.61" class="st2" width="91.77" height="144.26"/>
	<polygon class="st7" points="1620.71,269.1 1620.58,261.74 1597.76,261.74 1597.76,296.53 1620.58,296.53 1620.58,289.17 
		1605.12,289.17 1605.25,269.1 	"/>
	<polygon class="st7" points="1639.91,261.74 1631.21,261.74 1631.21,296.53 1648.6,296.53 1648.6,289.17 1639.91,289.17 	"/>
	<rect x="1657.3" y="261.74" class="st7" width="8.7" height="34.79"/>
	<polygon class="st7" points="1674.69,296.53 1683.39,296.53 1683.39,282.04 1692.09,282.04 1692.09,275.27 1683.39,275.27 
		1683.39,268.51 1692.09,268.51 1692.09,261.74 1674.69,261.74 	"/>
	<polygon class="st7" points="1709.48,296.53 1718.18,296.53 1718.18,268.51 1726.87,268.51 1726.87,261.74 1700.78,261.74 
		1700.78,268.51 1709.48,268.51 	"/>
	<path class="st7" d="M1761.66,261.74h-26.09v34.79h26.09V261.74z M1752.96,289.77h-8.7v-20.29h8.7V289.77z"/>
	<polygon class="st7" points="1779.06,275.14 1790.65,296.53 1799.35,296.53 1799.35,261.74 1790.65,261.74 1790.65,282.65 
		1779.06,261.74 1770.36,261.74 1770.36,296.53 1779.06,296.53 	"/>
	<g>
		<polyline class="st10" points="1800.68,528.37 1800.68,502.1 1753.76,502.1 		"/>
	</g>
	<g>
		<polyline class="st11" points="1800.68,504.79 1800.68,554.64 1753.76,554.64 		"/>
	</g>
	<g>
		<polyline class="st10" points="1701.12,528.37 1701.12,502.1 1654.19,502.1 		"/>
	</g>
	<g>
		<polyline class="st11" points="1701.12,504.79 1701.12,554.64 1654.19,554.64 		"/>
	</g>
	<g>
		<polyline class="st10" points="1609.63,528.37 1609.63,502.1 1562.7,502.1 		"/>
	</g>
	<g>
		<polyline class="st11" points="1609.63,504.79 1609.63,554.64 1562.7,554.64 		"/>
	</g>
	<g>
		<polyline class="st12" points="1608.83,972.05 1608.83,970.22 1579.53,970.22 1579.53,972.05 		"/>
	</g>
	<g>
		<polyline class="st3" points="1608.83,970.82 1608.83,985.58 1579.53,985.58 1579.53,970.82 		"/>
	</g>
	<g>
		<polyline class="st12" points="1654,972.05 1654,970.22 1624.7,970.22 1624.7,972.05 		"/>
	</g>
	<g>
		<polyline class="st3" points="1654,970.82 1654,985.58 1624.7,985.58 1624.7,970.82 		"/>
	</g>
	<g>
		<polyline class="st12" points="1726.83,972.05 1726.83,970.22 1697.53,970.22 1697.53,972.05 		"/>
	</g>
	<g>
		<polyline class="st3" points="1726.83,970.82 1726.83,985.58 1697.53,985.58 1697.53,970.82 		"/>
	</g>
	<g>
		<polyline class="st12" points="1774.48,972.05 1774.48,970.22 1745.18,970.22 1745.18,972.05 		"/>
	</g>
	<g>
		<polyline class="st3" points="1774.48,970.82 1774.48,985.58 1745.18,985.58 1745.18,970.82 		"/>
	</g>
	<rect x="1562.05" y="830.17" class="st13" width="314.55" height="4.4"/>
	<rect x="1506.04" y="380" class="st13" width="383.25" height="4.29"/>
	<rect x="1579.53" y="860.75" class="st8" width="24.57" height="45.81"/>
	<rect x="1579.53" y="913.46" class="st8" width="24.57" height="45.81"/>
	<rect x="1624.7" y="860.75" class="st8" width="24.57" height="45.81"/>
	<rect x="1624.7" y="913.46" class="st8" width="24.57" height="45.81"/>
	<rect x="1697.53" y="860.75" class="st8" width="24.57" height="45.81"/>
	<rect x="1697.53" y="913.46" class="st8" width="24.57" height="45.81"/>
	<rect x="1745.18" y="860.75" class="st8" width="24.57" height="45.81"/>
	<rect x="1745.18" y="913.46" class="st8" width="24.57" height="45.81"/>
	<rect x="1653.54" y="401.99" class="st8" width="48.22" height="40.16"/>
	<rect x="1653.54" y="452.3" class="st8" width="48.22" height="40.16"/>
	<rect x="1653.54" y="564.87" class="st8" width="48.22" height="40.16"/>
	<rect x="1653.54" y="615.18" class="st8" width="48.22" height="40.16"/>
	<rect x="1653.54" y="665.49" class="st8" width="48.22" height="40.16"/>
	<rect x="1653.54" y="715.79" class="st8" width="48.22" height="40.16"/>
	<rect x="1562.05" y="401.99" class="st8" width="48.22" height="40.16"/>
	<rect x="1562.05" y="452.3" class="st8" width="48.22" height="40.16"/>
	<rect x="1562.05" y="564.87" class="st8" width="48.22" height="40.16"/>
	<rect x="1562.05" y="615.18" class="st8" width="48.22" height="40.16"/>
	<rect x="1562.05" y="665.49" class="st8" width="48.22" height="40.16"/>
	<rect x="1562.05" y="715.79" class="st8" width="48.22" height="40.16"/>
	<rect x="1752.76" y="401.99" class="st8" width="48.22" height="40.16"/>
	<rect x="1752.76" y="452.3" class="st8" width="48.22" height="40.16"/>
	<rect x="1752.76" y="564.87" class="st8" width="48.22" height="40.16"/>
	<rect x="1752.76" y="615.18" class="st8" width="48.22" height="40.16"/>
	<rect x="1752.76" y="665.49" class="st8" width="48.22" height="40.16"/>
	<rect x="1752.76" y="715.79" class="st8" width="48.22" height="40.16"/>
	<rect x="1655.03" y="226.61" class="st8" width="18.48" height="15.61"/>
	<rect x="1655.03" y="205.35" class="st8" width="18.48" height="16.26"/>
	<rect x="1603.68" y="226.61" class="st8" width="18.48" height="15.61"/>
	<rect x="1603.68" y="205.35" class="st8" width="18.48" height="16.26"/>
	<rect x="1775.46" y="226.61" class="st8" width="18.48" height="15.61"/>
	<rect x="1775.46" y="205.35" class="st8" width="18.48" height="16.26"/>
	<rect x="1724.11" y="226.61" class="st8" width="18.48" height="15.61"/>
	<rect x="1724.11" y="205.35" class="st8" width="18.48" height="16.26"/>
	<polyline class="st6" points="1736.29,994.88 1736.29,850.61 1782.57,850.61 1782.57,994.88 	"/>
	<polyline class="st6" points="1690.8,994.88 1690.8,850.61 1737.09,850.61 	"/>
	<polyline class="st6" points="1615.86,994.88 1615.86,850.61 1662.14,850.61 1662.14,994.88 	"/>
	<polyline class="st6" points="1570.37,991.82 1570.37,850.61 1616.66,850.61 	"/>
	<rect x="1653.54" y="392.24" class="st6" width="65.03" height="373.5"/>
	<line class="st6" x1="1711.26" y1="392.24" x2="1711.26" y2="765.74"/>
	<polyline class="st6" points="1562.05,392.24 1627.08,392.24 1627.08,765.74 1562.05,765.74 	"/>
	<line class="st6" x1="1619.77" y1="392.24" x2="1619.77" y2="765.74"/>
	<rect x="1752.76" y="392.24" class="st6" width="65.03" height="373.5"/>
	<line class="st6" x1="1810.47" y1="392.24" x2="1810.47" y2="765.74"/>
	<polyline class="st6" points="1562.05,379.77 1902.45,379.77 1902.45,371.45 1906.04,371.45 1906.04,365.9 1520.01,365.9 	"/>
	<polyline class="st6" points="1849.77,366.13 1849.77,371.68 1846.19,371.68 1846.19,380 1846.19,782.23 1562.05,782.23 
		1562.05,765.74 1562.05,380 	"/>
	<polyline class="st6" points="1845.19,365.9 1845.19,348.58 1841.03,348.58 1841.03,334.02 	"/>
	<polyline class="st6" points="1562.05,365.9 1562.05,348.58 1557.9,348.58 1557.9,334.02 	"/>
	<polyline class="st6" points="1565.64,366.13 1565.64,371.68 1562.05,371.68 1562.05,380 1516.43,380 1516.43,371.68 
		1520.01,371.68 1520.01,366.13 1515.83,365.9 1515.83,348.58 1511.67,348.58 1511.67,334.02 1897.26,334.02 1897.26,348.58 
		1901.42,348.58 1901.42,365.9 	"/>
	<line class="st6" x1="1897.26" y1="348.58" x2="1515.83" y2="348.58"/>
	<polyline class="st6" points="1557.9,334.02 1557.9,165.83 1841.03,165.83 1841.03,184.8 1845.19,184.8 1845.19,194.04 
		1841.03,194.04 1841.03,247.69 1845.19,247.69 1845.19,256.93 1841.03,256.93 1841.03,301.21 1845.19,301.21 1845.19,310.45 
		1841.03,310.45 1841.03,334.02 	"/>
	<line class="st6" x1="1841.03" y1="194.04" x2="1557.9" y2="194.04"/>
	<line class="st6" x1="1841.03" y1="256.93" x2="1557.9" y2="256.93"/>
	<line class="st6" x1="1841.03" y1="310.45" x2="1557.9" y2="310.45"/>
	<polyline class="st6" points="1891.48,334.02 1891.48,177.06 1897.26,177.06 1897.26,165.83 1841.03,165.83 	"/>
	<polyline class="st6" points="1511.67,334.02 1506.04,334.02 1506.04,177.06 1511.82,177.06 1511.67,165.83 1557.9,165.83 	"/>
	<line class="st6" x1="1511.82" y1="177.06" x2="1557.9" y2="177.06"/>
	<line class="st6" x1="1891.48" y1="177.06" x2="1841.03" y2="177.06"/>
	<path class="st6" d="M1516.43,380h-10.38v41.35h19.15v11.45h-5.77v69.39h2.99v15.34h12.94v8.23h-5.01l0,0
		c0,3.32-2.69,6.01-6.01,6.01h-4.91v250.48h42.63"/>
	<polyline class="st6" points="1846.19,782.23 1875.91,782.23 1875.91,531.75 1867.71,531.9 1867.75,517.51 1871.8,517.51 
		1871.69,502.18 1875.91,502.18 1875.91,432.79 1869.64,432.79 1869.64,421.34 1889.29,421.34 1889.29,380 	"/>
	<line class="st6" x1="1519.54" y1="791.67" x2="1519.54" y2="782.23"/>
	<polyline class="st6" points="1876.61,782.23 1876.61,791.67 1950.82,791.67 1950.82,800.51 1958.85,800.51 1958.85,830.17 
		1519.54,830.17 	"/>
	<line class="st6" x1="1846.19" y1="830.17" x2="1846.19" y2="1002.9"/>
	<line class="st6" x1="1836.53" y1="379.77" x2="1836.53" y2="782.23"/>
	<line class="st6" x1="1836.53" y1="830.17" x2="1836.53" y2="1002.9"/>
	<line class="st6" x1="1562.05" y1="830.17" x2="1562.05" y2="982.19"/>
	<polyline class="st6" points="1876.61,830.17 1876.61,982.19 1884.07,982.19 1884.07,1002.9 1526.68,1002.9 1526.68,982.19 
		1519.54,982.19 1519.54,830.17 1526.68,830.17 	"/>
	<line class="st6" x1="1876.61" y1="982.19" x2="1836.53" y2="982.19"/>
	<polyline class="st6" points="1526.68,982.19 1570.37,982.19 1570.37,1002.9 	"/>
	<line class="st6" x1="1519.54" y1="791.67" x2="1876.61" y2="791.67"/>
	<polyline class="st6" points="1800.13,994.88 1800.13,850.61 1803.86,850.61 1803.86,830.17 	"/>
	<line class="st6" x1="1546.65" y1="800.51" x2="1546.65" y2="830.17"/>
	<polyline class="st6" points="1552,791.67 1552,800.51 1546.65,800.51 	"/>
	<line class="st6" x1="1552" y1="800.51" x2="1958.85" y2="800.51"/>
	<polygon class="st6" points="1620.58,296.53 1597.76,296.53 1597.76,261.74 1620.58,261.74 1620.71,269.1 1605.25,269.1 
		1605.12,289.17 1620.58,289.17 	"/>
	<polygon class="st6" points="1631.21,261.74 1631.21,296.53 1648.6,296.53 1648.6,289.17 1639.91,289.17 1639.91,261.74 	"/>
	<rect x="1657.3" y="261.74" class="st6" width="8.7" height="34.79"/>
	<polygon class="st6" points="1674.69,261.74 1674.69,296.53 1683.39,296.53 1683.39,282.04 1692.09,282.04 1692.09,275.27 
		1683.39,275.27 1683.39,268.51 1692.09,268.51 1692.09,261.74 	"/>
	<polygon class="st6" points="1700.78,261.74 1700.78,268.51 1709.48,268.51 1709.48,296.53 1718.18,296.53 1718.18,268.51 
		1726.87,268.51 1726.87,261.74 	"/>
	<rect x="1735.57" y="261.74" class="st6" width="26.09" height="34.79"/>
	<rect x="1744.27" y="269.47" class="st6" width="8.7" height="20.29"/>
	<polygon class="st6" points="1770.36,261.74 1770.36,296.53 1779.06,296.53 1779.06,275.14 1790.65,296.53 1799.35,296.53 
		1799.35,261.74 1790.65,261.74 1790.65,282.65 1779.06,261.74 	"/>
	<polyline class="st6" points="1570.37,994.88 1815.39,994.88 1815.39,1002.9 	"/>
	<line class="st6" x1="1902.45" y1="371.45" x2="1520.01" y2="371.45"/>
	<rect x="1603.68" y="199.67" class="st6" width="23.23" height="47.67"/>
	<rect x="1654.38" y="199.67" class="st6" width="23.23" height="47.67"/>
	<rect x="1723.96" y="199.67" class="st6" width="23.23" height="47.67"/>
	<rect x="1775.46" y="199.67" class="st6" width="23.23" height="47.67"/>
	<line class="st6" x1="1841.03" y1="247.69" x2="1557.9" y2="247.69"/>
	<polyline class="st6" points="1662.14,850.61 1668.43,850.61 1668.43,994.88 	"/>
	<polyline class="st6" points="1782.57,850.61 1788.77,850.61 1788.77,994.88 	"/>
	<line class="st6" x1="1841.03" y1="301.21" x2="1557.9" y2="301.21"/>
	<line class="st6" x1="1841.03" y1="184.8" x2="1557.9" y2="184.8"/>
	<line class="st6" x1="1800.13" y1="850.61" x2="1788.77" y2="850.61"/>
	<line class="st6" x1="1690.8" y1="850.61" x2="1668.43" y2="850.61"/>
	<line class="st6" x1="1570.37" y1="850.61" x2="1562.05" y2="850.61"/>
	<rect x="1579.53" y="855.99" class="st6" width="29.3" height="108.19"/>
	<rect x="1624.7" y="855.99" class="st6" width="29.3" height="108.19"/>
	<rect x="1697.53" y="855.99" class="st6" width="29.3" height="108.19"/>
	<rect x="1745.18" y="855.99" class="st6" width="29.3" height="108.19"/>
</g>
<g>
	<path class="st0" d="M1054.04,25.1"/>
	<line class="st0" x1="896.05" y1="25.81" x2="896.05" y2="25.1"/>
	<path class="st0" d="M855.55,25.1"/>
	<line class="st0" x1="939.17" y1="25.81" x2="939.17" y2="25.1"/>
	<path class="st0" d="M896.45,25.1"/>
	<line class="st0" x1="981.9" y1="25.81" x2="981.9" y2="25.1"/>
	<path class="st0" d="M939.18,25.1"/>
	<line class="st0" x1="1024.63" y1="25.81" x2="1024.63" y2="25.1"/>
	<path class="st0" d="M981.91,25.1"/>
	<line class="st0" x1="1067.35" y1="25.81" x2="1067.35" y2="25.1"/>
	<path class="st0" d="M1024.63,25.1"/>
	<path class="st0" d="M1054.04,67.83"/>
	<path class="st0" d="M855.55,67.83"/>
	<path class="st0" d="M896.45,67.83"/>
	<path class="st0" d="M939.18,67.83"/>
	<path class="st0" d="M981.91,67.83"/>
	<line class="st0" x1="1067.35" y1="80.71" x2="1067.35" y2="80.01"/>
	<path class="st0" d="M1024.63,67.83"/>
	<path class="st0" d="M1054.04,79.79"/>
	<path class="st0" d="M855.55,79.79"/>
	<line class="st0" x1="939.17" y1="116.24" x2="939.17" y2="111.17"/>
	<path class="st0" d="M896.45,79.79"/>
	<path class="st0" d="M939.18,79.79"/>
	<path class="st0" d="M981.91,79.79"/>
	<path class="st0" d="M1024.63,79.79"/>
	<path class="st0" d="M1067.36,120.55"/>
	<line class="st0" x1="1048.57" y1="197.03" x2="1048.3" y2="197.03"/>
	<line class="st0" x1="1067.35" y1="177.93" x2="1067.35" y2="177.22"/>
	<line class="st0" x1="1067.35" y1="160.53" x2="1067.35" y2="159.81"/>
	<line class="st0" x1="1063.1" y1="237.93" x2="1063.08" y2="237.93"/>
	<line class="st0" x1="1067.35" y1="228.39" x2="1067.35" y2="227.68"/>
	<line class="st0" x1="1067.35" y1="209.28" x2="1067.35" y2="209.19"/>
	<line class="st0" x1="1067.35" y1="200.85" x2="1067.35" y2="197.03"/>
	<line class="st0" x1="1067.35" y1="275.73" x2="1067.35" y2="267.82"/>
	<line class="st0" x1="1067.35" y1="258.74" x2="1067.35" y2="258.04"/>
	<line class="st0" x1="1067.36" y1="237.93" x2="1067.36" y2="248.18"/>
	<line class="st0" x1="1084.48" y1="280.65" x2="1084.4" y2="280.65"/>
	<line class="st0" x1="1079.79" y1="280.65" x2="1079.27" y2="280.65"/>
	<line class="st0" x1="1084.48" y1="323.41" x2="1084.4" y2="323.41"/>
	<line class="st0" x1="1048.95" y1="408.54" x2="1048.79" y2="408.54"/>
	<line class="st0" x1="1067.35" y1="393.82" x2="1067.35" y2="393.11"/>
	<line class="st0" x1="1067.35" y1="424.18" x2="1067.35" y2="423.47"/>
	<line class="st0" x1="1067.35" y1="413.61" x2="1067.35" y2="408.54"/>
	<line class="st0" x1="1084.48" y1="451.17" x2="1084.4" y2="451.17"/>
	<line class="st0" x1="1067.35" y1="472.52" x2="1067.35" y2="471.81"/>
	<line class="st0" x1="1067.35" y1="508.02" x2="1067.35" y2="507.31"/>
	<path class="st0" d="M1067.36,491.31"/>
	<line class="st0" x1="1067.36" y1="536.57" x2="1084.48" y2="536.57"/>
	<line class="st0" x1="1067.35" y1="570.23" x2="1067.35" y2="569.51"/>
	<path class="st0" d="M1053.06,536.6"/>
	<line class="st0" x1="1084.48" y1="579.33" x2="1084.14" y2="579.33"/>
	<line class="st0" x1="1067.35" y1="606.42" x2="1067.35" y2="605.72"/>
	<line class="st0" x1="1084.48" y1="621.23" x2="1084.11" y2="621.23"/>
	<line class="st0" x1="1064.22" y1="663.99" x2="1064.21" y2="663.99"/>
	<line class="st0" x1="1067.35" y1="657.93" x2="1067.35" y2="657.22"/>
	<line class="st0" x1="1067.36" y1="641.53" x2="1067.36" y2="650.91"/>
	<line class="st0" x1="1084.48" y1="705.4" x2="1084.11" y2="705.4"/>
	<path class="st0" d="M1024.63,748.16"/>
	<path class="st0" d="M1067.36,753.41"/>
	<line class="st0" x1="1079.41" y1="110.55" x2="1075.9" y2="110.55"/>
	<text transform="matrix(1 0 0 1 850.0005 789.7561)" class="st0 st14 st15 st16">THE INVISIBLE MAN SAT 645 &amp; 845</text>
	<path class="st0" d="M1069.89,177.08c-0.01-0.01-0.02-0.01-0.03-0.01"/>
	<path class="st0" d="M1073.75,218.51h-0.12"/>
	<path class="st0" d="M1073.75,70.84h-0.12"/>
	<line class="st0" x1="1085.74" y1="519.06" x2="1085.56" y2="519.06"/>
	<line class="st0" x1="1084.48" y1="408.54" x2="1084.48" y2="396.36"/>
	<line class="st0" x1="1084.05" y1="108.79" x2="1084.05" y2="108.51"/>
	<line class="st0" x1="1031.78" y1="402.16" x2="1031.78" y2="365.78"/>
	<path class="st0" d="M1084.28,365.01c-0.35,0.27-0.71,0.52-1.08,0.77"/>
	<polyline class="st0" points="1065.75,346.62 1067.35,346.62 1072.05,346.62 	"/>
	<line class="st0" x1="1072.88" y1="344.96" x2="1069.92" y2="333.99"/>
	<line class="st0" x1="955.04" y1="99.81" x2="955.04" y2="110.82"/>
	<line class="st0" x1="955.04" y1="199.74" x2="955.04" y2="210.75"/>
	<line class="st0" x1="927.73" y1="107" x2="933.15" y2="116.58"/>
	<line class="st0" x1="982.33" y1="203.56" x2="981.9" y2="202.8"/>
	<line class="st0" x1="978.64" y1="197.03" x2="976.92" y2="193.98"/>
	<line class="st0" x1="908.21" y1="125.55" x2="917.5" y2="131.45"/>
	<line class="st0" x1="992.57" y1="179.11" x2="1001.86" y2="185.01"/>
	<line class="st0" x1="980.33" y1="110.55" x2="976.92" y2="116.58"/>
	<line class="st0" x1="982.33" y1="107" x2="981.9" y2="107.76"/>
	<line class="st0" x1="933.15" y1="193.98" x2="927.73" y2="203.56"/>
	<line class="st0" x1="1001.86" y1="125.55" x2="992.57" y2="131.45"/>
	<line class="st0" x1="917.5" y1="179.11" x2="908.21" y2="185.01"/>
	<line class="st0" x1="899.57" y1="155.48" x2="910.58" y2="155.44"/>
	<line class="st0" x1="999.49" y1="155.12" x2="1010.5" y2="155.08"/>
	<line class="st0" x1="899.57" y1="155.48" x2="910.58" y2="155.44"/>
	<line class="st0" x1="999.49" y1="155.12" x2="1010.5" y2="155.08"/>
	<path class="st0" d="M927.08,838.11"/>
	<path class="st0" d="M890.8,950.88"/>
	<path class="st0" d="M880.06,831.27"/>
	<path class="st0" d="M880.06,950.88"/>
	<path class="st0" d="M1071.91,251.21c-0.01,0.01-0.01,0.01-0.02,0.01"/>
	<path class="st0" d="M1071.93,103.56c-0.01,0-0.03,0.01-0.04,0.01"/>
	<line class="st0" x1="1075.18" y1="651.61" x2="1075.18" y2="651.6"/>
	<path class="st0" d="M1070.1,640.85c-0.02-0.01-0.04-0.01-0.06-0.02"/>
	<g>
		<path class="st0" d="M1347.46,997.4v6.89H797.99v-6.89c0-1.05,0.43-2,1.11-2.68c0.69-0.69,1.64-1.11,2.68-1.11h3.64v-6.9
			c0-1.05,0.42-1.99,1.11-2.68c0.68-0.69,1.63-1.11,2.68-1.11h3.63v-6.89c0-2.09,1.7-3.79,3.79-3.79h3.64v-6.89
			c0-1.05,0.43-1.99,1.11-2.68c0.69-0.69,1.64-1.11,2.68-1.11h3.64v-6.89c0-2.09,1.69-3.79,3.79-3.79h1.82V806.22h-18.15v-45.6h-4.7
			v-6.5h22.85V336.49h2.92v-6.04h2.68l-0.05-6.33h16.1V19.93h229.52V73.3c2.13,1.31,3.93,3.15,5.44,5.57l-5.64,4.11l0.2,0.27v14.84
			l6.12,4.33c-1.68,2.68-3.86,4.87-6.55,6.37v44.63h3.94v7.11h-3.94v12.8c4.92,3.57,8.09,9.44,8.09,16.42
			c0,6.98-3.17,12.85-8.09,16.42v14.56c2.33,1.3,4.27,3.23,5.87,5.8l-5.64,4.12l0.2,0.27v14.84l6.12,4.33
			c-1.68,2.68-3.86,4.87-6.55,6.37v11.36h4.97l-4.62,6.42v23.59l6.2,9.26h-6.2v17.03h182.57v6.19h-7.11v0.14
			c0,3.33-2.7,6.04-6.03,6.04v417.63h51.1v6.5H1300v41.41h-2.35v2.1c0,1.15-1.2,2.09-2.69,2.09h-41.13v144.66h11.28
			c1.05,0,1.99,0.42,2.68,1.11c0.69,0.69,1.11,1.63,1.11,2.68v6.89h15.85c2.09,0,3.79,1.7,3.79,3.79v6.89h15.85
			c1.05,0,1.99,0.42,2.68,1.11s1.11,1.63,1.11,2.68v6.89h15.85c2.09,0,3.79,1.7,3.79,3.79v6.9h15.85
			C1345.76,993.61,1347.46,995.3,1347.46,997.4z"/>
	</g>
	<rect x="815.16" y="760.62" class="st1" width="484.84" height="41.41"/>
	<path class="st17" d="M1054.04,25.1"/>
	<polyline class="st17" points="896.05,25.1 896.05,67.83 855.55,67.83 	"/>
	<path class="st17" d="M855.55,25.1"/>
	<polyline class="st17" points="939.18,25.1 939.18,67.83 896.45,67.83 	"/>
	<path class="st17" d="M896.45,25.1"/>
	<polyline class="st17" points="981.91,25.1 981.91,67.83 939.18,67.83 	"/>
	<path class="st17" d="M939.18,25.1"/>
	<polyline class="st17" points="1024.63,25.1 1024.63,67.83 981.91,67.83 	"/>
	<path class="st17" d="M981.91,25.1"/>
	<polyline class="st17" points="1067.36,25.1 1067.36,67.83 1024.63,67.83 	"/>
	<path class="st17" d="M1024.63,25.1"/>
	<line class="st17" x1="1067.36" y1="67.83" x2="1084.48" y2="67.83"/>
	<path class="st17" d="M1054.04,67.83"/>
	<polyline class="st17" points="896.05,67.83 896.05,110.56 855.55,110.56 	"/>
	<path class="st17" d="M855.55,67.83"/>
	<polyline class="st17" points="939.18,67.83 939.18,110.56 896.45,110.56 	"/>
	<path class="st17" d="M896.45,67.83"/>
	<polyline class="st17" points="981.91,67.83 981.91,110.56 939.18,110.56 	"/>
	<path class="st17" d="M939.18,67.83"/>
	<polyline class="st17" points="1024.63,67.83 1024.63,110.56 981.91,110.56 	"/>
	<path class="st17" d="M981.91,67.83"/>
	<line class="st17" x1="1067.36" y1="110.56" x2="1024.63" y2="110.56"/>
	<line class="st17" x1="1067.36" y1="80.01" x2="1067.36" y2="100.51"/>
	<line class="st17" x1="1067.36" y1="67.83" x2="1067.36" y2="70.13"/>
	<path class="st17" d="M1024.63,67.83"/>
	<path class="st17" d="M1054.04,79.79"/>
	<polyline class="st17" points="896.05,111.17 896.05,153.9 855.55,153.9 	"/>
	<path class="st17" d="M855.55,79.79"/>
	<polyline class="st17" points="939.18,111.17 939.18,153.9 896.45,153.9 	"/>
	<path class="st17" d="M896.45,79.79"/>
	<polyline class="st17" points="981.91,111.17 981.91,153.9 939.18,153.9 	"/>
	<path class="st17" d="M939.18,79.79"/>
	<polyline class="st17" points="1024.63,111.17 1024.63,153.9 981.91,153.9 	"/>
	<path class="st17" d="M981.91,79.79"/>
	<line class="st17" x1="1054.99" y1="153.9" x2="1024.63" y2="153.9"/>
	<path class="st17" d="M1024.63,79.79"/>
	<path class="st17" d="M1067.36,120.55"/>
	<polyline class="st17" points="896.05,154.31 896.05,197.03 855.55,197.03 	"/>
	<polyline class="st17" points="939.18,154.31 939.18,197.03 896.45,197.03 	"/>
	<polyline class="st17" points="981.91,154.31 981.91,197.03 939.18,197.03 	"/>
	<polyline class="st17" points="1024.63,154.31 1024.63,197.03 981.91,197.03 	"/>
	<line class="st17" x1="1048.58" y1="197.03" x2="1024.63" y2="197.03"/>
	<polyline class="st17" points="1067.36,177.22 1067.36,197.03 1063.08,197.03 	"/>
	<line class="st17" x1="1067.36" y1="159.82" x2="1067.36" y2="168.89"/>
	<line class="st17" x1="1067.36" y1="197.03" x2="1076.75" y2="197.03"/>
	<polyline class="st17" points="896.05,195.2 896.05,237.93 855.55,237.93 	"/>
	<polyline class="st17" points="939.18,195.2 939.18,237.93 896.45,237.93 	"/>
	<polyline class="st17" points="981.91,195.2 981.91,237.93 939.18,237.93 	"/>
	<polyline class="st17" points="1024.63,195.2 1024.63,237.93 981.91,237.93 	"/>
	<line class="st17" x1="1048.33" y1="237.93" x2="1024.63" y2="237.93"/>
	<polyline class="st17" points="1067.36,227.68 1067.36,237.93 1063.08,237.93 	"/>
	<line class="st17" x1="1067.36" y1="209.19" x2="1067.36" y2="217.8"/>
	<line class="st17" x1="1067.36" y1="195.2" x2="1067.36" y2="200.85"/>
	<line class="st17" x1="1067.36" y1="237.93" x2="1084.48" y2="237.93"/>
	<polyline class="st17" points="896.05,237.93 896.05,280.66 855.55,280.66 	"/>
	<polyline class="st17" points="939.18,237.93 939.18,280.66 896.45,280.66 	"/>
	<polyline class="st17" points="981.91,237.93 981.91,280.66 939.18,280.66 	"/>
	<polyline class="st17" points="1024.63,237.93 1024.63,280.66 981.91,280.66 	"/>
	<line class="st17" x1="1053.84" y1="280.66" x2="1024.63" y2="280.66"/>
	<line class="st17" x1="1067.36" y1="258.04" x2="1067.36" y2="275.73"/>
	<line class="st17" x1="1067.36" y1="237.93" x2="1067.36" y2="248.18"/>
	<line class="st17" x1="1079.28" y1="280.66" x2="1084.48" y2="280.66"/>
	<polyline class="st17" points="896.05,280.69 896.05,323.41 855.55,323.41 	"/>
	<polyline class="st17" points="939.18,280.69 939.18,323.41 896.45,323.41 	"/>
	<polyline class="st17" points="981.91,280.69 981.91,323.41 939.18,323.41 	"/>
	<polyline class="st17" points="1024.63,280.69 1024.63,323.41 981.91,323.41 	"/>
	<polyline class="st17" points="1067.36,297.42 1067.36,323.41 1024.63,323.41 	"/>
	<line class="st17" x1="1067.36" y1="323.41" x2="1084.48" y2="323.41"/>
	<polyline class="st17" points="1067.36,323.05 1067.36,365.78 1031.78,365.78 	"/>
	<line class="st17" x1="1067.36" y1="365.78" x2="1084.48" y2="365.78"/>
	<line class="st17" x1="1048.95" y1="408.54" x2="1033.7" y2="408.54"/>
	<polyline class="st17" points="1067.36,393.11 1067.36,408.54 1063.96,408.54 	"/>
	<line class="st17" x1="1067.36" y1="365.81" x2="1067.36" y2="383.23"/>
	<line class="st17" x1="1067.36" y1="408.54" x2="1084.48" y2="408.54"/>
	<line class="st17" x1="1063.22" y1="451.18" x2="1033.7" y2="451.18"/>
	<line class="st17" x1="1067.36" y1="423.48" x2="1067.36" y2="432.55"/>
	<line class="st17" x1="1067.36" y1="408.45" x2="1067.36" y2="413.61"/>
	<line class="st17" x1="1076.34" y1="451.18" x2="1084.48" y2="451.18"/>
	<line class="st17" x1="1051.72" y1="493.93" x2="1033.7" y2="493.93"/>
	<line class="st17" x1="1067.36" y1="471.81" x2="1067.36" y2="491.31"/>
	<line class="st17" x1="1069.87" y1="493.93" x2="1077.15" y2="493.93"/>
	<line class="st17" x1="1053.06" y1="536.57" x2="1033.7" y2="536.57"/>
	<line class="st17" x1="1067.36" y1="507.31" x2="1067.36" y2="530.25"/>
	<path class="st17" d="M1067.36,491.31"/>
	<line class="st17" x1="1067.36" y1="536.57" x2="1084.48" y2="536.57"/>
	<polyline class="st17" points="1067.36,569.52 1067.36,579.33 1033.7,579.33 	"/>
	<path class="st17" d="M1053.06,536.6"/>
	<line class="st17" x1="1067.36" y1="579.33" x2="1084.48" y2="579.33"/>
	<polyline class="st17" points="1067.36,605.72 1067.36,621.23 1033.7,621.23 	"/>
	<line class="st17" x1="1067.36" y1="578.51" x2="1067.36" y2="594.34"/>
	<line class="st17" x1="1067.36" y1="621.23" x2="1084.48" y2="621.23"/>
	<line class="st17" x1="1051.95" y1="663.99" x2="1033.7" y2="663.99"/>
	<polyline class="st17" points="1067.36,657.22 1067.36,663.99 1064.22,663.99 	"/>
	<line class="st17" x1="1067.36" y1="641.53" x2="1067.36" y2="650.91"/>
	<line class="st17" x1="1067.36" y1="621.26" x2="1067.36" y2="633.42"/>
	<line class="st17" x1="1067.36" y1="663.99" x2="1074.92" y2="663.99"/>
	<polyline class="st17" points="1067.36,662.67 1067.36,705.4 1033.7,705.4 	"/>
	<line class="st17" x1="1067.36" y1="705.4" x2="1084.48" y2="705.4"/>
	<path class="st17" d="M1024.63,748.16"/>
	<line class="st17" x1="1067.36" y1="705.43" x2="1067.36" y2="753.41"/>
	<path class="st17" d="M1067.36,753.41"/>
	<line class="st17" x1="1067.36" y1="120.55" x2="1067.36" y2="110.56"/>
	<line class="st17" x1="1075.91" y1="110.56" x2="1084.06" y2="110.56"/>
	<line class="st18" x1="1300" y1="789.97" x2="815.16" y2="789.97"/>
	<line class="st18" x1="1300" y1="772.97" x2="815.16" y2="772.97"/>
	<line class="st18" x1="856.79" y1="760.62" x2="856.79" y2="802.03"/>
	<line class="st18" x1="960.79" y1="760.62" x2="960.79" y2="802.03"/>
	<line class="st18" x1="1051.79" y1="760.62" x2="1051.79" y2="802.03"/>
	<line class="st18" x1="1140.79" y1="760.62" x2="1140.79" y2="802.03"/>
	<line class="st18" x1="1230.79" y1="760.62" x2="1230.79" y2="802.03"/>
	<path class="st2" d="M1188.97,853.17v67.08h34.42v-67.08H1188.97z M1215.62,916.22h-22.64V857.1h22.64V916.22z"/>
	<rect x="1085.2" y="838.11" class="st13" width="70.94" height="112.77"/>
	<rect x="990.15" y="838.11" class="st13" width="70.94" height="112.77"/>
	<rect x="911.73" y="838.11" class="st13" width="50.19" height="112.77"/>
	<path class="st7" d="M878.51,336.49h-45.2v416.92h78.42V402.16h7.74v14.93h9.85v-14.93h7.59c0,0,5.43,0.37,5.43,4.35
		s0,10.58,0,10.58h9.19v-14.93h9.01c0,0,4.08,1.43,4.08,4.87s0.06,10.06,0.06,10.06h9.85v-14.93h8.96c0,0,4.2,2.05,4.2,4.93
		s0,10,0,10h9.85v-14.93h8.11c0,0,5.05,0.65,5.05,5.05s0,9.88,0,9.88h9.85v-14.93h8.39c0,0,2.67,0.77,2.85,0.95s0-66.61,0-66.61
		H878.51z"/>
	<path class="st7" d="M1163.77,336.49h-79.29v49.87c0,0,1.55,0.68,3.14,2.61s2.31,3,2.31,3l-6.01,4.39l0.56,14.84l6.12,4.33
		l-1.29,1.96l5.45-0.4v-14.93h7.55c0,0,5.61,0.73,5.61,5.61c0,4.87,0,9.32,0,9.32h9.85v-14.93h7.5c0,0,5.66-0.03,5.66,5.66
		s0,9.27,0,9.27h9.85v-14.93h8.11c0,0,5.05,0.65,5.05,5.05s0,9.88,0,9.88h9.85v-14.93h9.51c0,0,3.64,1.21,3.64,4.77
		c0,3.55,0,347.2,0,347.2h76.9V336.49L1163.77,336.49L1163.77,336.49z"/>
	<rect x="833.31" y="806.22" class="st13" width="420.52" height="3.22"/>
	<g>
		<path d="M832.86,789.76v-13.25c0-0.02,0-0.02-0.02-0.04c-0.04-0.04-0.07-0.07-0.09-0.07h-3.54v-3.15h10.5v3.15h-3.56l-0.13,0.11
			v13.25H832.86z"/>
		<path d="M854.2,773.25h3.15v16.5h-3.15v-6.58c0-0.09-0.04-0.13-0.13-0.13h-5.37c-0.09,0-0.13,0.04-0.13,0.13v6.58h-3.15v-16.5
			h3.15v6.51c0,0.09,0.04,0.13,0.13,0.13h5.37c0.09,0,0.13-0.04,0.13-0.13V773.25z"/>
		<path d="M866.41,786.48c0,0.09,0.04,0.13,0.13,0.13h5.79v3.15h-9.06v-16.5h9.06v3.15h-5.79c-0.09,0-0.13,0.04-0.13,0.13v3.23
			c0,0.09,0.04,0.13,0.13,0.13h5.79v3.15h-5.79c-0.09,0-0.13,0.04-0.13,0.13V786.48z"/>
		<path d="M890.99,773.25v16.5h-3.15v-16.5H890.99z"/>
		<path d="M899.74,773.25l7.04,10.45v-10.43h3.15v16.48H907l-7.06-10.45v10.45h-3.15v-16.48L899.74,773.25z"/>
		<path d="M929.14,773.25l-5.88,16.5h-2.4l-5.79-16.5h3.37l3.56,10.87c0,0.02,0,0.02,0.02,0.04c0,0.02,0.02,0.04,0.04,0.04
			l0.04-0.04c0-0.02,0-0.02,0.02-0.04l3.59-10.87H929.14z"/>
		<path d="M937.36,773.25v16.5h-3.15v-16.5H937.36z"/>
		<path d="M945.63,785.38c0.44,0.73,0.99,1.43,2.16,1.43c0.95,0,1.63-0.79,1.63-1.67c0-1.56-1.12-1.91-2.31-2.38
			c-2.24-0.86-3.96-2.13-3.96-4.73c0-2.97,1.89-4.91,4.82-4.91c1.61,0,3.52,0.92,4.09,2.73l-2.84,1.36
			c-0.35-0.77-1.01-0.92-1.45-0.92c-0.81,0-1.47,0.79-1.47,1.61c0,0.79,0.79,1.45,1.72,1.85c0.59,0.24,1.74,0.75,2.2,1.03
			c1.65,0.99,2.35,2.24,2.35,4.36c0,2.66-2.07,4.8-4.64,4.8h-0.2c-2.27,0-3.98-1.5-4.6-3.48L945.63,785.38z"/>
		<path d="M961.47,773.25v16.5h-3.15v-16.5H961.47z"/>
		<path d="M967.28,789.76v-16.5h4.73c0.09,0,0.15,0,0.2,0.02c2.44,0.18,4.22,2.09,4.22,4.44c0,1.12-0.35,2.11-0.95,2.9
			c1.17,0.95,1.92,2.35,1.92,4c0,2.82-2.22,5.06-5.02,5.13H967.28z M971.79,776.4h-1.23c-0.09,0-0.13,0.04-0.13,0.13v3.04
			c0,0.09,0.04,0.13,0.13,0.13h1.36c0.88-0.07,1.5-0.84,1.5-1.69C973.42,777.15,972.74,776.4,971.79,776.4z M972.27,786.61
			c1.12,0,1.98-0.99,1.98-2.11c0-1.14-0.86-2.09-1.98-2.09h-1.72c-0.09,0-0.13,0.04-0.13,0.13v3.94c0,0.09,0.04,0.13,0.13,0.13
			H972.27z"/>
		<path d="M991.81,786.61v3.15h-8.67v-16.52h3.15v13.11c0,0.18,0.09,0.26,0.26,0.26H991.81z"/>
		<path d="M1000.59,786.48c0,0.09,0.04,0.13,0.13,0.13h5.79v3.15h-9.07v-16.5h9.07v3.15h-5.79c-0.09,0-0.13,0.04-0.13,0.13v3.23
			c0,0.09,0.04,0.13,0.13,0.13h5.79v3.15h-5.79c-0.09,0-0.13,0.04-0.13,0.13V786.48z"/>
		<path d="M1034.56,773.25h4.2v16.5h-3.1v-10.85c0-0.07-0.07-0.09-4.12,10.85h-2.4l-3.89-10.94v10.94h-3.23v-16.5h4.14l4.2,11.53
			L1034.56,773.25z"/>
		<path d="M1055.99,789.76l-1.3-2.97c-0.02-0.07-0.09-0.11-0.18-0.11h-5.96c-0.09,0-0.15,0.04-0.18,0.11l-1.23,2.97h-3.39l6.58-16.5
			h2.4l6.62,16.5H1055.99z M1051.54,778.86c-0.02,0-0.04,0.02-0.04,0.04c-0.02,0.02-0.02,0.02-0.02,0.04l-1.85,4.64
			c-0.02,0.02-0.02,0.04-0.02,0.09s0.02,0.07,0.09,0.07h3.67c0.07,0,0.09-0.02,0.09-0.09c0-0.02,0-0.04-0.02-0.07l-1.83-4.64
			c-0.02-0.02-0.02-0.02-0.02-0.04L1051.54,778.86z"/>
		<path d="M1067.29,773.25l7.04,10.45v-10.43h3.15v16.48h-2.93l-7.06-10.45v10.45h-3.15v-16.48L1067.29,773.25z"/>
		<path d="M1095.43,785.38c0.44,0.73,0.99,1.43,2.16,1.43c0.95,0,1.63-0.79,1.63-1.67c0-1.56-1.12-1.91-2.31-2.38
			c-2.24-0.86-3.96-2.13-3.96-4.73c0-2.97,1.89-4.91,4.82-4.91c1.61,0,3.52,0.92,4.09,2.73l-2.84,1.36
			c-0.35-0.77-1.01-0.92-1.45-0.92c-0.81,0-1.47,0.79-1.47,1.61c0,0.79,0.79,1.45,1.72,1.85c0.59,0.24,1.74,0.75,2.2,1.03
			c1.65,0.99,2.35,2.24,2.35,4.36c0,2.66-2.07,4.8-4.64,4.8h-0.2c-2.27,0-3.98-1.5-4.6-3.48L1095.43,785.38z"/>
		<path d="M1119.57,789.76l-1.3-2.97c-0.02-0.07-0.09-0.11-0.18-0.11h-5.96c-0.09,0-0.15,0.04-0.18,0.11l-1.23,2.97h-3.39l6.58-16.5
			h2.4l6.62,16.5H1119.57z M1115.12,778.86c-0.02,0-0.04,0.02-0.04,0.04c-0.02,0.02-0.02,0.02-0.02,0.04l-1.85,4.64
			c-0.02,0.02-0.02,0.04-0.02,0.09s0.02,0.07,0.09,0.07h3.67c0.07,0,0.09-0.02,0.09-0.09c0-0.02,0-0.04-0.02-0.07l-1.83-4.64
			c-0.02-0.02-0.02-0.02-0.02-0.04L1115.12,778.86z"/>
		<path d="M1128.19,789.76v-13.25c0-0.02,0-0.02-0.02-0.04c-0.04-0.04-0.07-0.07-0.09-0.07h-3.54v-3.15h10.5v3.15h-3.56l-0.13,0.11
			v13.25H1128.19z"/>
		<path d="M1150.72,781.13l5.13-8.16l2.66,1.69l-2.4,3.7c-0.02,0.02-0.02,0.04-0.02,0.07s0.02,0.04,0.04,0.04
			c3.08,0.29,5.5,2.46,5.5,5.61c0,3.23-2.62,5.85-5.85,5.85s-5.85-2.62-5.85-5.85C1149.92,783,1150.17,781.99,1150.72,781.13z
			 M1155.78,786.79c1.52,0,2.71-1.12,2.71-2.71c0-1.52-1.19-2.71-2.71-2.71c-1.58,0-2.71,1.19-2.71,2.71
			C1153.07,785.66,1154.19,786.79,1155.78,786.79z"/>
		<path d="M1166.69,783.99c1.21-1.96,2.31-3.72,3.3-5.28c1.65-2.66,3.37-5.33,3.41-5.44h3.21v10.74h1.54v3.19h-1.54v2.55h-3.15
			v-2.53c0-0.09-0.04-0.13-0.13-0.13h-6.65V783.99z M1170.16,784.01c-0.02,0.02-0.02,0.04-0.02,0.07c0,0.07,0.02,0.09,0.07,0.09
			h3.12c0.09,0,0.13-0.04,0.13-0.13c0-5.57,0-5.59-0.02-5.59c-0.02,0-0.04,0.02-0.07,0.04L1170.16,784.01z"/>
		<path d="M1193.07,773.25v3.1h-5.39c-0.07,0-0.13,0.04-0.15,0.13l-0.51,2.49c0,0.02,0,0.04,0.02,0.07h0.09
			c0.48-0.13,0.99-0.26,1.91-0.26c3.32,0,5.32,2.42,5.32,5.41c0,3.12-2.46,5.74-5.72,5.74c-1.94,0-3.08-0.55-4.53-1.72l1.1-2.99
			c1.08,0.99,2.31,1.56,3.37,1.56c1.67,0,2.68-1.21,2.68-2.53c0-1.3-1.08-2.53-2.57-2.53c-0.79,0-1.52,0.22-2.13,0.57
			c-0.31,0.18-0.59,0.35-0.84,0.53l-1.83-1.89c0-0.15,0.02-0.26,0.04-0.42l1.34-7.26H1193.07z"/>
		<path d="M1220.15,784.08c-0.04,0.07-0.07,0.13-0.07,0.2c0,0.07,0.02,0.13,0.07,0.18l3.41,3.15l-1.91,2.16
			c-1.06-0.95-2.4-2.2-3.01-2.75l-0.2,0.42c-0.86,1.54-2.49,2.51-4.22,2.51c-2.82,0-5.08-2.2-5.08-4.95c0-1.94,1.01-3.52,2.79-4.64
			c-1.1-0.84-1.65-1.96-1.65-3.34c0-2.13,1.89-3.92,4.07-3.92c2.13,0,3.9,1.78,3.9,3.92c0,1.58-0.9,2.77-2.16,3.59l1.76,1.72
			l1.83-3.54l2.57,1.28L1220.15,784.08z M1214.16,787.07c1.21,0,1.91-1.36,2.2-1.96l0.07-0.13l-2.75-2.57
			c-0.81,0.46-1.69,1.36-1.69,2.49C1211.98,786.13,1212.93,787.07,1214.16,787.07z M1214.23,778.73c0.57-0.11,1.17-1.08,1.17-1.63
			c0-0.62-0.51-1.12-1.12-1.12c-0.64,0-1.14,0.51-1.14,1.12C1213.11,777.94,1214.23,778.75,1214.23,778.73z"/>
		<path d="M1243.84,773.1c2.55,0,4.64,2.09,4.64,4.64c0,1.17-0.59,2.02-1.3,2.82c1.08,0.9,2.09,2.29,2.09,3.96
			c0,2.99-2.44,5.44-5.44,5.44c-2.99,0-5.43-2.44-5.43-5.44c0-1.67,0.99-3.08,2.07-3.96c-0.7-0.79-1.28-1.65-1.28-2.82
			C1239.2,775.19,1241.29,773.1,1243.84,773.1z M1243.84,786.83c1.3,0,2.29-1.01,2.29-2.31s-0.99-2.29-2.29-2.29
			c-1.3,0-2.31,0.99-2.31,2.29S1242.54,786.83,1243.84,786.83z M1243.84,779.28c0.86,0,1.52-0.68,1.52-1.54
			c0-0.86-0.66-1.52-1.52-1.52c-0.86,0-1.54,0.66-1.54,1.52C1242.3,778.6,1242.98,779.28,1243.84,779.28z"/>
		<path d="M1254.75,783.99c1.21-1.96,2.31-3.72,3.3-5.28c1.65-2.66,3.37-5.33,3.41-5.44h3.21v10.74h1.54v3.19h-1.54v2.55h-3.15
			v-2.53c0-0.09-0.04-0.13-0.13-0.13h-6.65V783.99z M1258.23,784.01c-0.02,0.02-0.02,0.04-0.02,0.07c0,0.07,0.02,0.09,0.07,0.09
			h3.12c0.09,0,0.13-0.04,0.13-0.13c0-5.57,0-5.59-0.02-5.59c-0.02,0-0.04,0.02-0.07,0.04L1258.23,784.01z"/>
		<path d="M1281.13,773.25v3.1h-5.39c-0.07,0-0.13,0.04-0.15,0.13l-0.51,2.49c0,0.02,0,0.04,0.02,0.07h0.09
			c0.48-0.13,0.99-0.26,1.91-0.26c3.32,0,5.32,2.42,5.32,5.41c0,3.12-2.46,5.74-5.72,5.74c-1.94,0-3.08-0.55-4.53-1.72l1.1-2.99
			c1.08,0.99,2.31,1.56,3.37,1.56c1.67,0,2.68-1.21,2.68-2.53c0-1.3-1.08-2.53-2.57-2.53c-0.79,0-1.52,0.22-2.13,0.57
			c-0.31,0.18-0.59,0.35-0.84,0.53l-1.83-1.89c0-0.15,0.02-0.26,0.04-0.42l1.34-7.26H1281.13z"/>
	</g>
	<rect x="1140.17" y="907.64" class="st8" width="8.42" height="16.84"/>
	<rect x="1127.18" y="907.64" class="st8" width="8.42" height="16.84"/>
	<rect x="1140.17" y="886.54" class="st8" width="8.42" height="16.84"/>
	<rect x="1127.18" y="886.54" class="st8" width="8.42" height="16.84"/>
	<rect x="1140.17" y="865.43" class="st8" width="8.42" height="16.84"/>
	<rect x="1127.18" y="865.43" class="st8" width="8.42" height="16.84"/>
	<rect x="1140.17" y="844.75" class="st8" width="8.42" height="16.84"/>
	<rect x="1127.18" y="844.75" class="st8" width="8.42" height="16.84"/>
	<rect x="1010.69" y="417.09" class="st8" width="14.76" height="39.22"/>
	<rect x="1010.69" y="462.65" class="st8" width="14.76" height="39.22"/>
	<rect x="1010.69" y="509.49" class="st8" width="14.76" height="39.22"/>
	<rect x="1010.69" y="557.59" class="st8" width="14.76" height="39.22"/>
	<rect x="1011.62" y="605.69" class="st8" width="13.83" height="39.22"/>
	<rect x="1011.62" y="655.06" class="st8" width="14.76" height="43.66"/>
	<rect x="1011.62" y="704.58" class="st8" width="13.83" height="40.33"/>
	<rect x="987.69" y="417.09" class="st8" width="14.76" height="39.22"/>
	<rect x="987.69" y="462.65" class="st8" width="14.76" height="39.22"/>
	<rect x="987.69" y="509.49" class="st8" width="14.76" height="39.22"/>
	<rect x="987.69" y="557.59" class="st8" width="14.76" height="39.22"/>
	<rect x="988.62" y="605.69" class="st8" width="13.83" height="39.22"/>
	<rect x="988.62" y="655.06" class="st8" width="14.76" height="43.66"/>
	<rect x="988.62" y="704.58" class="st8" width="13.83" height="40.33"/>
	<rect x="964.68" y="417.09" class="st8" width="14.76" height="39.22"/>
	<rect x="964.68" y="462.65" class="st8" width="14.76" height="39.22"/>
	<rect x="964.68" y="509.49" class="st8" width="14.76" height="39.22"/>
	<rect x="964.68" y="557.59" class="st8" width="14.76" height="39.22"/>
	<rect x="965.61" y="605.69" class="st8" width="13.83" height="39.22"/>
	<rect x="965.61" y="655.06" class="st8" width="14.76" height="43.66"/>
	<rect x="965.61" y="704.58" class="st8" width="13.83" height="40.33"/>
	<rect x="942.48" y="417.09" class="st8" width="13.96" height="39.22"/>
	<rect x="942.48" y="462.65" class="st8" width="13.96" height="39.22"/>
	<rect x="942.48" y="509.49" class="st8" width="13.96" height="39.22"/>
	<rect x="942.48" y="557.59" class="st8" width="13.96" height="39.22"/>
	<rect x="942.61" y="605.69" class="st8" width="13.83" height="39.22"/>
	<rect x="942.61" y="655.06" class="st8" width="14.76" height="43.66"/>
	<rect x="942.61" y="704.58" class="st8" width="13.83" height="40.33"/>
	<rect x="919.47" y="417.09" class="st8" width="14.76" height="39.22"/>
	<rect x="919.47" y="462.65" class="st8" width="14.76" height="39.22"/>
	<rect x="919.47" y="509.49" class="st8" width="14.76" height="39.22"/>
	<rect x="919.47" y="557.59" class="st8" width="14.76" height="39.22"/>
	<rect x="920.4" y="605.69" class="st8" width="13.83" height="39.22"/>
	<rect x="920.4" y="655.06" class="st8" width="14.76" height="43.66"/>
	<rect x="920.4" y="704.58" class="st8" width="13.83" height="40.33"/>
	<rect x="1153.92" y="417.09" class="st8" width="14.76" height="39.22"/>
	<rect x="1153.92" y="462.65" class="st8" width="14.76" height="39.22"/>
	<rect x="1153.92" y="509.49" class="st8" width="14.76" height="39.22"/>
	<rect x="1153.92" y="557.59" class="st8" width="14.76" height="39.22"/>
	<rect x="1154.85" y="605.69" class="st8" width="13.83" height="39.22"/>
	<rect x="1154.85" y="655.06" class="st8" width="14.76" height="43.66"/>
	<rect x="1154.85" y="704.58" class="st8" width="13.83" height="40.33"/>
	<rect x="1130.92" y="417.09" class="st8" width="14.76" height="39.22"/>
	<rect x="1130.92" y="462.65" class="st8" width="14.76" height="39.22"/>
	<rect x="1130.92" y="509.49" class="st8" width="14.76" height="39.22"/>
	<rect x="1130.92" y="557.59" class="st8" width="14.76" height="39.22"/>
	<rect x="1131.84" y="605.69" class="st8" width="13.83" height="39.22"/>
	<rect x="1131.84" y="655.06" class="st8" width="14.76" height="43.66"/>
	<rect x="1131.84" y="704.58" class="st8" width="13.83" height="40.33"/>
	<rect x="1107.91" y="417.09" class="st8" width="14.76" height="39.22"/>
	<rect x="1107.91" y="462.65" class="st8" width="14.76" height="39.22"/>
	<rect x="1107.91" y="509.49" class="st8" width="14.76" height="39.22"/>
	<rect x="1107.91" y="557.59" class="st8" width="14.76" height="39.22"/>
	<rect x="1108.84" y="605.69" class="st8" width="13.83" height="39.22"/>
	<rect x="1108.84" y="655.06" class="st8" width="14.76" height="43.66"/>
	<rect x="1108.84" y="704.58" class="st8" width="13.83" height="40.33"/>
	<path class="st8" d="M1084.91,456.31h14.76v-39.22l-10.36,0.4c0,0,0.33-0.36-1.77,1.82c-1.62,1.68-2.63,2.08-2.63,2.08V456.31z"/>
	<polygon class="st8" points="1088.07,501.88 1099.67,501.88 1099.67,462.65 1084.91,462.65 1084.91,482.11 1088.07,482.17 	"/>
	<polygon class="st8" points="1084.91,548.71 1099.67,548.71 1099.67,509.49 1088.07,509.49 1088.07,519.31 1084.91,519.36 	"/>
	<polygon class="st8" points="1091.16,580.37 1091.7,580.37 1091.7,596.81 1099.67,596.81 1099.67,557.59 1084.91,557.59 
		1084.12,580.21 	"/>
	<path class="st8" d="M1086.51,644.91h13.16v-39.22h-7.97v13.39h-7.58v20.67C1084.12,639.75,1084.79,639.75,1086.51,644.91z"/>
	<polygon class="st8" points="1084.12,698.72 1100.6,698.72 1100.6,655.06 1086.51,655.06 1086.51,672.37 1084.12,672.37 	"/>
	<rect x="1084.12" y="704.58" class="st8" width="15.55" height="40.33"/>
	<ellipse class="st8" cx="1073.34" cy="346.63" rx="1.28" ry="1.78"/>
	<circle class="st8" cx="955.04" cy="155.08" r="3.47"/>
	<polygon class="st8" points="956.09,154.67 938.55,107 936.06,107.96 953.98,155.49 	"/>
	<rect x="924.34" y="153.87" class="st8" width="30.7" height="2.49"/>
	<line class="st8" x1="1084.12" y1="580.04" x2="1068.97" y2="596.81"/>
	<rect x="1104.17" y="907.64" class="st8" width="8.42" height="16.84"/>
	<rect x="1091.18" y="907.64" class="st8" width="8.42" height="16.84"/>
	<rect x="1104.17" y="886.54" class="st8" width="8.42" height="16.84"/>
	<rect x="1091.18" y="886.54" class="st8" width="8.42" height="16.84"/>
	<rect x="1104.17" y="865.43" class="st8" width="8.42" height="16.84"/>
	<rect x="1091.18" y="865.43" class="st8" width="8.42" height="16.84"/>
	<rect x="1104.17" y="844.75" class="st8" width="8.42" height="16.84"/>
	<rect x="1091.18" y="844.75" class="st8" width="8.42" height="16.84"/>
	<rect x="1044.17" y="907.64" class="st8" width="8.42" height="16.84"/>
	<rect x="1031.18" y="907.64" class="st8" width="8.42" height="16.84"/>
	<rect x="1044.17" y="886.54" class="st8" width="8.42" height="16.84"/>
	<rect x="1031.18" y="886.54" class="st8" width="8.42" height="16.84"/>
	<rect x="1044.17" y="865.43" class="st8" width="8.42" height="16.84"/>
	<rect x="1031.18" y="865.43" class="st8" width="8.42" height="16.84"/>
	<rect x="1044.17" y="844.75" class="st8" width="8.42" height="16.84"/>
	<rect x="1031.18" y="844.75" class="st8" width="8.42" height="16.84"/>
	<rect x="1007.17" y="907.64" class="st8" width="8.42" height="16.84"/>
	<rect x="994.18" y="907.64" class="st8" width="8.42" height="16.84"/>
	<rect x="1007.17" y="886.54" class="st8" width="8.42" height="16.84"/>
	<rect x="994.18" y="886.54" class="st8" width="8.42" height="16.84"/>
	<rect x="1007.17" y="865.43" class="st8" width="8.42" height="16.84"/>
	<rect x="994.18" y="865.43" class="st8" width="8.42" height="16.84"/>
	<rect x="1007.17" y="844.75" class="st8" width="8.42" height="16.84"/>
	<rect x="994.18" y="844.75" class="st8" width="8.42" height="16.84"/>
	<rect x="947.17" y="907.64" class="st8" width="8.42" height="16.84"/>
	<rect x="934.18" y="907.64" class="st8" width="8.42" height="16.84"/>
	<rect x="947.17" y="886.54" class="st8" width="8.42" height="16.84"/>
	<rect x="934.18" y="886.54" class="st8" width="8.42" height="16.84"/>
	<rect x="947.17" y="865.43" class="st8" width="8.42" height="16.84"/>
	<rect x="934.18" y="865.43" class="st8" width="8.42" height="16.84"/>
	<rect x="947.17" y="844.75" class="st8" width="8.42" height="16.84"/>
	<rect x="934.18" y="844.75" class="st8" width="8.42" height="16.84"/>
	<rect x="911.73" y="907.64" class="st8" width="5.85" height="16.84"/>
	<rect x="911.73" y="886.54" class="st8" width="5.85" height="16.84"/>
	<rect x="911.73" y="865.43" class="st8" width="5.85" height="16.84"/>
	<rect x="911.73" y="844.75" class="st8" width="5.85" height="16.84"/>
	<polyline class="st6" points="1120.86,950.88 1120.86,838.11 1156.15,838.11 1156.15,950.88 	"/>
	<polyline class="st6" points="1085.2,950.88 1085.2,838.11 1121.49,838.11 	"/>
	<path class="st9" d="M1060.61,121.27h7.86v32.16h19.52v7.1h-27.38V121.27z"/>
	<path class="st9" d="M1052.61,189.75c0-11.6,8.76-20.15,19.77-20.15s19.77,8.55,19.77,20.15c0,11.6-8.76,20.15-19.77,20.15
		S1052.61,201.35,1052.61,189.75z M1066.83,209.9h5.55H1066.83c-11.01,0-19.77-8.55-19.77-20.15c0-11.6,8.76-20.15,19.77-20.15h5.55
		 M1084.06,189.75c0-7.33-4.72-12.93-11.68-12.93c-6.96,0-11.68,5.6-11.68,12.93c0,7.33,4.72,12.93,11.68,12.93
		C1079.34,202.68,1084.06,197.08,1084.06,189.75z M1070.64,202.23c5.12-1.47,8.39-6.37,8.39-12.48c0-6.41-3.61-11.5-9.17-12.68"/>
	<path class="st9" d="M1054.99,238.6c0-11.6,8.71-20.09,19.66-20.09c6.91,0,11.85,2.54,15.28,8.03l-6.01,4.39
		c-1.8-3-4.89-5.14-9.27-5.14c-1.04,0-2.02,0.12-2.95,0.36c-5.25,1.33-8.62,6.23-8.62,12.46c0,7.33,4.66,12.93,11.57,12.93
		c4.94,0,7.69-2.42,9.83-5.77l6.12,4.33c-3.31,5.31-8.59,8.66-15.95,8.66C1063.7,258.75,1054.99,250.21,1054.99,238.6z
		 M1074.65,258.75h-6.66c-10.95,0-19.66-8.55-19.66-20.15s8.71-20.09,19.66-20.09h5.76"/>
	<path class="st9" d="M1054.99,90.93c0-11.6,8.71-20.09,19.66-20.09c6.91,0,11.85,2.54,15.28,8.03l-6.01,4.39
		c-1.8-3-4.89-5.14-9.27-5.14c-6.91,0-11.57,5.48-11.57,12.82c0,7.33,4.66,12.93,11.57,12.93c4.94,0,7.69-2.42,9.83-5.77l6.12,4.33
		c-3.31,5.31-8.59,8.66-15.95,8.66C1063.7,111.08,1054.99,102.54,1054.99,90.93z M1074.65,111.08h-6.66
		c-10.95,0-19.66-8.55-19.66-20.15s8.71-20.09,19.66-20.09h5.76"/>
	<path class="st9" d="M1069.99,281.86l10.11-14.03h8.93l-12.8,17.78l14.38,21.48h-9.49l-10.17-15.42l-3.71,4.56v10.85h-7.86v-39.26
		h7.86v13.57v5.08L1069.99,281.86z"/>
	<path class="st9" d="M1054.99,404.04c0-11.6,8.71-20.09,19.66-20.09c6.91,0,11.85,2.54,15.28,8.03l-6.01,4.39
		c-1.8-3-4.89-5.14-9.27-5.14c-6.91,0-11.57,5.48-11.57,12.82s4.66,12.93,11.57,12.93c4.94,0,7.69-2.42,9.83-5.77l6.12,4.33
		c-3.31,5.31-8.59,8.66-15.95,8.66C1063.7,424.19,1054.99,415.64,1054.99,404.04z M1074.65,424.19h-6.66
		c-10.95,0-19.66-8.55-19.66-20.15s8.71-20.09,19.66-20.09h4.81"/>
	<path class="st9" d="M1068.47,433.26h7.86v39.26h-7.86V433.26z"/>
	<path class="st9" d="M1063.48,497.76c0,0,0.56,4.33,0.56,7.16v16.45h-7.36v-35.2c0-1.64,1.98-2.48,3.16-1.33l21.39,20.88
		l-0.02-23.61h6.87v35.2c0,1.64-1.98,2.48-3.15,1.33L1063.48,497.76z"/>
	<path class="st9" d="M1059.68,530.97h26.38v7.1h-18.52v10.25h16.57v6.93h-16.57v7.88h19.31v7.1h-27.17V530.97z"/>
	<path class="st9" d="M1054.46,580.95l18.03,19.72l17.8-19.7c0.49-0.55,1.4-0.2,1.4,0.54v37.57h-7.58v-14.72
		c0-2.66,0.28-6.87,0.28-6.87s-2.3,3.46-4.1,5.54l-7.58,8.72h-0.73l-7.58-8.72c-1.8-2.08-4.1-5.54-4.1-5.54s0.28,4.22,0.28,6.87
		v14.72h-7.52v-37.59C1053.06,580.75,1053.96,580.4,1054.46,580.95z"/>
	<path class="st9" d="M1057.5,647.17c0-5.71,5.31-13.04,13.23-13.04h2.56c7.92,0,13.23,6.51,13.23,13.04v0v25.2h-6.71l-0.01-14.44
		h-15.5l-0.16,14.44h-6.63V647.17z M1057.5,672.37h-5.55v-25.2c0-5.71,5.31-13.04,13.23-13.04h5.55"/>
	<path class="st9" d="M1079.66,651.59l-15.63,0.04v-3.6c0-3.55,3.99-7.39,7.55-7.39h1.65c3.55,0,6.44,3.79,6.44,7.35V651.59z"/>
	<polyline class="st9" points="1053.06,619.08 1047.69,619.08 1047.69,580.68 1053.06,580.68 	"/>
	<polyline class="st9" points="1059.68,570.23 1053.06,570.23 1053.06,530.97 1059.68,530.97 	"/>
	<polyline class="st9" points="1056.68,521.37 1051.72,521.37 1051.72,484.45 1057.85,484.45 	"/>
	<polyline class="st9" points="1068.47,472.52 1063.22,472.52 1063.22,433.26 1068.47,433.26 	"/>
	<polyline class="st9" points="1059.38,307.09 1053.84,307.09 1053.84,267.83 1059.38,267.83 	"/>
	<polyline class="st9" points="1080.64,267.83 1074.57,267.83 1067.78,278.59 	"/>
	<polyline class="st9" points="1081.15,307.09 1075.02,307.09 1067.27,296.23 	"/>
	<polyline class="st9" points="1060.61,160.53 1054.99,160.53 1054.99,121.27 1060.61,121.27 	"/>
	<polyline class="st9" points="1085.74,519.06 1079.19,519.06 1064.04,504.92 	"/>
	<polyline class="st9" points="1079.8,672.37 1074.92,672.37 1074.92,657.94 	"/>
	<line class="st9" x1="1084.12" y1="672.37" x2="1084.12" y2="751.9"/>
	<polyline class="st9" points="1084.12,639.75 1084.12,619.08 1079.66,619.08 1079.66,604.17 	"/>
	<line class="st9" x1="1084.12" y1="580.04" x2="1084.12" y2="570.23"/>
	<line class="st9" x1="1084.12" y1="563.13" x2="1084.12" y2="555.25"/>
	<line class="st9" x1="1084.12" y1="548.32" x2="1084.12" y2="538.07"/>
	<line class="st9" x1="1084.12" y1="530.97" x2="1084.12" y2="519.06"/>
	<line class="st9" x1="1084.4" y1="482.11" x2="1084.4" y2="421.69"/>
	<line class="st9" x1="1084.48" y1="411.2" x2="1084.48" y2="396.36"/>
	<line class="st9" x1="1084.4" y1="386.36" x2="1084.4" y2="307.09"/>
	<line class="st9" x1="1084.4" y1="297.83" x2="1084.4" y2="274.25"/>
	<line class="st9" x1="1084.06" y1="267.83" x2="1084.06" y2="256.46"/>
	<line class="st9" x1="1084.48" y1="245.76" x2="1084.48" y2="230.92"/>
	<line class="st9" x1="1084.06" y1="220.73" x2="1084.06" y2="206.17"/>
	<line class="st9" x1="1084.06" y1="173.33" x2="1084.06" y2="160.53"/>
	<line class="st9" x1="1084.06" y1="153.43" x2="1084.06" y2="108.51"/>
	<line class="st9" x1="1084.48" y1="98.09" x2="1084.48" y2="83.25"/>
	<polyline class="st9" points="1084.48,73.3 1084.48,19.94 854.96,19.94 854.96,324.12 	"/>
	<path class="st9" d="M836.24,336.49h195.55c3.34,0,6.04-2.7,6.04-6.04l0,0h4.89v-6.33H838.86l0.06,6.33h-2.68V336.49z"/>
	<path class="st9" d="M1084.48,324.12h93.46v6.33h-4.89l0,0c0,3.34-2.7,6.04-6.04,6.04h-82.53"/>
	<path class="st9" d="M1025.46,745.57v8.55h8.24V408.27v-1.34c0-2.63-2.13-4.77-4.77-4.77h-8.39v14.93h4.91v281.63"/>
	<polyline class="st9" points="1025.46,704.58 1029.35,704.58 1029.35,698.72 1025.46,698.72 	"/>
	<path class="st9" d="M1002.45,745.57v8.55h8.24V408.27v-1.06c0-2.79-2.26-5.05-5.05-5.05h-8.11v14.93h4.91v281.63"/>
	<polyline class="st9" points="1002.45,704.58 1006.34,704.58 1006.34,698.72 1002.45,698.72 	"/>
	<path class="st9" d="M979.45,745.57v8.55h8.24V408.27v-0.45c0-3.12-2.53-5.66-5.66-5.66h-7.5v14.93h4.91v281.63"/>
	<polyline class="st9" points="979.45,704.58 983.34,704.58 983.34,698.72 979.45,698.72 	"/>
	<path class="st9" d="M956.44,745.57v8.55h8.24V407.76c0-3.1-2.51-5.61-5.61-5.61h-7.55v14.93h4.91v281.63"/>
	<polyline class="st9" points="956.44,704.58 960.33,704.58 960.33,698.72 956.44,698.72 	"/>
	<path class="st9" d="M934.24,745.57v8.55h8.24V408.27v-0.54c0-3.08-2.49-5.57-5.57-5.57h-7.59v14.93h4.91v281.63"/>
	<polyline class="st9" points="934.24,704.58 938.13,704.58 938.13,698.72 934.24,698.72 	"/>
	<polygon class="st9" points="919.47,402.16 919.47,408.27 919.47,754.12 911.73,754.12 911.73,402.16 	"/>
	<path class="st9" d="M1168.68,745.57v8.55h8.24V408.27v-1.34c0-2.63-2.13-4.77-4.77-4.77h-8.39v14.93h4.91v281.63"/>
	<polyline class="st9" points="1168.68,704.58 1172.57,704.58 1172.57,698.72 1168.68,698.72 	"/>
	<path class="st9" d="M1145.68,745.57v8.55h8.24V408.27v-1.06c0-2.79-2.26-5.05-5.05-5.05h-8.11v14.93h4.91v281.63"/>
	<polyline class="st9" points="1145.68,704.58 1149.57,704.58 1149.57,698.72 1145.68,698.72 	"/>
	<path class="st9" d="M1122.67,745.57v8.55h8.24V408.27v-0.45c0-3.12-2.53-5.66-5.66-5.66h-7.5v14.93h4.91v281.63"/>
	<polyline class="st9" points="1122.67,704.58 1126.56,704.58 1126.56,698.72 1122.67,698.72 	"/>
	<path class="st9" d="M1099.67,745.57v8.55h8.24V407.76c0-3.1-2.51-5.61-5.61-5.61h-7.55v14.93h4.91v281.63"/>
	<polyline class="st9" points="1099.67,704.58 1103.56,704.58 1103.56,698.72 1099.67,698.72 	"/>
	<line class="st9" x1="1031.78" y1="336.49" x2="1031.78" y2="402.16"/>
	<polyline class="st9" points="878.51,336.49 878.51,754.12 1304.94,754.12 1304.94,760.62 810.47,760.62 810.47,754.12 
		878.51,754.12 	"/>
	<path class="st9" d="M1327.82,993.61h14.82h1.03c2.09,0,3.79,1.7,3.79,3.79l0,0v6.89H798v-6.89l0,0c0-2.09,1.7-3.79,3.79-3.79h1.03
		h2.6"/>
	<path class="st9" d="M1308.18,982.93H1323h1.03c2.09,0,3.79,1.7,3.79,3.79l0,0v6.89h-522.4v-6.89l0,0c0-2.09,1.7-3.79,3.79-3.79
		h-0.08h3.71"/>
	<path class="st9" d="M1268.9,961.56h14.82h1.03c2.09,0,3.79,1.7,3.79,3.79l0,0v6.89H820.28v-6.89l0,0c0-2.09,1.7-3.79,3.79-3.79
		h1.03h2.6H1268.9v-6.89l0,0c0-2.09-1.7-3.79-3.79-3.79h-1.03H832.53h-1.03c-2.09,0-3.79,1.7-3.79,3.79l0,0v6.89"/>
	<path class="st9" d="M820.28,972.24h-2.6h-1.03c-2.09,0-3.79,1.7-3.79,3.79l0,0v6.89h495.34v-6.89l0,0c0-2.09-1.7-3.79-3.79-3.79
		h-1.03h-14.82"/>
	<polyline class="st9" points="1300,760.62 1300,802.03 815.16,802.03 815.16,760.62 	"/>
	<path class="st9" d="M815.16,802.03v4.19h479.8c1.48,0,2.68-0.94,2.68-2.1l0,0v-2.1"/>
	<line class="st9" x1="1084.06" y1="25.81" x2="854.96" y2="25.81"/>
	<line class="st9" x1="1173.05" y1="330.45" x2="1084.48" y2="330.45"/>
	<line class="st9" x1="1037.82" y1="330.45" x2="836.24" y2="330.45"/>
	<polyline class="st9" points="1177.94,324.12 1266.98,324.12 1266.98,330.31 1177.94,330.31 	"/>
	<path class="st9" d="M1259.87,330.45L1259.87,330.45c0,3.34-2.7,6.04-6.04,6.04h-90.06v65.67"/>
	<line class="st9" x1="1253.83" y1="336.49" x2="1253.83" y2="754.12"/>
	<polyline class="st9" points="1176.93,806.22 1176.93,831.27 911.73,831.27 911.73,806.22 	"/>
	<line class="st9" x1="1163.77" y1="831.27" x2="1163.77" y2="950.88"/>
	<line class="st9" x1="1182.78" y1="806.22" x2="1182.78" y2="950.88"/>
	<line class="st9" x1="1223.39" y1="950.88" x2="1223.39" y2="806.22"/>
	<line class="st9" x1="1253.83" y1="806.22" x2="1253.83" y2="950.88"/>
	<line class="st9" x1="911.73" y1="831.27" x2="911.73" y2="950.88"/>
	<line class="st9" x1="878.54" y1="806.22" x2="878.54" y2="950.88"/>
	<line class="st9" x1="833.31" y1="806.22" x2="833.31" y2="950.88"/>
	<polyline class="st9" points="836.24,336.49 833.31,336.49 833.31,754.12 	"/>
	<path class="st9" d="M1084.29,365.01c-3.13,2.39-6.89,3.79-10.95,3.79c-10.82,0-19.58-9.93-19.58-22.17s8.77-22.17,19.58-22.17
		c3.9,0,7.54,1.29,10.59,3.52"/>
	<path class="st9" d="M1084.48,358.88c-2.82,3.29-6.77,5.34-11.15,5.34c-8.58,0-15.53-7.88-15.53-17.59s6.95-17.59,15.53-17.59
		c4.29,0,8.17,1.97,10.98,5.15"/>
	<line class="st9" x1="1073.34" y1="324.45" x2="1073.34" y2="329.04"/>
	<line class="st9" x1="1073.34" y1="364.22" x2="1073.34" y2="368.8"/>
	<line class="st9" x1="1053.76" y1="346.63" x2="1057.8" y2="346.63"/>
	<line class="st9" x1="1056.19" y1="357.33" x2="1059.73" y2="355.12"/>
	<line class="st9" x1="1062.75" y1="365.28" x2="1064.94" y2="361.42"/>
	<line class="st9" x1="1081.74" y1="331.83" x2="1083.92" y2="327.97"/>
	<line class="st9" x1="1056.22" y1="335.86" x2="1059.76" y2="338.09"/>
	<line class="st9" x1="1063.78" y1="327.27" x2="1065.75" y2="331.27"/>
	<line class="st9" x1="1080.92" y1="361.98" x2="1082.9" y2="365.98"/>
	<polyline class="st9" points="1069.92,333.99 1073.34,346.63 1065.75,346.63 	"/>
	<line class="st9" x1="955.04" y1="99.81" x2="955.04" y2="110.82"/>
	<line class="st9" x1="955.04" y1="199.74" x2="955.04" y2="210.75"/>
	<line class="st9" x1="927.73" y1="107" x2="933.15" y2="116.58"/>
	<line class="st9" x1="976.92" y1="193.98" x2="982.34" y2="203.56"/>
	<line class="st9" x1="908.21" y1="125.55" x2="917.5" y2="131.45"/>
	<line class="st9" x1="992.57" y1="179.11" x2="1001.86" y2="185.01"/>
	<line class="st9" x1="982.34" y1="107" x2="976.92" y2="116.58"/>
	<line class="st9" x1="933.15" y1="193.98" x2="927.73" y2="203.56"/>
	<line class="st9" x1="1001.86" y1="125.55" x2="992.57" y2="131.45"/>
	<line class="st9" x1="917.5" y1="179.11" x2="908.21" y2="185.01"/>
	<line class="st9" x1="899.57" y1="155.48" x2="910.58" y2="155.44"/>
	<line class="st9" x1="999.49" y1="155.12" x2="1010.5" y2="155.08"/>
	<line class="st9" x1="899.57" y1="155.48" x2="910.58" y2="155.44"/>
	<line class="st9" x1="999.49" y1="155.12" x2="1010.5" y2="155.08"/>
	<line class="st9" x1="1085.2" y1="831.27" x2="1085.2" y2="950.88"/>
	<line class="st9" x1="1074.47" y1="950.88" x2="1074.47" y2="831.27"/>
	<line class="st9" x1="1067.18" y1="831.27" x2="1067.18" y2="950.88"/>
	<polyline class="st6" points="1024.99,950.88 1024.99,838.11 1061.28,838.11 1061.28,950.88 	"/>
	<polyline class="st6" points="989.34,950.88 989.34,838.11 1025.62,838.11 	"/>
	<line class="st9" x1="989.34" y1="831.27" x2="989.34" y2="950.88"/>
	<line class="st9" x1="978.6" y1="950.88" x2="978.6" y2="831.27"/>
	<line class="st9" x1="971.32" y1="831.27" x2="971.32" y2="950.88"/>
	<polyline class="st6" points="926.46,950.88 926.46,838.11 962.74,838.11 962.74,950.88 	"/>
	<path class="st6" d="M927.08,838.11"/>
	<path class="st6" d="M890.8,950.88"/>
	<path class="st9" d="M880.06,831.27"/>
	<path class="st9" d="M880.06,950.88"/>
	<line class="st6" x1="927.08" y1="838.11" x2="911.73" y2="838.11"/>
	<path class="st9" d="M1083.92,230.96h-5.03c-1.3-2.17-3.92-4.17-6.57-4.96"/>
	<path class="st9" d="M1071.9,251.22c2.66-0.78,5.69-3.28,6.99-5.46h5.03"/>
	<path class="st9" d="M1083.92,396.4h-5.03c-1.3-2.17-3.92-4.17-6.57-4.96"/>
	<path class="st9" d="M1071.9,416.65c2.66-0.78,5.69-3.28,6.99-5.46h5.03"/>
	<path class="st9" d="M1083.92,83.31h-5.03c-1.3-2.17-3.92-4.17-6.57-4.96"/>
	<path class="st9" d="M1071.9,103.57c2.66-0.78,5.69-3.28,6.99-5.46h5.03"/>
	<polyline class="st9" points="1080.72,482.11 1077.15,482.11 1077.15,501.74 	"/>
	<path class="st9" d="M1070.04,640.83c2.93,0.77,5.14,4.07,5.14,7.18v3.6"/>
	<rect x="1188.97" y="853.17" class="st9" width="34.42" height="67.08"/>
	<rect x="1192.98" y="857.1" class="st9" width="22.85" height="59.23"/>
	<path class="st9" d="M1029.7,754.12v-347.2c0-2.63-2.13-4.77-4.77-4.77"/>
	<path class="st9" d="M1006.69,754.12V407.2c0-2.79-2.26-5.05-5.05-5.05"/>
	<path class="st9" d="M983.69,754.12V407.81c0-3.12-2.53-5.66-5.66-5.66"/>
	<path class="st9" d="M960.68,407.76c0-3.1-2.51-5.61-5.61-5.61"/>
	<line class="st9" x1="960.68" y1="754.12" x2="960.68" y2="407.76"/>
	<path class="st9" d="M938.48,754.12V407.73c0-3.08-2.49-5.57-5.57-5.57"/>
	<path class="st9" d="M1172.69,754.12V407.2c0-2.79-2.26-5.05-5.05-5.05"/>
	<path class="st9" d="M1149.69,754.12V407.81c0-3.12-2.53-5.66-5.66-5.66"/>
	<path class="st9" d="M1104.48,754.12V407.73c0-3.08-2.49-5.57-5.57-5.57"/>
	<path class="st9" d="M1126.48,754.12V407.73c0-3.08-2.49-5.57-5.57-5.57"/>
	<rect x="1127.18" y="934.77" class="st6" width="24.41" height="11.04"/>
	<rect x="1127.18" y="841.61" class="st6" width="24.41" height="86.8"/>
	<rect x="1091.18" y="934.77" class="st6" width="24.41" height="11.04"/>
	<rect x="1091.18" y="841.61" class="st6" width="24.41" height="86.8"/>
	<rect x="1031.18" y="934.77" class="st6" width="24.41" height="11.04"/>
	<rect x="1031.18" y="841.61" class="st6" width="24.41" height="86.8"/>
	<rect x="994.18" y="934.77" class="st6" width="24.41" height="11.04"/>
	<rect x="994.18" y="841.61" class="st6" width="24.41" height="86.8"/>
	<rect x="934.18" y="934.77" class="st6" width="24.41" height="11.04"/>
	<rect x="934.18" y="841.61" class="st6" width="24.41" height="86.8"/>
	<polyline class="st6" points="911.73,934.77 920.59,934.77 920.59,945.81 911.73,945.81 	"/>
	<polyline class="st6" points="911.73,928.41 920.59,928.41 920.59,841.61 911.73,841.61 	"/>
	<line class="st9" x1="1219.93" y1="853.17" x2="1219.93" y2="920.25"/>
</g>
</svg>
