<?xml version="1.0" encoding="utf-8"?>
<!-- Generator: Adobe Illustrator 25.3.1, SVG Export Plug-In . SVG Version: 6.00 Build 0)  -->
<svg version="1.1" id="Layer_1" xmlns="http://www.w3.org/2000/svg" xmlns:xlink="http://www.w3.org/1999/xlink" x="0px" y="0px"
	 viewBox="0 0 1079.77 1718.39" style="enable-background:new 0 0 1079.77 1718.39;" xml:space="preserve">
<style type="text/css">
	.st0{fill:#3C83C5;}
	.st1{clip-path:url(#SVGID_2_);fill:#FFFFFF;}
	.st2{fill:#0D0D0D;}
	.st3{fill:none;stroke:#0D0D0D;stroke-width:19.7715;stroke-miterlimit:10;}
	.st4{fill:none;stroke:#F5F6F7;stroke-width:19.7718;stroke-miterlimit:10;}
	.st5{fill:none;stroke:#0D0E0E;stroke-width:24.4522;stroke-miterlimit:10;}
	.st6{fill:none;stroke:#0D0D0D;stroke-width:24.4522;stroke-linecap:round;stroke-miterlimit:10;}
	.st7{fill:#C53A28;}
	.st8{fill:none;stroke:#0D0E0E;stroke-width:19.7718;stroke-linecap:round;stroke-linejoin:round;stroke-miterlimit:10;}
	.st9{clip-path:url(#SVGID_4_);fill:#3C83C5;}
	.st10{clip-path:url(#SVGID_4_);fill:#0D0D0D;}
	.st11{clip-path:url(#SVGID_4_);fill:none;stroke:#0D0D0D;stroke-width:19.7715;stroke-miterlimit:10;}
	.st12{clip-path:url(#SVGID_4_);fill:none;stroke:#F5F6F7;stroke-width:19.7715;stroke-miterlimit:10;}
	.st13{clip-path:url(#SVGID_4_);fill:#FFFFFF;stroke:#0D0D0D;stroke-width:19.7715;stroke-miterlimit:10;}
	.st14{clip-path:url(#SVGID_4_);fill:#C53A28;}
	.st15{fill:none;stroke:#0D0D0D;stroke-width:28.7534;stroke-miterlimit:10;}
	.st16{fill:none;stroke:#F5F6F7;stroke-width:27.8878;stroke-miterlimit:10;}
	.st17{fill:none;stroke:#F5F6F7;stroke-width:28.9181;stroke-miterlimit:10;}
</style>
<g>
	<polygon class="st2" points="0,825.37 48.71,1718.39 1031.06,1692.44 1079.77,703.59 0,744.18 	"/>
	<path class="st15" d="M74.25,213.41c73.47-66.42,210.9-38.01,283.56,29.29c28.79,26.66,46.28,63.12,61.52,99.27
		c65.23,154.72,101.4,321.64,106.07,489.49c-4.22-150.03-8.43-300.05-12.65-450.08c-2.94-104.51-3.05-218.25,60.68-301.14
		c39.06-50.81,111.26-84.21,168.28-54.96c50.41,25.86,69.28,89.6,66.93,146.21c-5.41,130.42-89.9,237.31-152.64,345.67
		c-47.53,82.09-82.9,244.23-202,220.97c-98.54-19.24-204.49-139.83-259.7-216.49C178.75,500.06-18.94,297.66,74.25,213.41z"/>
	<line class="st16" x1="507.74" y1="735.29" x2="539.89" y2="1696.76"/>
	<line class="st17" x1="1055.02" y1="1185.65" x2="22.44" y2="1245.61"/>
</g>
</svg>
