<svg enable-background="new 0 0 1596.88 742.66" viewBox="0 0 1596.88 742.66" xmlns="http://www.w3.org/2000/svg"><path d="m1595.87 136.42c-15.64-59.24-76.35-94.59-135.59-78.95-47.4 12.51-75.67 61.08-63.16 108.47 10.01 37.92 48.86 60.54 86.78 50.53 30.33-8.01 48.43-39.09 40.42-69.42-6.41-24.27-31.27-38.75-55.54-32.34-19.41 5.12-31 25.02-25.87 44.43 4.1 15.53 20.01 24.8 35.54 20.7 12.42-3.28 19.84-16.01 16.56-28.44-2.62-9.94-12.81-15.87-22.75-13.25-7.95 2.1-12.7 10.25-10.6 18.2" fill="none" stroke="#0b0b0b" stroke-miterlimit="10" stroke-width="1.169"/><path d="m1349.18 135.6c-1.41 6.65 2.84 13.18 9.49 14.59 8.31 1.76 16.48-3.55 18.24-11.87 2.2-10.39-4.44-20.6-14.83-22.8-12.99-2.75-25.75 5.55-28.5 18.54-3.44 16.24 6.94 32.19 23.18 35.62 0 0 47.17 11.58 85.29-24.86" fill="none" stroke="#0b0b0b" stroke-miterlimit="10" stroke-width="1.169"/><path d="m1576.06 141.49c-5.43.62-9.33 5.52-8.71 10.95.77 6.79 6.9 11.66 13.69 10.89 8.48-.97 14.57-8.63 13.61-17.11-1.21-10.6-10.78-18.22-21.38-17.01 0 0-31.12 2.54-46.96 32.52" fill="none" stroke="#0b0b0b" stroke-miterlimit="10" stroke-width="1.169"/><path d="m1299.17 232.92v-74.27c-4.89-82.22 57.79-152.83 140-157.73 62.78-3.74 120.16 24.05 156.69 69.67l.42 663.78h-1568.62" fill="none" stroke="#0b0b0b" stroke-miterlimit="10" stroke-width="1.169"/><path d="m1337.71 214.38h-75.87" fill="none" stroke="#0b0b0b" stroke-miterlimit="10" stroke-width="1.169"/><path d="m1319.18 154.15h-39.57" fill="none" stroke="#0b0b0b" stroke-miterlimit="10" stroke-width="1.169"/><circle cx="1299.4" cy="290.34" fill="#fff" r="57.48" stroke="#0b0b0b" stroke-miterlimit="10" stroke-width="1.169"/><path d="m829.1 429.26s-2.34.1-5.34.13c-4.79.06-11.25-.04-12.61-.92-2.21-1.44-.84-17.29-.84-17.29s-7.7-3.39-6.56-5.85c4.06-8.74 11.89-8.74 11.89-8.74" fill="none" stroke="#0b0b0b" stroke-miterlimit="10" stroke-width="1.169"/><path d="m816.63 406.77s3.61 4.53 6.42-1.25" fill="none" stroke="#0b0b0b" stroke-miterlimit="10" stroke-width="1.169"/><path d="m824.13 442.28-1.04-12.73" fill="none" stroke="#0b0b0b" stroke-miterlimit="10" stroke-width="1.169"/><path d="m834.86 417.88 1.78 25.01" fill="none" stroke="#0b0b0b" stroke-miterlimit="10" stroke-width="1.169"/><path d="m818 461.23 3.8-18.34 23.76-8.73.66 1.75z" style="fill:#fff;stroke:#0b0b0b;stroke-width:1.2251;stroke-linecap:round;stroke-linejoin:round;stroke-miterlimit:10"/><path d="m1097.6 702.85-8.86-13.13" fill="#0b0b0b" stroke="#0b0b0b" stroke-miterlimit="10" stroke-width="1.169"/><path d="m1101.11 699.98-5.02-14.88" fill="#0b0b0b" stroke="#0b0b0b" stroke-miterlimit="10" stroke-width="1.169"/><path d="m1115.38 718.16c-9.71 6.11-32.5 13.97-41.56 17.15-6.77 2.38-3.28-5.67 30.25-18.27l-9.92-13.64 7.97-7.28z" fill="#c4382c" stroke="#c4382c" stroke-miterlimit="10" stroke-width=".2922"/><path d="m1053.98 444.52s-2.06.08-4.71.12c-4.22.05-9.93-.04-11.12-.82-1.95-1.27-.74-15.25-.74-15.25s-8.18-5.06-5.79-5.16c6.07-.25 10.49-7.71 10.49-7.71" fill="none" stroke="#0b0b0b" stroke-miterlimit="10" stroke-width="1.169"/><path d="m1042.82 421.86s3.61 4.53 6.42-1.25" fill="none" stroke="#0b0b0b" stroke-miterlimit="10" stroke-width="1.169"/><path d="m1051.36 461.58-2.09-16.94" fill="none" stroke="#0b0b0b" stroke-miterlimit="10" stroke-width="1.169"/><path d="m1059.75 441.31 2.02 19.75" fill="none" stroke="#0b0b0b" stroke-miterlimit="10" stroke-width="1.169"/><path d="m1058.5 498.35c25.31 22.38 41.09 92.45 41.09 92.45h20.18s0 0-10.73-34.39c-23.51-75.34-42.88-83.33-42.88-83.33l-2.97-.39c-17.32-.5-17.51 16.27-17.51 16.27" fill="#fff"/><path d="m1073.04 517.52-.83 30.25-3.17 11.29-19.73 2.48s-11.39-27.23-19.07-40.85 0-35.87 0-35.87 17.83-17.25 17.58-22.7-.43-4.46 6.59-4.95c7.02-.5 10.66-2.48 10.57 0s3.13 17.1 4.05 17.91" fill="#fff"/><path d="m1051.46 547.77s-18.85 5.15-27 0" fill="none" stroke="#0b0b0b" stroke-miterlimit="10" stroke-width="1.169"/><path d="m1048.6 628.95-38.71 58.71-21.66-10.66 13.85-57.9 3.33-11.99s8.42-30.32 15.42-47.15c2.08-5 3.18-11.13 3.63-17.48 1.07-15.03-1.51-31.26-3.36-36.48-2.63-7.43 10.67-23.06 10.67-23.06l13.07 7.07s-2.57 32.92 3.5 51.29l3.12 6.48s0 0 4.95 8.71 15.8-8.71 15.8-8.71l10.56 22.69c7.54 16.34 11.95 49.66 11.95 49.66l6.73 64.43-23.5 5.49-26.02-53.55-5.03-11.38s-5.1-10.72-9.19-24.63c-2.74-9.33-5.03-20.09-5.03-30.02" fill="#4186c3" stroke="#4186c3" stroke-miterlimit="10" stroke-width="1.169"/><path d="m1026.89 490 9.15 4.1v37.13l-11.58-3.97" fill="none" stroke="#0b0b0b" stroke-miterlimit="10" stroke-width="1.169"/><path d="m988.23 669.37-2.62 7.67 27.98 14.6 3.96-6.57z" fill="#4186c3" stroke="#020202" stroke-miterlimit="10" stroke-width="1.169"/><path d="m1073.99 689.56 3.28 7.41 30.45-8.27-1.55-7.51z" fill="#4186c3" stroke="#020202" stroke-miterlimit="10" stroke-width="1.169"/><path d="m1041.66 488.27s-.19-17.72 21.26-17.19l3.68.42v3.96l-3.21-.42c-18.71-.53-18.54 17.19-18.54 17.19z" style="fill:#fff;stroke:#0b0b0b;stroke-width:1.169;stroke-linecap:round;stroke-linejoin:round;stroke-miterlimit:10"/><circle cx="1043.28" cy="490.09" fill="#fff" r="2.44" stroke="#0b0b0b" stroke-miterlimit="10" stroke-width="1.169"/><path d="m1034.63 600.38-4.29-.99c-3.3-1.32-3.45-28.93-3.45-28.93h5.79s1.83 27.55 6.08 36.51" style="fill:none;stroke:#0b0b0b;stroke-width:1.169;stroke-linecap:round;stroke-linejoin:round;stroke-miterlimit:10"/><path d="m1051.7 612.24 32.68-6.6s3.3 9.8 2.97 11.83-32.68 6.65-32.68 6.65-2.31-7.59-2.97-11.88z" fill="none" stroke="#0b0b0b" stroke-miterlimit="10" stroke-width="1.169"/><path d="m1054.67 624.12s5.29 24.09 9.74 24.09 22.96-2.52 27.23-3.96c3.72-1.26-4.29-26.79-4.29-26.79" fill="none" stroke="#0b0b0b" stroke-miterlimit="10" stroke-width="1.169"/><path d="m1105.88 417.88c8.25 1.95 9.08-13.72 4.95-16.96-8.07-6.32-1.8-21.74-21.7-17.76-3.39-6.57-8.66-10.86-16.09-9.21s-7.65 9.21-7.65 9.21c-3.86-10.56-12.32-6.08-19.72.52-3.02 2.69-2.3 7.24-3.09 7.92-1.01.86-3.34 1.16-4.2 1.96-9.58 8.93.49 15.21.49 15.21s-.99 10.4 7.34 8.08c4.64-1.29 19.98-8.24 16.19 4.87 0 0 6.83 2.72 5.56 6.51-1.27 3.8-5.56 1.94-5.56 1.94s-4.79 5.6-3.96 10.94 5.18 6.93 9.52 7.26c0 0 7.22 12.17 17.45 2.87 0 0 7.26 2.92 10.89-5.01 7.92 4.94 15.76-1.83 11.47-9.74" fill="#0b0b0b"/><circle cx="1063.21" cy="432.66" fill="none" r="5.6" stroke="#c4382c" stroke-miterlimit="10" stroke-width="1.169"/><path d="m988.64 696.23 6.52-14.44" fill="#0b0b0b" stroke="#0b0b0b" stroke-miterlimit="10" stroke-width="1.169"/><path d="m992.92 697.71 10.04-12.08" fill="#0b0b0b" stroke="#0b0b0b" stroke-miterlimit="10" stroke-width="1.169"/><path d="m987.77 715.92c-10.3-5.07-28.93-20.36-36.39-26.41-5.57-4.52 3.11-5.77 31.41 16.19l6.42-15.6 10.37 2.97z" fill="#c4382c" stroke="#c4382c" stroke-miterlimit="10" stroke-width=".2922"/><path d="m1227.94 568.47 1.59-6.53-305.12-74.44-1.59 6.53 23.89 5.83-12.51 51.26-24.53-5.98-1.59 6.53 305.12 74.44 1.59-6.53-26.54-6.47 12.51-51.26zm-203.98-49.77 28.83 7.03-12.51 51.27-28.83-7.03zm-19.04 49.67-28.83-7.03 12.51-51.26 28.83 7.03zm54.4-41.04 28.83 7.03-12.51 51.26-28.83-7.03zm35.36 8.63 28.83 7.03-12.51 51.26-28.83-7.03zm35.36 8.63 28.83 7.03-12.51 51.26-28.83-7.03zm-176.8-43.14 28.83 7.03-12.51 51.26-28.83-7.03zm228.49 110.06-28.83-7.03 12.51-51.26 28.83 7.03z" fill="#e0dbd7" stroke="#0b0b0b" stroke-miterlimit="10" stroke-width="1.169"/><path d="m1103.69 590.81s-3.49 6.38 0 8.69c5.84 3.87 16.65 7.06 16.1.36-.48-5.76-2.4-10.32-2.4-10.32" fill="#e0dbd7" stroke="#0b0b0b" stroke-miterlimit="10" stroke-width="1.169"/><path d="m1058.5 498.35c25.31 22.38 41.09 92.45 41.09 92.45h20.18s0 0-10.73-34.39c-11.75-37.67-22.47-58.5-30.26-69.92" fill="#fff"/><path d="m1239.1 515.35s-17.95 32.39-29.29 30.69-21.99-5.73-21.99-5.73l-12.12 22.87s36.61 15.72 43.07 10.87c6.47-4.85 17.79-15.86 17.79-15.86" fill="#4186c3"/><path d="m1246.83 479.86s-4.53.25-6.3-1.26c-1.76-1.51 1.26-12.6 1.26-12.6s-7.05-1.51-4.79-2.27c2.27-.76 11.13-12.5 11.13-12.5" fill="none" stroke="#0b0b0b" stroke-miterlimit="10" stroke-width="1.169"/><path d="m1248.59 455.68s0 5.79 5.79 3.02" fill="none" stroke="#0b0b0b" stroke-miterlimit="10" stroke-width="1.169"/><path d="m1217.53 641.46-20.55 54.6 37.28 18.36 26.74-58.48" fill="#fff" stroke="#0b0b0b" stroke-miterlimit="10" stroke-width="1.169"/><path d="m1295.98 659.35 29.16 49.09 34.14-30.5-31.65-48.47" fill="#fff" stroke="#0b0b0b" stroke-miterlimit="10" stroke-width="1.169"/><path d="m1207.24 634.81s36.71-130.88 35.43-138.25-7.26-16.43 5.98-17c13.23-.57 26.89-6.23 26.89 0s40.12 52.69 46.1 86.69c5.98 33.99 11.52 52.69 27.32 55.53-29.45 17.56-41.4 45.89-75.12 41.36-33.74-4.53-66.6-28.33-66.6-28.33z" fill="#4186c3"/><path d="m1242.66 496.56s26.48 1.19 35.43-11.49 43.52 50.92 84.93 33.85c-5.55 32.87-17.93 43.96-17.93 43.96s-34.15 2.99-45.67-25.61-17.07-46.95-25.61-41.83-22.04 30.42-34.71 19.91 3.56-18.79 3.56-18.79z" fill="#c4382c"/><g stroke-miterlimit="10"><path d="m1357.9 527.46s6.4 3.84 14.94 0" fill="none" stroke="#0b0b0b" stroke-width="1.169"/><path d="m1357.9 533.01s8.96 5.55 11.95 0" fill="none" stroke="#0b0b0b" stroke-width="1.169"/><path d="m1355.34 537.7s2.99 2.99 10.03 2.56" fill="none" stroke="#0b0b0b" stroke-width="1.169"/><path d="m1353.2 543.25s5.98 5.98 12.16 5.55" fill="none" stroke="#0b0b0b" stroke-width="1.169"/><path d="m1351.07 548.82s1.07 5.95 8.22 5.53" fill="none" stroke="#0b0b0b" stroke-width="1.169"/><path d="m1348.93 558.18s4.27 6.16 8.96 4.79" fill="none" stroke="#0b0b0b" stroke-width="1.169"/><path d="m1245.47 495.63s-3.84-16.8-1.6-11.04" fill="none" stroke="#f6f7f8" stroke-width="1.1338"/><path d="m1249.15 494.74s-3.84-16.8-1.6-11.04" fill="none" stroke="#f6f7f8" stroke-width="1.1338"/><path d="m1252.67 494.74s-3.84-16.8-1.6-11.04" fill="none" stroke="#f6f7f8" stroke-width="1.1338"/><path d="m1256.9 493.92s-3.84-16.8-1.6-11.04" fill="none" stroke="#f6f7f8" stroke-width="1.1338"/><path d="m1260.97 492.95s-3.84-16.8-1.6-11.04" fill="none" stroke="#f6f7f8" stroke-width="1.1338"/><path d="m1265.63 492.12s-3.84-16.8-1.6-11.04" fill="none" stroke="#f6f7f8" stroke-width="1.1338"/><path d="m1270.94 490.93s-3.84-16.8-1.6-11.04" fill="none" stroke="#f6f7f8" stroke-width="1.1338"/><path d="m1258.67 587.11 2.34-57.94s2.77-21.13 21.66-11.84c18.89 9.28 5.12 75.23 5.12 75.23z" fill="none" stroke="#0b0b0b" stroke-width="1.1338"/><path d="m1258.67 587.11-9.52-1.28-1.15 8 47.98 10.25 2.66-11.53z" fill="#4186c3" stroke="#0b0b0b" stroke-width=".8767"/><path d="m1210.82 720.05c-1.62 5.44-5.73 15.47-8.19 14.8-7.44-2.03-7.44-2.03-3.56-7.82.82-1.23-5.3 2.97-5.3 2.97-10.3-5.07-35.21-27.32-27.53-21.56s40.3 9.46 40.3 9.46z" fill="#0b0b0b" stroke="#0b0b0b" stroke-width="1.1338"/><path d="m1206.54 718.58 6.53-14.45" fill="#0b0b0b" stroke="#0b0b0b" stroke-width="1.169"/><path d="m1210.82 720.05 10.04-12.08" fill="#0b0b0b" stroke="#0b0b0b" stroke-width="1.169"/><path d="m1353.28 703.96c4.11 3.91 11.19 12.12 9.48 14.01-5.18 5.71-5.18 5.71-8.59-.38-.72-1.29.24 6.07.24 6.07-5.11 3.83-17.04 9.29-25.11 12.64-6.42 2.67-10.41 4-6.59 2.13 8.62-4.24 26.7-31.63 26.7-31.63z" fill="#0b0b0b" stroke="#0b0b0b" stroke-width="1.1338"/><path d="m1350.02 707.1-9.91-12.36" fill="#0b0b0b" stroke="#0b0b0b" stroke-width="1.169"/><path d="m1353.28 703.96-6.22-14.43" fill="#0b0b0b" stroke="#0b0b0b" stroke-width="1.169"/><path d="m1247.99 444.87c1.69-.41 5.65 1.11 3.47 2.87-3.67 3.18-3.34-5.31-2.3-8.14 1.03-2.83 4-4.83 7.01-4.74.7.02 1.42.16 1.99.57.48.35.81.87 1.07 1.39 1.11 2.21 1.31 4.85.54 7.2-.53-.57-.39-1.53.1-2.13s1.25-.91 1.99-1.14c2-.64 4.26-.88 6.15.03s3.17 3.28 2.32 5.2c.51-1.72 2.05-2.99 3.73-3.62s3.52-.71 5.31-.72c.95-.01 1.94 0 2.82.38 2.62 1.11 3 4.61 2.98 7.46-.01.99-.08 2.12-.84 2.75s-2.32-.01-1.99-.95c2.24-.51 4.65.55 6.13 2.31s2.11 4.11 2.17 6.4c.1 3.78-2.13 8.31-6.28 7.71-.83-.12-1.61-.47-2.29-.96-1.46-1.06-2.36-2.55-3.02-4.16-.42-1.02.51-2.12 1.57-1.82 1.12.32 2.15 1.08 2.82 2.04 1.11 1.59 1.4 3.63 1.33 5.57-.11 3.1-1.07 6.16-2.74 8.76-1.24 1.93-3.12 3.73-5.41 3.78-1.91.04-3.68-1.21-4.71-2.82s-1.42-3.55-1.63-5.45c-3.24-.76-5.15-4.08-6.24-7.23-.68-1.97-1.03-4.53.62-5.8 1.34-1.03 3.6-.37 4.17 1.22 1.72 4.41-7.33.13-10.36-1.81-3.14-2.01-4.95-5.06-6.01-8.54-4.66 4.37-9.06-4.49-4.47-5.61z" fill="none" stroke="#0b0b0b" stroke-width="1.169"/></g><path d="m1136.69 508.86 1.98 36.3 39.94-1.05 1.98-40.21-43.9 1.65z" fill="#0b0b0b"/><path d="m1139.71 483.98c2.99-2.7 8.57-1.55 11.53 1.19 1.17 1.08 1.88 2.57 2.5 4.04 2.65 6.29 4.12 13.08 4.31 19.9-.17-6.1-.34-12.2-.51-18.3-.12-4.25-.12-8.87 2.47-12.24 1.59-2.07 4.52-3.42 6.84-2.23 2.05 1.05 2.82 3.64 2.72 5.94-.22 5.3-3.66 9.65-6.21 14.05-1.93 3.34-3.37 9.93-8.21 8.98-4.01-.78-8.31-5.68-10.56-8.8-.63-.88-8.67-9.11-4.88-12.53z" fill="none" stroke="#0b0b0b" stroke-miterlimit="10" stroke-width="1.169"/><path d="m1157.34 505.19 1.3 39.09" fill="none" stroke="#f6f7f8" stroke-miterlimit="10" stroke-width="1.1338"/><path d="m1179.59 523.5-41.98 2.44" fill="none" stroke="#f6f7f8" stroke-miterlimit="10" stroke-width="1.1757"/><path d="m1177.84 558.47s-21.17.87-33.29-7.58 25.8-7.31 29.41-6.49-3.6-8.22.73-9.44 11.45 9.04 11.45 9.04z" fill="#fff" stroke="#0b0b0b" stroke-miterlimit="10" stroke-width=".8767"/><path d="m823.28 538.33-58.87 159.23h53.08s42.37-138.27 38.8-154.32c-3.57-7.14-3.57-7.14-3.57-7.14z" fill="#fff"/><path d="m856.5 546.84 10.54 73.34 50.24 52.66-28.43 30.97-55.62-59.63" fill="#fff"/><path d="m844.97 578.42c-28.27-3.8-55.83-23.75-55.83-23.75s21.64-77.29 23.45-87.75c0 0 30.92-33.21 38.16-34.34 5.16-.81 29.29 36.11 34.3 64.61 0 0 4.64 61.56 0 75.39z" fill="#c4382c"/><path d="m767.23 679.12-6.92 20.2h64.2l4.15-20.2z" fill="#e0dbd7" stroke="#0b0b0b" stroke-miterlimit="10" stroke-width="1.169"/><path d="m877.01 696.96 10.11 13.22 40.34-33.55-14.76-12.19z" fill="#e0dbd7" stroke="#0b0b0b" stroke-miterlimit="10" stroke-width="1.169"/><path d="m798.23 521.86s39.01 20.83 45.38 21.11 43.42-4.71 43.42-4.71v14.68s-38.73 5.26-44.4 4.7c-5.66-.55-48.88-19.54-48.88-19.54z" fill="#fff"/><path d="m885.85 613.81 8.72 27.4-60.1 7.75-7.93-25.59z" fill="#e0dbd7" stroke="#0b0b0b" stroke-miterlimit="10" stroke-width="1.169"/><path d="m828.84 596.24-2.3 27.13 14.48-17.52 46.85-7.05-2.02 15.01-59.31 9.56" fill="#e0dbd7" stroke="#0b0b0b" stroke-miterlimit="10" stroke-width="1.169"/><path d="m888.76 592.26.51-3.77" style="fill:#fff;stroke:#0b0b0b;stroke-width:1.2251;stroke-linecap:round;stroke-linejoin:round;stroke-miterlimit:10"/><path d="m841.02 605.85-2.63 3.39-11.85 14.13 2.63-27.13z" fill="#e0dbd7" stroke="#0b0b0b" stroke-miterlimit="10" stroke-width="1.169"/><path d="m889.27 588.49-60.43 7.75v2.81l59.92-6.79" fill="#e0dbd7" stroke="#0b0b0b" stroke-miterlimit="10" stroke-width="1.169"/><path d="m849.57 583.45c2.76 16.04 9.86 15.76 11.79 15.55 0 0 6.97.82 5.47-4.5-.5-1.78-2.63-7.83-2.63-7.83" fill="#fff" stroke="#0b0b0b" stroke-miterlimit="10" stroke-width=".9801"/><path d="m903.14 605.85 4.4 16.97-12.97 18.39-8.72-27.4 3.42-25.32z" fill="#e0dbd7" stroke="#0b0b0b" stroke-miterlimit="10" stroke-width="1.169"/><path d="m833.78 511.28c10.71 27.66 11.96 71.33 11.96 71.33l19.61 4.33s0 0-2.57-30.1c-5.63-65.93-20.06-75.98-20.06-75.98l-2.36-.86" fill="#fff" stroke="#0b0b0b" stroke-miterlimit="10" stroke-width=".9801"/><path d="m833.48 516.87-7.31-48.07s-1.08-17.83 15.94-13.2c17.03 4.63 16.2 61.11 16.2 61.11z" fill="#c4382c" stroke="#020202" stroke-miterlimit="10" stroke-width=".9801"/><path d="m809.02 536.1 11.01-66.97s18.63-20.22 36.48-32.12" fill="none" stroke="#fff" stroke-miterlimit="10" stroke-width="6.6158"/><path d="m849.57 583.45c2.76 16.04 9.86 15.76 11.79 15.55 0 0 6.97.82 5.47-4.5-.5-1.78-2.63-7.83-2.63-7.83" fill="#e0dbd7" stroke="#0b0b0b" stroke-miterlimit="10" stroke-width="1.169"/><path d="m833.78 511.28c10.71 27.66 11.96 71.33 11.96 71.33l19.61 4.33s0 0-2.57-30.1c-5.63-65.93-20.06-75.98-20.06-75.98l-2.36-.86" style="fill:#fff;stroke:#0b0b0b;stroke-width:1.169;stroke-linecap:round;stroke-linejoin:round;stroke-miterlimit:10"/><path d="m833.48 516.87-7.31-48.07s-1.08-17.83 15.94-13.2c17.03 4.63 16.2 61.11 16.2 61.11z" fill="#c4382c" stroke="#020202" stroke-miterlimit="10" stroke-width=".9801"/><path d="m909.4 710.18-7.77-12.07" fill="#0b0b0b" stroke="#0b0b0b" stroke-miterlimit="10" stroke-width=".9801"/><path d="m916.97 702.45-7.24-11.25" fill="#0b0b0b" stroke="#0b0b0b" stroke-miterlimit="10" stroke-width=".9801"/><path d="m926.64 719.24c-7.68 5.79-26.17 13.96-33.51 17.26-5.49 2.46-6.81-4.36 20.31-17.25l-9.02-15.44 9.96-6.45z" fill="#0b0b0b" stroke="#0b0b0b" stroke-miterlimit="10" stroke-width=".9506"/><path d="m784.91 713.64 1.84-14.24" fill="#0b0b0b" stroke="#0b0b0b" stroke-miterlimit="10" stroke-width=".9801"/><path d="m795.68 712.6 1.71-13.28" fill="#0b0b0b" stroke="#0b0b0b" stroke-miterlimit="10" stroke-width=".9801"/><path d="m792.27 731.67c-9.61-.52-29.01-6.17-36.75-8.38-5.79-1.65-2.41-7.72 26.65-.11l3.05-17.62 11.78 1.48z" fill="#0b0b0b" stroke="#0b0b0b" stroke-miterlimit="10" stroke-width=".9506"/><path d="m817.38 394.75s-6.28-4.62 1.73-8.66c9.32-4.7 12.58.74 19.01 2.23 6.44 1.49 4.45-5.83 17.43 2.64 9.78 6.38 5.31 19.12-1.62 18.51s-5.04 21.96-11.7 18.76c-3.31-1.59-12.19-7.52-8.46-10.23 8.7-6.3 2.32-9.17 1.07-8.55-2.47 1.24-4.29-2.4.02-3.08 6.19-.97 12.35-12.3.5-7.3-17.73 7.49-17.98-4.32-17.98-4.32z" fill="#fff"/><path d="m867.19 390.22c-14.53-5.4 32.38-21.86 26.3-24.46s-51.31 10.26-61.32 13.24c0 0-2.02-4.44-4.94-1.27-2.91 3.17-7.15 7.1 8.45 12.24s31.21 10.96 31.21 10.96 14.08-5.59.3-10.71z" fill="#c4382c" stroke="#020202" stroke-miterlimit="10" stroke-width=".9801"/><circle cx="894.04" cy="367.48" fill="#fff" r="8.03"/><path d="m728.68 712.88-10.25-28.84" fill="#0b0b0b" stroke="#0b0b0b" stroke-miterlimit="10" stroke-width="1.169"/><path d="m732.19 710.65-6.55-30.01" fill="#0b0b0b" stroke="#0b0b0b" stroke-miterlimit="10" stroke-width="1.169"/><path d="m676.62 720.45 1.22-33.96" fill="#0b0b0b" stroke="#0b0b0b" stroke-miterlimit="10" stroke-width="1.169"/><path d="m680.73 719.83 6.11-30.1" fill="#0b0b0b" stroke="#0b0b0b" stroke-miterlimit="10" stroke-width="1.169"/><path d="m725.41 568.69c-6.82 9.43-24.59 39.6-24.59 39.6l-25.22-13.38 20.62-48.75-10.49-34.03" fill="#4186c3"/><path d="m729.88 558.6s18.7 73.28 59.8 101.02c15.2 10.26-59.48 19.02-74.53 25.33s-37.97 16.35-58.49 9.46c-20.52-6.88-25.31-7.74-25.31-7.74l25.65-130.19s8.21-68.82 16.76-74.56 11.97-4.59 11.97-4.59 21.44 1.53 28.28 15.68" fill="#4186c3"/><path d="m679.29 460.75c-3.88.05-11.25-2.57-12.35-3.28-1.79-1.16 1.46-11.47 1.46-11.47s-7 .58-6.02-1.38c1.61-3.23 8.74-16.09 8.74-16.09" fill="none" stroke="#0b0b0b" stroke-miterlimit="10" stroke-width="1.169"/><path d="m673.45 440.34s3.94 3.58 5.63-2.07" fill="none" stroke="#0b0b0b" stroke-miterlimit="10" stroke-width="1.169"/><path d="m681.21 476.3-1.92-15.55" fill="none" stroke="#0b0b0b" stroke-miterlimit="10" stroke-width="1.0731"/><path d="m688.91 457.69 1.85 18.13" fill="none" stroke="#0b0b0b" stroke-miterlimit="10" stroke-width="1.0731"/><path d="m673.76 481.92s21.62-4.23 22 .53-27.05 51.65-27.05 51.65 0 0 7.94-.63c8.73-.69-33.69 84.65-34.22 101.03-.55 16.79-7.91-65.54 31.33-152.58z" fill="#4186c3" stroke="#0c0c0c" stroke-miterlimit="10" stroke-width="1.169"/><path d="m691.77 454.08s-10.99 7.55-25.73-.52c-12.5-6.83-18.58 69.67-59.31 64.08 12.53 27.91 26.09 34.91 26.09 34.91s31.03-5.24 34.65-33.31 3.5-34.53 12.27-31.96c8.77 2.58 30.93 12.67 36.25-1.47 11.24-29.9-24.22-31.73-24.22-31.73z" fill="#fff"/><path d="m658.91 607.85v47.87l49.41-3.64v-46.66z" fill="#4186c3" stroke="#0c0c0c" stroke-miterlimit="10" stroke-width="1.169"/><path d="m613.93 524.53s-6.61 5.56-9.79 5.42" fill="none" stroke="#0b0b0b" stroke-miterlimit="10" stroke-width="1.169"/><path d="m614.98 528.3s-6.24 4.13-8.94 5.22" fill="none" stroke="#0b0b0b" stroke-miterlimit="10" stroke-width="1.169"/><path d="m618.43 532.69s-4.99 4.94-8.21 4.8" fill="none" stroke="#0b0b0b" stroke-miterlimit="10" stroke-width="1.169"/><path d="m622.44 538.02s-6.75 6.08-8.51 6" fill="none" stroke="#0b0b0b" stroke-miterlimit="10" stroke-width="1.169"/><path d="m626.45 543.5s-8.16 2.83-8.73 5.38" fill="none" stroke="#0b0b0b" stroke-miterlimit="10" stroke-width="1.0731"/><path d="m630.19 548.06s-6.43 4.88-5.72 5.97" fill="none" stroke="#0b0b0b" stroke-miterlimit="10" stroke-width="1.0731"/><path d="m610.29 521.12s-9.79 2-10.29-.45" fill="none" stroke="#0b0b0b" stroke-miterlimit="10" stroke-width="1.169"/><path d="m669.09 432.19 14.43 5.39 7.47-3.79s-2.38 5.73-2.09 7.6-13.9 55.49.92 67.77c14.82 12.27 40.05-2.73 40.05-2.73s-7.27 5-8.41-10.45-5-61.65-5.68-62.18-.68-.54-.68-.54-31.57-31.22-46.01-1.07z" fill="#0b0b0b" stroke="#0b0b0b" stroke-miterlimit="10" stroke-width="1.0408"/><path d="m690.22 417.19s9.28-3.07 20.9-3.21 11.15-7.46 18.74.87c3.85 4.22-3.84 8.14-5.72 13.78-1.88 5.63-7.27 17.64-10.42 17.58-3.16-.07-33.16-26.81-23.5-29.02z" fill="#4186c3"/><path d="m692.3 423.67s7.11-5.59 4.88-2.78" fill="none" stroke="#f6f7f8" stroke-miterlimit="10" stroke-width="1.169"/><path d="m690.02 420.86s8.54-5.57 5.79-2.75" fill="none" stroke="#f6f7f8" stroke-miterlimit="10" stroke-width="1.169"/><path d="m694.97 427.5s6.43-6.65 4.54-3.8" fill="none" stroke="#f6f7f8" stroke-miterlimit="10" stroke-width="1.169"/><path d="m697.34 429.84s6.59-6.34 4.6-3.09" fill="none" stroke="#f6f7f8" stroke-miterlimit="10" stroke-width="1.169"/><path d="m700.15 432.99s5.42-6.28 3.91-3.43" fill="none" stroke="#f6f7f8" stroke-miterlimit="10" stroke-width="1.169"/><path d="m702.82 435.92s6.43-6.65 4.54-3.8" fill="none" stroke="#f6f7f8" stroke-miterlimit="10" stroke-width="1.169"/><path d="m705.19 438.26s6.59-6.34 4.6-3.09" fill="none" stroke="#f6f7f8" stroke-miterlimit="10" stroke-width="1.169"/><path d="m708.86 441.23s5.16-6.49 3.77-3.59" fill="none" stroke="#f6f7f8" stroke-miterlimit="10" stroke-width="1.169"/><path d="m712.12 443.77s4.07-7.23 3.15-4.14" fill="none" stroke="#f6f7f8" stroke-miterlimit="10" stroke-width="1.169"/><path d="m600.79 546.49 3.75 33.33 75.76-.97 3.76-36.91-83.27 1.52z" fill="#0b0b0b"/><path d="m622.85 523.65c2.74-2.48 7.87-1.42 10.58 1.09 1.07 1 1.73 2.36 2.3 3.7 2.43 5.77 3.78 12 3.96 18.27-.16-5.6-.31-11.2-.47-16.8-.11-3.9-.11-8.15 2.26-11.24 1.46-1.9 4.15-3.14 6.28-2.05 1.88.97 2.59 3.34 2.5 5.46-.2 4.87-3.36 8.86-5.7 12.9-1.77 3.06-3.09 9.12-7.54 8.25-3.68-.72-7.63-5.22-9.69-8.08-.58-.8-7.96-8.36-4.48-11.5z" fill="none" stroke="#0b0b0b" stroke-miterlimit="10" stroke-width="1.169"/><path d="m639.48 543.11 1.2 35.89" fill="none" stroke="#f6f7f8" stroke-miterlimit="10" stroke-width="1.169"/><path d="m682.11 561.07-80.49 1.1" fill="none" stroke="#f6f7f8" stroke-miterlimit="10" stroke-width="1.169"/><path d="m637.86 592.69s-27.04-.3-38.17-8.05c-11.13-7.76 23.68-6.71 26.99-5.95 3.31.75-3.31-7.55.67-8.67s10.51 8.3 10.51 8.3z" fill="#fff"/><path d="m717.54 512.13s9.24 3.2 4.96 18.32-24.69 59.38-32.33 61.8c-1.99.63-5.41 1.46-9.4 2.34-11.36 2.52-46.52 10.83-46.52 10.83l2.58-29.42 37.08-17.64 14.76-32.41" fill="#4186c3" stroke="#0c0c0c" stroke-miterlimit="10" stroke-width="1.169"/><path d="m732.19 710.65c2.98 4.27 7.83 12.96 5.94 14.34-5.71 4.18-2.11 1.82-4.05-4.28-.41-1.29-9.77 8.41-9.77 8.41-9.53 4.5-34.49 9.13-25.95 6.9 8.53-2.22 29.83-23.53 29.83-23.53z" fill="#fff" stroke="#fff" stroke-miterlimit="10" stroke-width="1.169"/><path d="m680.73 719.83c1.01 5.11 1.94 15.02-.34 15.52-6.91 1.52-2.67.82-1.98-5.55.15-1.35-12.33 3.76-12.33 3.76-10.53.28-35.24-5.55-26.53-4.14s36.79-9.51 36.79-9.51z" fill="#fff" stroke="#fff" stroke-miterlimit="10" stroke-width="1.169"/><circle cx="1106.84" cy="427.34" fill="#0b0b0b" r="10.09"/><path d="m495.19 410.42s-14.05 19.78-21 21.36c-6.94 1.58 2.84 3.79 5.36 14.2s-11.67 89.28-11.67 96.22 9.46.32 9.46.32l30.99-98.82-1.27-26.9h-8.06l.4-6.37h-4.21" fill="#fff" stroke="#0b0b0b" stroke-miterlimit="10" stroke-width="1.169"/><path d="m588.49 699.82-10.81-15.42" fill="#0b0b0b" stroke="#0b0b0b" stroke-miterlimit="10" stroke-width="1.169"/><path d="m594.68 696.64-10.61-15.35" fill="#0b0b0b" stroke="#0b0b0b" stroke-miterlimit="10" stroke-width="1.169"/><path d="m619.89 731.46c-12.76 4.8-41.16 8.51-52.47 10.06-8.45 1.15-2.47-7.38 39.56-14.06l-20.29-28.18 13.22-5.81z" fill="#0b0b0b" stroke="#0b0b0b" stroke-miterlimit="10" stroke-width="1.3471"/><path d="m518.78 408.54s16.46-6.32 16.77 1.88c.32 8.2 0 18.31 11.83 26.93 5.36 3.91 15.14 9.47 6.62 35.12 0 0 7.75 14.16 3.18 23.55-2.31 4.76 3.08 10.8 2.11 17.04-.98 6.32-3.02 9.31-2.48 9.75 5.08 4.13 2.6 16.1.66 19.7-2.21 4.1-76.34 1.26-80.13 0-1.48-.49-4.28-3.72-.79-16.69.11-.41.69-1.53.73-1.96.07-.71-.53-2.31-.53-5.04 0-24.04 4.53-24.08 7.53-24.26 0 0-1.72-1.65-2-2.42-1.79-5.01-1.72-29.2 6.48-35.45.55-.42.18-4.51.36-5.17 1.11-4.21 2.94-1.31 4.83-3.33 2.52-5.36 7.67-1.58 11.14-10.41 3.49-8.84-5.14-24.17 13.69-29.24z" fill="#fff" stroke="#0b0b0b" stroke-miterlimit="10" stroke-width="1.169"/><path d="m489.14 456.69s20.6 7 31.38 3.38" fill="none" stroke="#0b0b0b" stroke-miterlimit="10" stroke-width="1.169"/><path d="m484.29 494.56s19.12 3.44 26.38 1.54" fill="none" stroke="#0b0b0b" stroke-miterlimit="10" stroke-width="1.169"/><path d="m507.07 416.79h-4.74c-.91 0-6.13-.09-6.37.79-.77 2.84 5.05 14.71 3.98 16.61-1.78 3.15-4.58 5.68-4.76 12.62" fill="none" stroke="#0b0b0b" stroke-miterlimit="10" stroke-width="1.169"/><path d="m502.73 524.48s-17.84 2.6-25.97-.83" fill="none" stroke="#0b0b0b" stroke-miterlimit="10" stroke-width="1.169"/><path d="m495.32 385.07s3.65 4.9 6.81-1.09" fill="none" stroke="#0b0b0b" stroke-miterlimit="10" stroke-width="1.169"/><path d="m499.01 416.79.4-6.37" fill="none" stroke="#0b0b0b" stroke-miterlimit="10" stroke-width="1.1143"/><path d="m522.76 407.23s-8.79-7.89 4.33-23.25c10.69-12.52-11.31-24.46-11.31-24.46s-27.19-18.16-30.23 14.66v1.87s.99 9.1-4 16.29c-1.44 2.07 8.09 3.65 8.09 3.65s-2.02 10.67-.01 12.08c1.23.86 7.25 1.15 11.7 1.25 2.79.06 4.97.04 4.97.04" fill="none" stroke="#0b0b0b" stroke-miterlimit="10" stroke-width="1.169"/><path d="m515.32 381.93s4.93.41 2.79 6.91c-2.56 7.8-5.59 2.09-5.59 2.09" fill="none" stroke="#0b0b0b" stroke-miterlimit="10" stroke-width="1.169"/><circle cx="514.54" cy="389.06" fill="#0b0b0b" r="1.05"/><path d="m489.6 395.01s23.16-13.3 23.75-4.07c.59 9.22 7.83 2.36 7.83 2.36s-2.72 23.34-29.14 17.54c-10.53-2.32-2.44-15.83-2.44-15.83z" fill="#0b0b0b"/><path d="m447.56 691.9 3.85-18.43" fill="#0b0b0b" stroke="#0b0b0b" stroke-miterlimit="10" stroke-width="1.169"/><path d="m454.11 694.25 3.94-18.25" fill="#0b0b0b" stroke="#0b0b0b" stroke-miterlimit="10" stroke-width="1.169"/><path d="m518.45 622.91-25.79 71.33-45.93-14.24 16.45-68.8 3.96-14.24s8.84-33.06 17.15-53.06l68.42.74 42.74 141.02-44.7 4.56-28.34-58.34-5.97-13.52s-6.06-12.73-10.92-29.27c-3.26-11.08-5.98-23.86-5.98-35.67" fill="#c4382c"/><path d="m445.97 736.45c-12.24-6.02-34.37-24.19-43.23-31.38-6.62-5.37 3.7-6.85 37.32 19.23l6.67-34.08 13.28 5.67z" fill="#0b0b0b" stroke="#0b0b0b" stroke-miterlimit="10" stroke-width="1.3471"/><path d="m431 628.83 14.31 25.56 127.24-71.73-16.84-33.89-126.63 76.63z" fill="#0b0b0b"/><path d="m494.85 552.66c-4.66-1.07-9.79 3.37-11.26 7.93-.58 1.8-.46 3.75-.25 5.64.9 8.06 3.32 15.95 7.08 23.13-3.36-6.42-6.72-12.85-10.09-19.27-2.34-4.47-5.02-9.27-9.66-11.26-2.85-1.22-6.68-.92-8.39 1.65-1.51 2.28-.81 5.41.63 7.74 3.31 5.37 9.39 7.88 14.59 10.97 3.94 2.34 9.26 8.34 13.73 4.55 3.7-3.14 5.32-10.72 5.84-15.25.14-1.28 3.7-14.48-2.22-15.83z" fill="none" stroke="#0b0b0b" stroke-miterlimit="10" stroke-width="1.169"/><path d="m490.01 588.79 18.33 30.31" fill="none" stroke="#f6f7f8" stroke-miterlimit="10" stroke-width="1.169"/><path d="m564.13 565.71-126.51 76.75" fill="none" stroke="#f6f7f8" stroke-miterlimit="10" stroke-width="1.169"/><path d="m505.25 567.38c-3.14 8.31-10.06 20.01 1.19 19.93 0 0 18.94.07 18.02-6.5-.31-2.19-6.23-10.57-6.23-10.57" fill="#e0dbd7" stroke="#0b0b0b" stroke-miterlimit="10" stroke-width="1.169"/><path d="m524.47 553.24s-2.1 19.87-6.94 18.61-12.42-5.05-12.42-5.05l4.15-15.33z" fill="#fff" stroke="#0b0b0b" stroke-miterlimit="10" stroke-width="1.169"/><path d="m550.36 498.28s4.38 1.37 6.83-2.25" fill="none" stroke="#0b0b0b" stroke-miterlimit="10" stroke-width="1.4897"/><path d="m556.82 522.82s-5.86 1.72-8.49 1.66" fill="none" stroke="#0b0b0b" stroke-miterlimit="10" stroke-width="1.169"/><path d="m526.42 449.76s-8.9 8.52-4.91 14.51c-7.26 1.26-6.94 22.08-3.99 26.81-9.04 0-14.19 23.34-10.93 28.39-7.03 4.42-6.85 22.08-6.53 27.13s20.82 6.31 29.97 9.15 13.88-20.19 12.3-26.18c14.83-8.83 7.49-29.97 7.81-33.23 6.24-12.41 0-23.24-.56-26.4 1.55-1.77 2.92-16.38 1.58-19.69-.75-1.83-1.81-3.52-3.15-4.97-3.38-3.65-13.81-.54-21.59 4.48z" fill="#fff" stroke="#0b0b0b" stroke-miterlimit="10" stroke-width="1.169"/><path d="m517.53 491.09s25.3 7.68 32.62 5.26" fill="none" stroke="#0b0b0b" stroke-miterlimit="10" stroke-width="1.169"/><path d="m549.59 469.95s-5.36-8.52-28.08-5.68" fill="none" stroke="#0b0b0b" stroke-miterlimit="10" stroke-width="1.169"/><path d="m542.34 529.58s-14.69-11.36-35.74-10.09" fill="none" stroke="#0b0b0b" stroke-miterlimit="10" stroke-width="1.169"/><path d="m125.68 657.42-1.86 34-37.4-.98-1.86-37.66 41.12 1.55z" fill="#0b0b0b"/><path d="m102.6 629.83c-3.74.49-6.31 5.17-6.16 8.94.06 1.49.68 2.9 1.35 4.24 2.87 5.71 6.81 10.89 11.55 15.17-4.24-3.83-8.48-7.66-12.72-11.49-2.95-2.67-6.25-5.48-10.22-5.69-2.44-.12-5.19 1.14-5.75 3.51-.5 2.1.88 4.22 2.58 5.55 3.91 3.07 9.1 3.26 13.78 4.13 3.55.65 9.12 3.64 11.39-.39 1.88-3.33 1.01-9.38.15-12.87-.23-.99-1.21-11.72-5.95-11.1z" fill="none" stroke="#0b0b0b" stroke-miterlimit="10" stroke-width="1.169"/><path d="m106.35 653.99-1.23 36.61" fill="none" stroke="#f6f7f8" stroke-miterlimit="10" stroke-width="1.169"/><path d="m85.51 671.14 39.31 2.28" fill="none" stroke="#f6f7f8" stroke-miterlimit="10" stroke-width="1.169"/><path d="m111.76 638.26s.01 17.14 6.83 16.26c7.14-.92 4.75 7.34 6.35 6.72 1.12-.43 4.47-6.64 9.68-6.23 3.73.29 7.41.5 8.72 4.01 2.21 5.92 4.95 17.42 3.45 36.17-3.74 1.93-7.46 4.27-10.86 6.74-.01.01-.02.01-.02.02-.29.21-.58.42-.86.64-.03.02-.06.04-.09.07-.27.2-.54.41-.81.61-.04.03-.08.06-.12.09-.26.2-.51.4-.77.59-.05.04-.1.08-.14.11-.25.19-.49.39-.73.58-.05.04-.1.08-.15.12-.24.19-.48.39-.71.58-.04.04-.09.07-.13.11-.24.2-.48.4-.71.6-.03.02-.05.05-.08.07-.99.84-1.92 1.68-2.79 2.51-.07.06-.14.13-.2.19-.15.14-.29.28-.44.43-.1.09-.19.19-.28.28-.13.13-.26.26-.38.38-.1.1-.21.21-.31.31-.12.12-.23.24-.34.36-.1.11-.21.22-.31.33-.11.11-.21.23-.31.34s-.2.22-.3.34c-.1.11-.19.22-.28.32-.1.11-.2.23-.3.34-.09.1-.17.2-.26.3-.1.12-.19.23-.28.35-.08.1-.16.19-.23.29-.09.12-.18.23-.27.35-.07.09-.14.18-.2.27-.09.12-.17.24-.26.36-.06.08-.12.16-.17.24-.09.13-.17.26-.26.39-.04.06-.09.13-.13.19-.12.19-.24.38-.34.56-.1.17-.19.33-.27.48-.02.03-.03.06-.05.09-.08.14-.14.28-.21.4-.01.03-.02.05-.04.07-.06.12-.11.23-.15.33 0 .01-.01.02-.01.03-.04.11-.08.2-.11.29-.01.02-.01.04-.02.07-.03.08-.05.16-.06.23 0 .02-.01.03-.01.05-.01.06-.02.11-.02.16v.04c0 .05.01.1.02.14 0 .01.01.03.01.04.01.04.03.07.05.09.01.01.02.01.02.02.02.02.04.03.07.05.01 0 .02.01.03.01.03.01.06.02.09.02.37.04 1.08-.29 1.94-.81.04-.02.08-.05.12-.07.39-.23.81-.5 1.24-.78.01-.01.03-.02.04-.03.11-.07.23-.15.35-.23.01 0 .01-.01.02-.01.29-.19.57-.38.86-.57.02-.01.03-.02.05-.03.1-.07.21-.14.31-.2.04-.03.08-.05.12-.08.09-.06.17-.11.26-.17.05-.03.09-.06.14-.09.08-.05.16-.1.24-.15.05-.03.1-.06.15-.09.07-.05.15-.09.22-.14l.15-.09c.07-.04.14-.09.21-.13.05-.03.1-.06.14-.09.07-.04.14-.08.21-.12.05-.03.09-.05.14-.08l.21-.12c.04-.02.07-.04.11-.06.1-.05.21-.11.3-.15 2.73-1.29 12.69-5.35 20.23-6.55-.1.69-.2 1.38-.33 2.06 0 .02-.01.04-.01.06-.06.36-.13.71-.2 1.06 0 .01 0 .02-.01.03-.14.71-.3 1.42-.48 2.1 0 .01-.01.03-.01.04-.09.33-.17.66-.27.99-.01.02-.01.05-.02.07-.09.33-.19.65-.3.97-.24.74-.5 1.45-.78 2.14-4.75 11.38-9.37 17.47-11.09 19.21-1.71 1.75-5.22 4.36-1.05 4.35 4.18-.01 8.86-3.34 11.89-6.36 1.8-1.79 7.88-7.85 14-15.99.29-.38.57-.76.86-1.15.1-.13.2-.27.29-.4.2-.27.39-.54.59-.82.11-.16.22-.31.33-.47.19-.27.38-.54.56-.81.11-.15.21-.31.32-.46.21-.31.43-.63.64-.95.08-.11.15-.22.23-.34.28-.42.56-.85.84-1.29.08-.12.15-.24.23-.35.21-.32.41-.65.61-.97.1-.16.2-.32.29-.48.18-.3.36-.59.54-.89.1-.16.19-.33.29-.49.19-.32.38-.65.57-.98.08-.13.15-.27.23-.4.26-.46.51-.92.77-1.38.04-.08.08-.16.13-.24.05-.09.1-.19.15-.28 2.11-.48 4.24-1.05 6.35-1.71.48-.15.96-.31 1.43-.47.01 0 .02-.01.04-.01.43-.14.85-.29 1.27-.44.09-.03.19-.07.28-.1.35-.13.71-.26 1.06-.4.1-.04.19-.07.29-.11.41-.16.82-.33 1.23-.5.02-.01.03-.01.05-.02.42-.18.84-.36 1.26-.55.1-.04.19-.09.28-.13.31-.14.61-.28.91-.43.13-.06.25-.12.38-.19.28-.14.55-.28.83-.42.12-.06.23-.12.35-.18.38-.2.75-.41 1.11-.62 10.03-5.8 23.99-1.01 28.06 2.42.13.11.28.23.43.35.05.04.11.08.16.12.11.09.22.17.34.26.07.05.14.11.21.16.11.08.22.17.34.25.08.06.16.12.25.18.12.09.24.17.36.26.09.06.18.13.28.19l.39.27c.1.07.2.14.3.2.14.09.28.19.42.28.11.07.21.14.32.21.15.1.29.19.44.29.11.07.22.15.33.22.16.1.32.2.48.31.11.07.23.15.34.22.17.11.35.22.53.33.11.07.22.14.33.2.21.13.42.26.64.4.08.05.16.1.25.15.3.18.61.37.92.56.06.03.11.07.17.1.26.15.52.31.78.46.11.07.23.13.34.2.21.12.42.25.64.37.13.07.26.15.39.22.2.12.4.23.61.35.14.08.28.16.42.24.2.11.39.22.59.33.15.08.29.16.44.24.2.11.39.22.59.32.08.04.15.08.22.12 0 0-.01 0-.01-.01 4.78 2.58 9.91 4.95 13.96 6.05 8.92 2.43 21.4 19.96 22.75 22.16.45.74 1.19 1.4 1.85 1.56h.01c.02 0 .04.01.06.01.04.01.07.01.11.01.02 0 .04 0 .05.01h.14c.02 0 .04 0 .05-.01.04 0 .07-.01.1-.02.01 0 .03-.01.04-.01.04-.01.09-.03.13-.05.01-.01.03-.02.04-.02.03-.02.07-.04.1-.07.01-.01.02-.02.03-.02.04-.03.08-.07.11-.11.01-.01.02-.03.03-.04.03-.04.06-.08.09-.12.01-.01.02-.02.02-.03.03-.06.06-.12.09-.18.01-.02.02-.04.02-.06.02-.06.05-.12.07-.19 0-.01.01-.03.01-.04.02-.08.04-.17.06-.26 0-.02.01-.05.01-.08.01-.09.03-.18.04-.27 0-.01 0-.03.01-.04.01-.11.02-.22.02-.35 0-.03 0-.06 0-.09 0-.11 0-.23 0-.36 0-.01 0-.03 0-.04 0-.14-.01-.29-.02-.44 0-.04-.01-.08-.01-.11-.01-.15-.02-.3-.04-.46 0-.01 0-.02 0-.04-.02-.17-.04-.35-.07-.54-.01-.05-.01-.09-.02-.14-.03-.18-.06-.37-.09-.57 0-.01 0-.02-.01-.03-.04-.21-.08-.42-.13-.64-.01-.05-.02-.11-.03-.16-.05-.22-.1-.45-.15-.69 0-.01 0-.01 0-.02-.06-.24-.12-.5-.19-.76-.02-.06-.03-.13-.05-.19-.07-.27-.14-.54-.22-.82-.81-2.87-1.69-5.34-2.71-7.63-.23-.51-.46-1.01-.71-1.51-.24-.5-.5-.98-.76-1.47-.18-.33-.36-.66-.55-.99-.64-1.12-1.33-2.22-2.08-3.34-.23-.34-.47-.69-.71-1.03-.62-.88-1.27-1.77-1.98-2.7-.2-.26-.4-.52-.6-.78-.41-.53-.83-1.06-1.27-1.61-.22-.27-.44-.55-.67-.83-.52-.64-1.06-1.31-1.63-1.99 4.4 1.18 9.04 2.91 14.82 5.89 3.17 1.63 13.03 9.05 13.83 8.36 1.2-1.05-7.39-15.29-15.55-19.15-6.73-3.18-16.41-8.2-19-10.42-.09-.8-.16-1.6-.24-2.4-.04-.45-.08-.9-.12-1.35-.06-.67-.12-1.35-.18-2.02-.04-.45-.08-.9-.13-1.35s-.09-.9-.15-1.34c-.03-.22-.05-.45-.08-.67-.06-.44-.12-.89-.18-1.33s-.13-.88-.21-1.31c-.27-1.52-.61-3.01-1.07-4.44-.07-.2-.13-.41-.21-.61-.14-.4-.3-.8-.46-1.19-.09-.21-.18-.43-.28-.64 3.6 1.61 9 3.04 15.28 1.51.02 0 .03-.01.05-.01.61-.15 1.21-.32 1.78-.52.14-.05.28-.1.41-.14.04-.01.08-.03.12-.04 9.34-3.37 13.18-11.68 13.64-12.72-3.26 1.82-7.28.34-7.28.34.59-.47 1.1-1 1.54-1.57.17-.23.34-.47.49-.71s.29-.49.43-.75c.18-.35.34-.7.48-1.07.03-.09.07-.17.1-.26.23-.63.41-1.29.54-1.96.06-.29.11-.58.15-.87.04-.28.07-.56.1-.84 0-.03.01-.05.01-.08.22-2.31.02-4.68-.31-6.77-.52-3.22-1.37-5.77-1.58-6.36v-.01c-.01-.04-.02-.07-.03-.09 0 0 0 0 0-.01-.01-.02-.01-.03-.01-.03-.03.14-.06.28-.1.41-.01.04-.02.08-.04.12-.03.09-.06.18-.09.27-.01.04-.03.08-.05.12-.04.09-.07.18-.11.27-.01.03-.02.06-.04.09-.05.12-.11.23-.17.34 0 .01-.01.01-.01.02-.06.1-.12.2-.18.29-.02.02-.03.05-.05.07-.05.08-.11.15-.16.23-.02.02-.03.04-.05.06-.07.09-.13.17-.2.25 0 0-.01.01-.01.01-.08.09-.16.18-.24.26-.12.12-.25.24-.37.35-.14.11-.27.22-.41.32-.07.05-.14.1-.21.14-.14.09-.27.17-.41.24-1 .55-1.87.7-1.87.7-1.96-11.79-16.31-15.12-16.31-15.12.16.48.32.96.48 1.43l.12.36c.14.44.29.88.42 1.31.01.03.02.05.03.08.14.45.28.9.41 1.34.02.06.04.12.06.19.19.62.36 1.22.53 1.81.02.08.05.16.07.24.14.51.28 1.02.41 1.52.02.09.05.17.07.26.3 1.14.57 2.24.8 3.29.01.05.02.09.03.13.1.47.2.93.29 1.39.02.08.03.16.05.24.09.47.18.94.26 1.39 0 .02.01.03.01.05.17.96.31 1.88.42 2.77.01.07.02.14.03.21.05.38.09.76.12 1.13 0 .05.01.09.01.14.08.83.13 1.62.16 2.38 0 .06 0 .11.01.17.01.32.02.63.02.94v.17c0 .71-.03 1.38-.07 2.02 0 .04-.01.08-.01.13-.02.27-.05.54-.08.8-.01.06-.01.12-.02.17-.03.27-.07.54-.11.8 0 .02 0 .03-.01.05-.05.29-.1.57-.16.84 0 .02-.01.05-.02.07-.05.24-.11.46-.16.69-.01.05-.03.11-.04.16-.06.21-.12.41-.18.6-.01.04-.02.08-.04.11-.15.46-.32.89-.5 1.3-.02.05-.04.09-.06.13-.07.16-.15.31-.23.46-.02.04-.04.08-.06.12-3.42 6.34-10.95 5.06-14.35 4.09-.1-.03-.2-.06-.3-.09h-.01c-.09-.03-.18-.06-.27-.08h-.01c-.08-.03-.16-.05-.24-.08-.01 0-.01 0-.02 0-.07-.02-.14-.05-.21-.07-.01 0-.01 0-.02-.01-.06-.02-.13-.04-.18-.06h-.01c-.06-.02-.11-.04-.15-.06h-.01c-.05-.02-.09-.03-.12-.05h-.01c-.03-.01-.06-.02-.09-.03 0 0 0 0-.01 0-.02-.01-.04-.02-.05-.02h-.01c-.01 0-.01-.01-.01-.01-.85-.52-1.68-.98-2.46-1.39-.18-.09-.35-.18-.52-.26-.82-.41-1.57-.75-2.22-1.02-.06-.02-.12-.05-.18-.07-.27-.11-.51-.21-.74-.29-.08-.03-.16-.06-.24-.09-.15-.06-.29-.11-.41-.15s-.23-.08-.33-.11c-.09-.03-.17-.05-.23-.07-.23-.06-.47-.12-.7-.18-.23-.05-.46-.1-.68-.15-7.68-1.54-14.95 1.42-20.99 2.7-6.82 1.45-16.76 1.49-30.29-4.83-.79-.93-1.43-1.66-2.01-2.34-.07-.08-.13-.15-.19-.22-.26-.3-.51-.58-.76-.87-.13-.15-.26-.29-.39-.44s-.26-.3-.4-.46c-.17-.2-.35-.4-.54-.62-.85-.97-1.88-2.13-3.32-3.79-.3-.35-.6-.68-.88-1.01-.07-.08-.14-.16-.22-.25-.22-.25-.44-.5-.65-.74-.08-.1-.16-.19-.25-.28-.18-.21-.37-.42-.54-.62-.19-.22-.38-.43-.56-.64-.15-.17-.29-.34-.44-.5-.12-.14-.24-.27-.35-.41-.12-.14-.24-.27-.35-.41-.11-.13-.23-.26-.34-.38s-.21-.24-.31-.36c-.12-.14-.23-.27-.35-.4-.09-.11-.19-.21-.28-.31-.11-.12-.21-.24-.32-.36-.09-.1-.19-.21-.28-.31-.11-.12-.21-.23-.31-.35-.08-.09-.17-.19-.25-.28-.15-.17-.3-.33-.44-.49-.07-.08-.14-.15-.21-.23-.12-.14-.25-.27-.36-.41-.07-.07-.13-.14-.2-.22-.09-.1-.19-.2-.27-.3-.07-.07-.13-.15-.2-.22-.08-.09-.17-.18-.25-.27-.07-.07-.13-.14-.2-.21-.08-.08-.15-.16-.23-.24-.07-.07-.13-.14-.19-.2-.04-.04-.08-.08-.12-.12-2.44-2.54-3.82-3.47-5.9-4.19-3.54-1.22-6.71-1.11-8.34-.9-1.66.13-3.72.3-5.98.88-3.88 1-6.65 2.78-7.76 3.39-3 1.66-8.29 2.74-18.29-.37" fill="#fff"/><path d="m312.2 723.06 1.96-31.91" fill="#0b0b0b" stroke="#0b0b0b" stroke-miterlimit="10" stroke-width="1.169"/><path d="m315.05 722.43 3.83-26.73" fill="#0b0b0b" stroke="#0b0b0b" stroke-miterlimit="10" stroke-width="1.169"/><path d="m315.79 734.17c-7.35-.72-22.05-5.7-27.91-7.66-4.38-1.46.57-4.18 22.6 2.62l.33-10.85 6.92-.57z" fill="#0c0c0c"/><path d="m359.04 721-15.17-28.14" fill="#0b0b0b" stroke="#0b0b0b" stroke-miterlimit="10" stroke-width="1.169"/><path d="m361.13 718.96-10.85-24.73" fill="#0b0b0b" stroke="#0b0b0b" stroke-miterlimit="10" stroke-width="1.169"/><path d="m367.94 728.55c-6.62 3.27-21.74 6.79-27.75 8.22-4.49 1.07-1.72-3.85 20.58-9.69l-5.45-9.39 5.58-4.13z" fill="#0c0c0c"/><path d="m324.62 538.76s-6.57-2.18-9.21-2.31c-4.22-.21-6.18-1.77-7.32-2.62-1.86-1.39-.19-14.42-.19-14.42s-3.2-3.62-.81-3.57c6.08.13 7.76-4.74 7.76-4.74" fill="none" stroke="#0b0b0b" stroke-miterlimit="10" stroke-width="1.169"/><path d="m315.7 517.3s3.76 4.41 6.37-1.45" fill="none" stroke="#0b0b0b" stroke-miterlimit="10" stroke-width="1.169"/><path d="m340.22 525.94s1.98 5.45 0 9.92c-1.98 4.46 62.47 155.18 56.52 157.66-2.51 1.05-7.59 3.06-14.9 4.67-10.01 2.21-24.2 3.65-41.66.78-30.2-4.96-62.92 1.98-61.93-5.45s16.36-114.53 22.31-124.44c5.95-9.92 4.96-14.87 8.43-12.39s15.87 1.98 7.93.99c-7.93-.99-4.46-6.45-4.46-6.45s7.93-25.29 27.76-25.29z" fill="#4186c3"/><path d="m344.43 542.79s-8.86-13.43-25.54-8.09c-16.5 5.28-21.06 39.11-11.66 25 2.41-3.62 35.22 4.41 38.69-.06 3.47-4.45 5.95-10.9-1.49-16.85z" fill="#c4382c"/><path d="m291.8 616.84s-12.3-1.08-20.55 4.67 1.18 9.47 3.63 8.91c2.46-.56 6.18 2.4 9.13 3.23s7.79-6.16 7.79-6.16z" fill="none" stroke="#0c0c0c" stroke-miterlimit="10" stroke-width="1.169"/><path d="m348.44 569.22s6.85 2.37 3.68 13.58-18.31 44.03-23.98 45.83c-1.47.47-4.02 1.08-6.97 1.74-8.42 1.87-34.5 8.03-34.5 8.03l1.92-21.81 27.49-13.08 10.94-24.03" fill="#4186c3" stroke="#0c0c0c" stroke-miterlimit="10" stroke-width="1.169"/><path d="m346.66 553.21s26.89 30.26 45.23 32.49c-2.48 10.66 5.23 44.72 5.23 44.72s-68.06-43.75-70.91-73.99c14.01-3.22 20.45-3.22 20.45-3.22z" fill="#c4382c"/><path d="m278.22 631.04s-6.64 3.01-4.33 10.6" fill="none" stroke="#0c0c0c" stroke-miterlimit="10" stroke-width="1.169"/><path d="m275.81 619.1s-12.15-17.99-23.04-2.34 22.44 69.12-16.83 58.55c-39.28-10.56-19.86-57.59-68.38-25.25" fill="none" stroke="#0c0c0c" stroke-miterlimit="10" stroke-width="1.169"/><path d="m389.09 602.4s6.78.6 7.75-1.59" fill="none" stroke="#0c0c0c" stroke-miterlimit="10" stroke-width="1.169"/><path d="m390.67 605.66s2.79 1.06 7.09-.85" fill="none" stroke="#0c0c0c" stroke-miterlimit="10" stroke-width="1.169"/><path d="m390.19 607.83s4.25 2.66 8.06.89" fill="none" stroke="#0c0c0c" stroke-miterlimit="10" stroke-width="1.169"/><path d="m389.71 611.03s4.66 2.8 8.15 3.03" fill="none" stroke="#0c0c0c" stroke-miterlimit="10" stroke-width="1.169"/><path d="m390.44 615.14s1.73 1.62 6.68 1.62" fill="none" stroke="#0c0c0c" stroke-miterlimit="10" stroke-width="1.169"/><path d="m392.27 619.4s2.79 1.06 7.09-.85" fill="none" stroke="#0c0c0c" stroke-miterlimit="10" stroke-width="1.169"/><path d="m391.79 621.48s4.25 2.66 8.06.89" fill="none" stroke="#0c0c0c" stroke-miterlimit="10" stroke-width="1.169"/><path d="m392.85 625.43s4.66 2.8 8.15 3.03" fill="none" stroke="#0c0c0c" stroke-miterlimit="10" stroke-width="1.169"/><path d="m388.93 588.39s2.91.63 6.89-1.9" fill="none" stroke="#0c0c0c" stroke-miterlimit="10" stroke-width="1.169"/><path d="m388.78 590.61s4.6 2 8.1-.33" fill="none" stroke="#0c0c0c" stroke-miterlimit="10" stroke-width="1.169"/><path d="m388.78 593.85s5.03 2.07 8.51 1.78" fill="none" stroke="#0c0c0c" stroke-miterlimit="10" stroke-width="1.169"/><path d="m390.12 597.8s1.95 1.34 6.85.6" fill="none" stroke="#0c0c0c" stroke-miterlimit="10" stroke-width="1.169"/><path d="m322.82 508.9c-1.88.26-3.94.19-5.45-.95s-2.03-3.68-.6-4.92c1.05-.91 2.6-.79 3.98-.63.56.22.56 1.09.13 1.51s-1.08.5-1.68.5c-1.12.01-2.34-.21-3.05-1.07-.44-.53-.61-1.24-.65-1.92-.1-1.59.5-3.26 1.7-4.3.75-.65 1.71-1.04 2.7-1.21 3.61-.6 7.43 2.27 7.79 5.91.12 1.18-.14 2.47-1 3.29s-2.41.93-3.17.02" fill="none" stroke="#0b0b0b" stroke-miterlimit="10" stroke-width="1.169"/><path d="m331.99 511.18c-2.01 2.09-1.3 5.83.91 7.69 2.22 1.86 5.4 2.15 8.25 1.63.27-.05.55-.11.81-.19.85-.26 1.49-.94 1.71-1.8.47-1.83-1.43-3-2.85-2.48-1.46.54-1.92 2.57-1.19 3.95s2.26 2.15 3.78 2.5 3.1.36 4.62.68c2.29.48 4.49 1.75 5.7 3.75s1.25 4.77-.24 6.58c-1.49 1.8-4.55 2.19-6.22.55-.99-1.41.79-3.66 2.39-3.03 1.22 2.76-.88 5.77-2.71 8.16-1.84 2.4-3.53 5.84-1.68 8.22 1.3 1.67 3.82 1.94 5.79 1.88.94-.03 1.85-.41 2.47-1.12 1.1-1.26.49-2.51-.44-3.15-1.82-1.24-4.51-.1-5.59 1.83s-.93 4.29-.53 6.46c.34 1.83.85 3.67 1.87 5.22 2.14 3.23 6.51-7.26 8.15-3.76 1.98 4.21 8.2 10.41 10.95 8.86 1.53-.86 2.78-2.28 4.11-3.46 2.21-1.96 1.71-5.6-.98-6.82-.71-.32-1.46-.56-2.22-.71-.61-.12-1.27-.17-1.85.05-1.13.43-1.65 1.73-1.88 2.91-.53 2.64-.28 5.44.71 7.95.07.19.18.37.32.52.84.86 1.93.04 2.55-.77 2.62-3.39 3.75-7.9 3.04-12.13-.07-.41-.16-.84-.44-1.16-.37-.43-.98-.55-1.53-.68-1.91-.42-3.86-1.22-4.99-2.81s-1.08-4.12.52-5.24 4.39.39 3.91 2.28c-1.68 2.03-4.89 2.16-7.26 1.01s-.58-7.06-2.23-9.12" fill="none" stroke="#0b0b0b" stroke-miterlimit="10" stroke-width="1.169"/><path d="m334.93 507.71s20.37 13.05 21.63 4.2-2.93-16.39-21.63-4.2z" fill="#c4382c" stroke="#020202" stroke-miterlimit="10" stroke-width=".9801"/><path d="m336.99 507.72s15.88-17.91 6.69-19.93-17.58 1.21-6.69 19.93z" fill="#c4382c" stroke="#020202" stroke-miterlimit="10" stroke-width=".9801"/><circle cx="336.2" cy="506.84" fill="#c4382c" r="2.39" stroke="#020202" stroke-miterlimit="10" stroke-width=".9801"/><path d="m115.46 639.22s-2.96-1.55-3.7-.96.07 3.29.07 3.29 1.95.94 3.27 0c1.32-.93 1.61-1.34.36-2.33z" fill="none" stroke="#0c0c0c" stroke-miterlimit="10" stroke-width="1.4457"/><path d="m129.51 641.96s3.52 4.14 5.98-1.37" fill="none" stroke="#0b0b0b" stroke-miterlimit="10" stroke-width="1.4457"/><path d="m169.59 650.87s-11.35 15.72-26.16 14.71c-.17-3.78-.17-3.78-.17-3.78s11.8 3.83 23.69-14.88c2.64 3.02 2.64 3.95 2.64 3.95z" fill="#c4382c"/><path d="m161.62 639.15c.56 1.42.56 3.12-.29 4.38s-2.67 1.88-3.99 1.14c1.9.23 3.56 1.77 3.95 3.64s-.54 3.94-2.19 4.9c2.04 1.49 3.93 3.62 3.98 6.15s-2.67 5.05-4.96 3.97c.86 1.03.65 2.66-.16 3.73-.83 1.1-2.14 1.72-3.43 2.18-1.47.52-2.99.86-4.53 1.03-2.01.22-4.29.21-6.01-.96-1.47-.99-2.34-3.04-1.53-4.62-1.13.79-2.83.17-3.54-1.01s-.62-2.69-.21-4c.42-1.36 1.23-3.2 2.25-4.61.66-.92.14-2.18-.96-2.43-.38-.08-.73-.23-1.04-.52-2.23-2.14-.56-16.94 7.96-12.04 2.13 1.23.1-6.58 2.37-7.53 3.11-1.31 5.63 1.76 5.79 4.57.15 2.76 5.28-1.16 6.54 2.03z" style="fill:none;stroke:#0c0c0c;stroke-width:1.169;stroke-linecap:round;stroke-linejoin:round;stroke-miterlimit:10"/></svg>