<?xml version="1.0" encoding="utf-8"?>
<!-- Generator: Adobe Illustrator 25.3.1, SVG Export Plug-In . SVG Version: 6.00 Build 0)  -->
<svg version="1.1" id="Layer_1" xmlns="http://www.w3.org/2000/svg" xmlns:xlink="http://www.w3.org/1999/xlink" x="0px" y="0px"
	 viewBox="0 0 2000 2000" style="enable-background:new 0 0 2000 2000;" xml:space="preserve">
<style type="text/css">
	.st0{fill:#3C83C5;}
	.st1{clip-path:url(#SVGID_2_);fill:#FFFFFF;}
	.st2{fill:#0D0D0D;}
	.st3{fill:none;stroke:#0D0D0D;stroke-width:19.7715;stroke-miterlimit:10;}
	.st4{fill:none;stroke:#F5F6F7;stroke-width:19.7718;stroke-miterlimit:10;}
	.st5{fill:none;stroke:#0D0E0E;stroke-width:24.4522;stroke-miterlimit:10;}
	.st6{fill:none;stroke:#0D0D0D;stroke-width:24.4522;stroke-linecap:round;stroke-miterlimit:10;}
	.st7{fill:#C53A28;}
	.st8{fill:none;stroke:#0D0E0E;stroke-width:19.7718;stroke-linecap:round;stroke-linejoin:round;stroke-miterlimit:10;}
	.st9{clip-path:url(#SVGID_4_);fill:#3C83C5;}
	.st10{clip-path:url(#SVGID_4_);fill:#0D0D0D;}
	.st11{clip-path:url(#SVGID_4_);fill:none;stroke:#0D0D0D;stroke-width:19.7715;stroke-miterlimit:10;}
	.st12{clip-path:url(#SVGID_4_);fill:none;stroke:#F5F6F7;stroke-width:19.7715;stroke-miterlimit:10;}
	.st13{clip-path:url(#SVGID_4_);fill:#FFFFFF;stroke:#0D0D0D;stroke-width:19.7715;stroke-miterlimit:10;}
	.st14{clip-path:url(#SVGID_4_);fill:#C53A28;}
</style>
<g>
	<circle class="st0" cx="1010.18" cy="993.75" r="916.35"/>
	<g>
		<defs>
			<circle id="SVGID_1_" cx="1009.97" cy="993.75" r="920.14"/>
		</defs>
		<clipPath id="SVGID_2_">
			<use xlink:href="#SVGID_1_"  style="overflow:visible;"/>
		</clipPath>
		<path class="st1" d="M595.94,387.11c0,0,0.23,289.82,115.49,275.02c120.75-15.5,80.39,124.08,107.48,113.69
			c19-7.29,75.57-112.26,163.81-105.38c63.07,4.92,125.29,8.51,147.43,67.78c37.4,100.15,83.67,294.7,58.35,611.71
			c-63.25,32.57-126.15,72.18-183.74,114.04c-0.13,0.1-0.27,0.19-0.4,0.29c-4.91,3.57-9.77,7.16-14.6,10.76
			c-0.49,0.37-0.99,0.73-1.48,1.1c-4.59,3.43-9.14,6.87-13.65,10.33c-0.69,0.53-1.38,1.06-2.07,1.59
			c-4.35,3.34-8.67,6.69-12.94,10.05c-0.81,0.64-1.62,1.28-2.43,1.92c-4.18,3.29-8.32,6.59-12.41,9.89
			c-0.83,0.67-1.65,1.34-2.48,2.01c-4.07,3.3-8.1,6.59-12.08,9.89c-0.75,0.62-1.49,1.25-2.24,1.87c-4.04,3.36-8.05,6.72-11.99,10.08
			c-0.46,0.39-0.91,0.79-1.37,1.18c-16.69,14.27-32.46,28.47-47.16,42.45c-1.14,1.08-2.31,2.17-3.43,3.25
			c-2.51,2.41-4.94,4.8-7.38,7.19c-1.61,1.57-3.24,3.16-4.82,4.72c-2.2,2.18-4.32,4.34-6.46,6.5c-1.74,1.76-3.49,3.53-5.19,5.28
			c-1.97,2.03-3.89,4.05-5.81,6.07c-1.76,1.85-3.52,3.7-5.24,5.54c-1.8,1.93-3.56,3.84-5.3,5.75c-1.74,1.9-3.46,3.8-5.14,5.68
			c-1.63,1.83-3.24,3.64-4.82,5.44c-1.7,1.94-3.36,3.87-5,5.79c-1.47,1.73-2.93,3.44-4.36,5.15c-1.64,1.96-3.22,3.9-4.79,5.84
			c-1.32,1.63-2.64,3.26-3.91,4.87c-1.57,1.99-3.07,3.95-4.57,5.91c-1.16,1.51-2.33,3.03-3.44,4.53c-1.52,2.05-2.95,4.05-4.38,6.06
			c-0.97,1.36-1.98,2.74-2.91,4.08c-1.53,2.21-2.95,4.37-4.36,6.53c-0.72,1.09-1.49,2.21-2.17,3.28c-2.05,3.21-3.98,6.37-5.75,9.46
			c-1.66,2.88-3.14,5.55-4.52,8.12c-0.27,0.49-0.54,0.99-0.79,1.47c-1.28,2.4-2.44,4.67-3.47,6.79c-0.21,0.43-0.4,0.83-0.6,1.25
			c-0.95,1.98-1.81,3.87-2.54,5.6c-0.07,0.16-0.16,0.34-0.22,0.51c-0.74,1.79-1.33,3.4-1.85,4.93c-0.13,0.37-0.25,0.74-0.37,1.1
			c-0.45,1.41-0.81,2.73-1.06,3.92c-0.06,0.29-0.1,0.55-0.14,0.83c-0.18,1-0.29,1.93-0.32,2.76c-0.01,0.19-0.04,0.41-0.04,0.59
			c0,0.88,0.11,1.63,0.29,2.31c0.06,0.22,0.11,0.44,0.19,0.64c0.22,0.61,0.5,1.14,0.87,1.58c0.12,0.14,0.26,0.24,0.39,0.36
			c0.34,0.31,0.73,0.57,1.16,0.77c0.17,0.08,0.31,0.18,0.5,0.24c0.45,0.16,0.94,0.27,1.48,0.33c0.01-0.02,0.03-0.04,0.05-0.05
			c6.33,0.73,18.28-4.98,32.87-13.66c0,0-0.01,0.01-0.01,0.01c0.66-0.39,1.35-0.82,2.02-1.22c6.58-3.97,13.62-8.45,20.9-13.19
			c0.23-0.15,0.46-0.3,0.69-0.45c1.94-1.26,3.89-2.54,5.85-3.83c0.12-0.08,0.23-0.15,0.35-0.23c4.82-3.17,9.69-6.38,14.55-9.58
			c0.27-0.18,0.55-0.36,0.83-0.54c1.77-1.16,3.54-2.32,5.3-3.47c0.66-0.43,1.32-0.86,1.98-1.29c1.46-0.95,2.91-1.89,4.36-2.82
			c0.8-0.51,1.59-1.02,2.38-1.53c1.34-0.86,2.66-1.7,3.98-2.53c0.83-0.52,1.65-1.05,2.47-1.56c1.26-0.79,2.51-1.56,3.75-2.33
			c0.84-0.52,1.68-1.04,2.51-1.54c1.21-0.73,2.39-1.44,3.57-2.14c0.82-0.49,1.64-0.98,2.45-1.46c1.18-0.69,2.33-1.34,3.47-2
			c0.76-0.43,1.54-0.88,2.28-1.3c1.23-0.68,2.41-1.31,3.6-1.95c0.61-0.33,1.25-0.68,1.85-1c1.76-0.92,3.48-1.78,5.13-2.56
			c46.1-21.82,214.71-90.57,342.13-110.78c-1.64,11.73-3.46,23.39-5.5,34.91c-0.06,0.35-0.12,0.7-0.19,1.04
			c-1.08,6.03-2.21,12.03-3.4,17.98c-0.03,0.17-0.07,0.34-0.1,0.51c-2.43,12.08-5.12,23.97-8.07,35.6
			c-0.06,0.22-0.11,0.44-0.17,0.66c-1.44,5.65-2.95,11.24-4.53,16.76c-0.11,0.4-0.23,0.8-0.35,1.2c-1.6,5.57-3.26,11.07-5,16.48
			c-4.02,12.51-8.41,24.6-13.22,36.13c-80.29,192.51-158.55,295.43-187.55,324.99c-29,29.55-88.29,73.74-17.68,73.65
			c70.61-0.09,149.89-56.52,201.08-107.53c30.45-30.33,133.33-132.85,236.76-270.49c0,0,0,0,0,0c4.82-6.42,9.65-12.93,14.46-19.49
			c1.66-2.26,3.31-4.55,4.96-6.83c3.34-4.59,6.68-9.21,10.01-13.87c1.89-2.65,3.77-5.31,5.66-7.97c3.19-4.51,6.37-9.06,9.55-13.63
			c1.81-2.61,3.62-5.21,5.42-7.83c3.64-5.29,7.25-10.63,10.85-15.99c1.28-1.9,2.56-3.78,3.84-5.69c4.79-7.19,9.54-14.44,14.26-21.74
			c1.28-1.98,2.54-3.99,3.81-5.99c3.49-5.46,6.96-10.94,10.4-16.46c1.67-2.68,3.32-5.37,4.97-8.06c3.08-5,6.13-10.02,9.15-15.07
			c1.65-2.75,3.29-5.5,4.93-8.26c3.24-5.47,6.43-10.98,9.6-16.5c1.29-2.25,2.6-4.48,3.88-6.74c4.38-7.73,8.71-15.51,12.95-23.33
			c0.73-1.34,1.42-2.69,2.14-4.03c0.85-1.59,1.69-3.18,2.54-4.77c35.61-8.15,71.76-17.76,107.32-28.92l0,0c0,0,0,0,0.01,0
			c8.11-2.54,16.18-5.17,24.2-7.87c0.21-0.07,0.42-0.15,0.63-0.22c7.23-2.44,14.41-4.95,21.55-7.52c1.57-0.57,3.13-1.14,4.7-1.71
			c6-2.19,11.97-4.43,17.89-6.71c1.63-0.63,3.26-1.25,4.89-1.88c6.98-2.73,13.91-5.52,20.76-8.38c0.28-0.12,0.57-0.23,0.85-0.35
			c7.18-3.01,14.26-6.1,21.27-9.25c1.61-0.73,3.19-1.47,4.79-2.21c5.21-2.38,10.36-4.8,15.46-7.27c2.15-1.04,4.29-2.09,6.42-3.15
			c4.72-2.34,9.37-4.71,13.99-7.12c1.95-1.02,3.92-2.03,5.85-3.06c6.37-3.4,12.66-6.86,18.79-10.4
			c169.59-98.04,405.74-17.02,474.6,40.9c2.26,1.9,4.73,3.91,7.35,5.99c0.85,0.68,1.81,1.4,2.7,2.1c1.84,1.44,3.7,2.89,5.7,4.41
			c1.15,0.88,2.4,1.8,3.6,2.7c1.89,1.41,3.78,2.83,5.79,4.3c1.36,1,2.79,2.02,4.2,3.04c2.01,1.45,4.03,2.9,6.14,4.4
			c1.53,1.08,3.11,2.19,4.68,3.3c2.14,1.5,4.32,3.02,6.56,4.56c1.66,1.14,3.34,2.3,5.05,3.46c2.31,1.57,4.65,3.16,7.05,4.77
			c1.78,1.2,3.56,2.39,5.39,3.61c2.45,1.63,4.96,3.29,7.5,4.95c1.87,1.23,3.73,2.46,5.65,3.7c2.64,1.72,5.35,3.46,8.07,5.21
			c1.92,1.24,3.82,2.46,5.78,3.71c2.92,1.86,5.91,3.75,8.91,5.63c1.84,1.16,3.64,2.3,5.5,3.46c3.55,2.22,7.18,4.46,10.83,6.7
			c1.41,0.87,2.78,1.73,4.21,2.6c5.11,3.13,10.31,6.28,15.58,9.45c0.95,0.57,1.92,1.14,2.88,1.71c4.34,2.6,8.72,5.2,13.16,7.82
			c1.9,1.12,3.83,2.24,5.75,3.36c3.57,2.08,7.13,4.17,10.75,6.26c2.18,1.26,4.38,2.51,6.57,3.77c3.41,1.95,6.82,3.9,10.26,5.85
			c2.36,1.33,4.73,2.66,7.1,3.99c3.34,1.87,6.67,3.74,10.04,5.6c2.47,1.37,4.95,2.73,7.44,4.1c3.32,1.82,6.65,3.64,9.99,5.45
			c1.27,0.69,2.53,1.39,3.8,2.08c-0.06-0.04-0.11-0.07-0.16-0.11l0,0c80.86,43.64,167.64,83.72,236.04,102.35
			c150.8,41.07,361.99,337.62,384.73,374.73c7.67,12.51,20.09,23.64,31.32,26.33c0,0.01,0,0.01,0,0.02
			c0.08,0.02,0.17,0.03,0.25,0.05c0.34,0.08,0.68,0.14,1.02,0.2c0.6,0.11,1.19,0.19,1.78,0.25c0.3,0.03,0.61,0.07,0.91,0.09
			c0.8,0.04,1.58,0.02,2.36-0.04c0.3-0.02,0.6-0.07,0.9-0.11c0.6-0.08,1.19-0.2,1.76-0.35c0.25-0.06,0.5-0.11,0.74-0.19
			c0.75-0.23,1.48-0.54,2.19-0.9c0.25-0.13,0.49-0.27,0.74-0.41c0.57-0.33,1.13-0.7,1.67-1.12c0.18-0.14,0.37-0.26,0.55-0.41
			c0.67-0.56,1.3-1.21,1.92-1.91c0.19-0.22,0.38-0.46,0.57-0.7c0.51-0.64,1-1.33,1.46-2.08c0.12-0.2,0.26-0.38,0.38-0.58
			c0.55-0.94,1.05-1.97,1.53-3.08c0.14-0.32,0.27-0.66,0.4-0.99c0.4-1.01,0.78-2.09,1.13-3.24c0.07-0.23,0.15-0.44,0.22-0.68
			c0.39-1.36,0.72-2.84,1.02-4.4c0.08-0.41,0.16-0.84,0.23-1.27c0.25-1.45,0.47-2.97,0.65-4.59c0.03-0.25,0.06-0.47,0.09-0.72
			c0.19-1.83,0.31-3.8,0.4-5.84c0.02-0.52,0.04-1.06,0.05-1.6c0.06-1.94,0.07-3.96,0.04-6.09c0-0.24,0-0.46,0-0.71
			c-0.05-2.35-0.17-4.84-0.34-7.42c-0.04-0.64-0.09-1.28-0.14-1.93c-0.19-2.5-0.41-5.08-0.71-7.8c-0.02-0.21-0.04-0.4-0.06-0.6
			c-0.32-2.9-0.73-5.96-1.19-9.12c-0.11-0.77-0.23-1.54-0.35-2.32c-0.47-3.1-0.99-6.28-1.59-9.62c-0.03-0.18-0.06-0.34-0.09-0.51
			c-0.63-3.48-1.36-7.15-2.14-10.9c-0.19-0.92-0.39-1.85-0.59-2.79c-0.81-3.77-1.66-7.64-2.62-11.69c-0.02-0.09-0.04-0.17-0.06-0.26
			c-0.97-4.12-2.06-8.43-3.2-12.83c-0.28-1.08-0.56-2.18-0.86-3.28c-1.18-4.5-2.42-9.09-3.78-13.89
			c-13.69-48.47-28.51-90.28-45.88-129.13c-3.86-8.63-7.85-17.12-11.98-25.5c-4.13-8.38-8.4-16.66-12.83-24.87
			c-3.02-5.6-6.15-11.17-9.32-16.73c-10.78-18.87-22.44-37.54-35.23-56.52c-3.9-5.78-7.94-11.61-12.05-17.47
			c-10.43-14.86-21.52-29.99-33.44-45.64c-3.32-4.36-6.71-8.77-10.15-13.21c-6.89-8.9-14.04-17.97-21.45-27.26
			c-3.71-4.65-7.48-9.35-11.32-14.11c-8.79-10.89-17.98-22.14-27.52-33.72c74.45,20.03,152.84,49.24,250.7,99.7
			c53.62,27.65,220.37,153.1,233.84,141.33c20.36-17.79-125-258.57-263.05-323.89c-113.78-53.84-277.49-138.66-321.33-176.18
			c-0.01,0-0.01-0.01-0.02-0.01c-1.46-13.46-2.77-27.02-4.01-40.65c-0.69-7.58-1.36-15.17-2.02-22.77c-1-11.41-2-22.83-3.05-34.24
			c-0.7-7.61-1.43-15.21-2.2-22.79c-0.77-7.59-1.58-15.16-2.46-22.7c-0.44-3.77-0.89-7.54-1.36-11.3
			c-0.94-7.52-1.95-15.01-3.04-22.45c-1.1-7.45-2.28-14.86-3.57-22.22c-4.51-25.76-10.3-50.91-18.14-75.05
			c-1.12-3.45-2.28-6.88-3.48-10.28c-2.41-6.81-5-13.53-7.77-20.16c-1.53-3.63-3.12-7.23-4.76-10.81
			c60.92,27.15,152.25,51.4,258.47,25.53c0.3-0.07,0.59-0.16,0.89-0.24c10.38-2.49,20.42-5.44,30.18-8.76
			c2.37-0.79,4.69-1.61,7.02-2.44c0.67-0.24,1.33-0.49,1.99-0.73c157.92-57.06,222.89-197.61,230.62-215.15
			c-55.2,30.81-123.12,5.69-123.12,5.69c9.97-7.97,18.57-16.9,25.97-26.6c2.96-3.88,5.72-7.88,8.3-11.99
			c2.58-4.11,4.98-8.33,7.2-12.64c3.02-5.86,5.69-11.91,8.09-18.09c0.57-1.46,1.11-2.93,1.65-4.4c3.87-10.69,6.91-21.77,9.2-33.11
			c0.98-4.88,1.83-9.81,2.56-14.78c0.69-4.72,1.26-9.47,1.73-14.24c0.04-0.46,0.09-0.91,0.13-1.37c3.68-39,0.39-79.18-5.31-114.57
			l0,0c0,0,0,0,0-0.01c-8.76-54.44-23.18-97.52-26.69-107.54c-0.02-0.06-0.04-0.11-0.06-0.17c-0.23-0.66-0.41-1.16-0.53-1.51
			c-0.02-0.06-0.02-0.06-0.04-0.11c-0.1-0.28-0.17-0.47-0.17-0.47l0,0l0,0c0,0.01-0.01,0.03-0.01,0.04
			c-0.51,2.37-1.1,4.66-1.73,6.89c-0.2,0.69-0.41,1.35-0.62,2.03c-0.48,1.57-0.99,3.11-1.53,4.61c-0.25,0.69-0.5,1.38-0.77,2.06
			c-0.6,1.56-1.24,3.08-1.9,4.56c-0.22,0.48-0.42,0.98-0.64,1.46c-0.92,1.97-1.89,3.88-2.9,5.71c-0.06,0.11-0.13,0.21-0.19,0.32
			c-0.96,1.71-1.96,3.36-3,4.96c-0.26,0.41-0.54,0.81-0.81,1.21c-0.89,1.33-1.8,2.62-2.73,3.87c-0.27,0.36-0.53,0.72-0.8,1.07
			c-1.13,1.46-2.28,2.88-3.46,4.24c-0.05,0.06-0.1,0.12-0.15,0.18c-1.33,1.53-2.7,2.99-4.08,4.39v0c-2.06,2.08-4.17,4.04-6.31,5.85
			c-2.29,1.94-4.61,3.72-6.93,5.37c-1.16,0.82-2.32,1.61-3.48,2.37c-2.32,1.51-4.62,2.88-6.88,4.14
			c-16.96,9.39-31.56,11.82-31.56,11.82c-33.17-199.36-275.89-255.72-275.89-255.72c2.78,8.18,5.45,16.22,8.07,24.2
			c0.67,2.03,1.33,4.05,1.98,6.07c2.44,7.48,4.83,14.9,7.12,22.2c0.14,0.45,0.29,0.91,0.43,1.36c2.41,7.68,4.73,15.22,6.99,22.7
			c0.32,1.05,0.63,2.09,0.94,3.13c3.13,10.41,6.09,20.6,8.93,30.62c0.39,1.39,0.77,2.76,1.16,4.14c2.44,8.7,4.78,17.25,7,25.66
			c0.39,1.46,0.78,2.93,1.16,4.39c5.06,19.3,9.56,37.85,13.52,55.64c0.17,0.76,0.33,1.51,0.49,2.27c1.76,7.97,3.4,15.77,4.94,23.44
			c0.27,1.37,0.55,2.74,0.82,4.11c1.58,7.98,3.06,15.82,4.41,23.48c0.05,0.27,0.1,0.55,0.15,0.82c2.86,16.31,5.19,31.88,7.07,46.79
			c0.15,1.2,0.29,2.38,0.44,3.57c0.79,6.49,1.49,12.85,2.1,19.08c0.08,0.78,0.16,1.58,0.24,2.36c1.33,14.06,2.21,27.45,2.66,40.22
			c0.03,0.96,0.06,1.91,0.09,2.87c0.17,5.42,0.26,10.73,0.27,15.93c0,0.96,0.01,1.93,0.01,2.88c-0.03,11.99-0.45,23.38-1.26,34.18
			c-0.05,0.72-0.12,1.41-0.18,2.12c-0.37,4.59-0.8,9.07-1.3,13.46c-0.11,0.98-0.22,1.97-0.34,2.94c-0.57,4.65-1.2,9.19-1.91,13.6
			c-0.05,0.28-0.08,0.57-0.13,0.85c-0.8,4.88-1.69,9.62-2.67,14.22c-0.08,0.39-0.18,0.77-0.26,1.16c-0.86,3.99-1.79,7.86-2.78,11.64
			c-0.24,0.91-0.48,1.8-0.72,2.69c-0.95,3.48-1.95,6.88-3,10.18c-0.2,0.63-0.39,1.28-0.6,1.91c-2.54,7.79-5.38,15.08-8.47,21.93
			c-0.34,0.77-0.7,1.51-1.05,2.27c-1.25,2.68-2.54,5.29-3.87,7.83c-0.36,0.7-0.72,1.4-1.09,2.09
			c-57.85,107.15-185.2,85.63-242.71,69.24c-0.02-0.01-0.04-0.01-0.06-0.02c-1.76-0.5-3.44-1-5.06-1.48
			c-0.06-0.02-0.13-0.04-0.19-0.06c-1.59-0.48-3.1-0.95-4.55-1.4c-0.07-0.02-0.15-0.05-0.22-0.07c-1.42-0.45-2.78-0.89-4.06-1.31
			c-0.09-0.03-0.17-0.06-0.26-0.08c-1.26-0.42-2.44-0.82-3.56-1.2c-0.09-0.03-0.17-0.06-0.26-0.09c-1.1-0.38-2.12-0.74-3.07-1.07
			c-0.07-0.02-0.13-0.05-0.19-0.07c-0.94-0.34-1.81-0.65-2.58-0.94c-0.05-0.02-0.09-0.04-0.14-0.05c-0.76-0.28-1.45-0.54-2.04-0.77
			c-0.05-0.02-0.1-0.04-0.15-0.06c-0.57-0.22-1.07-0.41-1.47-0.57c-0.04-0.01-0.06-0.03-0.1-0.04c-0.37-0.15-0.68-0.27-0.88-0.35
			c-0.06-0.02-0.08-0.03-0.13-0.05c-0.1-0.04-0.22-0.09-0.22-0.09c0,0,0,0,0,0c-14.36-8.81-28.4-16.62-41.6-23.43
			c-2.99-1.54-5.92-3.02-8.82-4.46c-13.89-6.9-26.63-12.63-37.56-17.2c-1.01-0.42-2-0.83-2.97-1.23c-4.5-1.86-8.69-3.52-12.47-4.96
			c-1.39-0.53-2.73-1.03-4.01-1.51c-2.57-0.95-4.91-1.79-7-2.51c-2.1-0.73-3.95-1.34-5.53-1.84c-1.58-0.5-2.9-0.89-3.93-1.17
			c-3.95-1.07-7.9-2.06-11.84-2.98c-3.87-0.91-7.72-1.73-11.58-2.5c-0.02,0-0.04-0.01-0.06-0.01c0,0,0,0,0,0
			c-129.94-26-252.89,24.02-354.96,45.67c-115.39,24.48-283.52,25.24-512.33-81.76c-13.43-15.75-24.11-28.16-34.04-39.6
			c-1.1-1.27-2.2-2.53-3.28-3.78c-4.35-5-8.59-9.86-12.91-14.79c-2.16-2.46-4.34-4.94-6.55-7.47c-2.22-2.52-4.47-5.09-6.79-7.73
			c-2.94-3.34-5.99-6.81-9.17-10.42c-14.4-16.36-31.75-36.06-56.22-64.04c-5.11-5.84-10.08-11.53-14.93-17.09
			c-1.24-1.42-2.42-2.77-3.64-4.17c-3.7-4.24-7.37-8.45-10.92-12.52c-1.42-1.63-2.79-3.2-4.18-4.8c-3.11-3.56-6.21-7.12-9.2-10.55
			c-3.18-3.65-6.35-7.29-9.41-10.79c-2.5-2.87-4.99-5.72-7.41-8.5c-2.02-2.31-4.03-4.62-5.99-6.87c-2.02-2.31-4.03-4.61-5.99-6.87
			c-1.92-2.19-3.81-4.36-5.67-6.49c-1.78-2.04-3.57-4.08-5.3-6.07c-2-2.29-3.96-4.53-5.9-6.74c-1.56-1.78-3.14-3.59-4.67-5.33
			c-1.83-2.08-3.6-4.09-5.37-6.11c-1.56-1.77-3.14-3.58-4.67-5.3c-1.78-2.02-3.5-3.96-5.23-5.92c-1.38-1.56-2.8-3.17-4.15-4.7
			c-2.55-2.87-5.02-5.64-7.45-8.37c-1.18-1.32-2.33-2.6-3.48-3.88c-2.08-2.33-4.16-4.64-6.17-6.86c-1.14-1.26-2.22-2.45-3.33-3.67
			c-1.56-1.72-3.13-3.45-4.65-5.11c-1.16-1.27-2.28-2.48-3.41-3.71c-1.4-1.53-2.81-3.05-4.17-4.52c-1.14-1.23-2.26-2.43-3.38-3.62
			c-1.29-1.38-2.57-2.75-3.83-4.08c-1.1-1.17-2.18-2.3-3.26-3.43c-0.66-0.69-1.35-1.42-2-2.1c0,0,0,0.01-0.01,0.01
			c-41.25-43.01-64.54-58.67-99.84-70.79c-59.89-20.58-113.48-18.74-141.1-15.21c0,0,0,0-0.01,0
			c-28.13,2.25-62.91,5.03-101.19,14.86c-65.68,16.87-112.41,46.99-131.22,57.39c-50.78,28.08-140.27,46.31-309.33-6.27
			c0,0-0.01,0-0.01,0"/>
	</g>
	<polygon class="st2" points="831.35,711.11 799.98,1286.22 167.34,1269.51 135.96,632.68 831.35,658.82 	"/>
	<path class="st3" d="M440.97,244.42c-63.25,8.21-106.81,87.4-104.23,151.13c1.02,25.25,11.56,49.06,22.9,71.64
		c48.51,96.65,115.14,184.16,195.4,256.64c-71.72-64.8-143.44-129.6-215.16-194.4c-49.96-45.14-105.63-92.76-172.87-96.2
		c-41.22-2.11-87.77,19.28-97.28,59.44c-8.41,35.5,14.92,71.4,43.63,93.92c66.14,51.88,153.83,55.2,233.14,69.78
		c60.09,11.05,154.29,61.52,192.7-6.54c31.78-56.31,17.02-158.63,2.56-217.73C537.67,415.47,521.2,234.01,440.97,244.42z"/>
	<line class="st4" x1="504.36" y1="653.1" x2="483.66" y2="1272.3"/>
	<line class="st4" x1="151.9" y1="943.13" x2="816.9" y2="981.74"/>
	<path class="st5" d="M658.57,403.3c0,0-50.03-26.23-62.63-16.19c-12.6,10.04,1.13,55.61,1.13,55.61s33.01,15.82,55.32,0
		C674.7,426.89,679.62,420.08,658.57,403.3z"/>
	<path class="st6" d="M896.19,449.53c0,0,59.62,70.01,101.11-23.09"/>
	<path class="st7" d="M1574.09,600.3c0,0-192.05,265.8-442.39,248.79c-2.93-64.01-2.93-64.01-2.93-64.01s199.51,64.79,400.62-251.7
		C1574.09,584.57,1574.09,600.3,1574.09,600.3z"/>
	<path class="st8" d="M1439.24,402.16c9.44,23.93,9.53,52.7-4.88,74.02c-14.41,21.31-45.1,31.84-67.57,19.3
		c32.08,3.91,60.26,29.86,66.79,61.51c6.53,31.65-9.09,66.64-37.01,82.92c34.58,25.28,66.39,61.25,67.25,104.07
		c0.86,42.82-45.08,85.41-83.85,67.21c14.47,17.48,10.96,44.92-2.71,63.02c-14.02,18.55-36.17,29.08-58.05,36.79
		c-24.79,8.74-50.53,14.58-76.66,17.43c-33.98,3.7-72.57,3.49-101.63-16.18c-24.84-16.82-39.52-51.42-25.86-78.13
		c-19.03,13.41-47.84,2.85-59.82-17.11c-11.98-19.96-10.46-45.44-3.62-67.69c7.08-23.04,20.88-54.11,38.14-78.02
		c11.2-15.52,2.39-36.94-16.3-41.06c-6.36-1.4-12.43-3.83-17.67-8.88c-37.64-36.25-9.44-286.52,134.63-203.65
		c36.03,20.72,1.75-111.35,40.07-127.43c52.68-22.1,95.3,29.85,98.01,77.35C1331.16,414.38,1417.92,348.07,1439.24,402.16z"/>
	<path class="st8" d="M777.06,1720.31c0,0,0.13-30.47,23.57-49.21"/>
	<path class="st8" d="M808.18,1726.53c0,0,0.13-30.47,23.57-49.21"/>
</g>
</svg>
