<?xml version="1.0" encoding="utf-8"?>
<!-- Generator: Adobe Illustrator 25.3.1, SVG Export Plug-In . SVG Version: 6.00 Build 0)  -->
<svg version="1.1" id="Layer_1" xmlns="http://www.w3.org/2000/svg" xmlns:xlink="http://www.w3.org/1999/xlink" x="0px" y="0px"
	 viewBox="0 0 564.7 498.07" style="enable-background:new 0 0 564.7 498.07;" xml:space="preserve">
<style type="text/css">
	.st0{fill:#E0DBD7;}
	.st1{fill:none;stroke:#0B0B0B;stroke-width:1.0939;stroke-miterlimit:10;}
	.st2{fill:#FFFFFF;stroke:#0B0B0B;stroke-width:1.1464;stroke-linecap:round;stroke-linejoin:round;stroke-miterlimit:10;}
	.st3{fill:#0B0B0B;stroke:#0B0B0B;stroke-width:1.0939;stroke-miterlimit:10;}
	.st4{fill:#C4382C;stroke:#C4382C;stroke-width:0.2735;stroke-miterlimit:10;}
	.st5{fill:#FFFFFF;}
	.st6{fill:#4186C3;stroke:#4186C3;stroke-width:1.0939;stroke-miterlimit:10;}
	.st7{fill:#4186C3;stroke:#020202;stroke-width:1.0939;stroke-miterlimit:10;}
	.st8{fill:#FFFFFF;stroke:#0B0B0B;stroke-width:1.0939;stroke-linecap:round;stroke-linejoin:round;stroke-miterlimit:10;}
	.st9{fill:#FFFFFF;stroke:#0B0B0B;stroke-width:1.0939;stroke-miterlimit:10;}
	.st10{fill:none;stroke:#0B0B0B;stroke-width:1.0939;stroke-linecap:round;stroke-linejoin:round;stroke-miterlimit:10;}
	.st11{fill:#0B0B0B;}
	.st12{fill:none;stroke:#C4382C;stroke-width:1.0939;stroke-miterlimit:10;}
	.st13{fill:#E0DBD7;stroke:#0B0B0B;stroke-width:1.0939;stroke-miterlimit:10;}
	.st14{fill:none;stroke:#0B0B0B;stroke-width:1.3673;stroke-miterlimit:10;}
	.st15{fill:none;stroke:#0B0B0B;stroke-width:1.061;stroke-miterlimit:10;}
	.st16{fill:#FFFFFF;stroke:#0B0B0B;stroke-width:1.3673;stroke-miterlimit:10;}
	.st17{fill:#4186C3;}
	.st18{fill:#C4382C;}
	.st19{fill:none;stroke:#F6F7F8;stroke-width:1.061;stroke-miterlimit:10;}
	.st20{fill:#4186C3;stroke:#0B0B0B;stroke-width:0.8204;stroke-miterlimit:10;}
	.st21{fill:#0B0B0B;stroke:#0B0B0B;stroke-width:1.061;stroke-miterlimit:10;}
	.st22{fill:none;stroke:#F6F7F8;stroke-width:1.1001;stroke-miterlimit:10;}
	.st23{fill:#FFFFFF;stroke:#0B0B0B;stroke-width:0.8204;stroke-miterlimit:10;}
	.st24{fill:none;stroke:#0B0B0B;stroke-width:0.9171;stroke-miterlimit:10;}
	.st25{fill:#FFFFFF;stroke:#0B0B0B;stroke-width:0.9171;stroke-miterlimit:10;}
	.st26{fill:#C4382C;stroke:#020202;stroke-width:0.9171;stroke-miterlimit:10;}
	.st27{fill:none;stroke:#FFFFFF;stroke-width:6.1907;stroke-miterlimit:10;}
	.st28{fill:#0B0B0B;stroke:#0B0B0B;stroke-width:0.9171;stroke-miterlimit:10;}
	.st29{fill:#0B0B0B;stroke:#0B0B0B;stroke-width:0.8895;stroke-miterlimit:10;}
	.st30{fill:none;stroke:#0B0B0B;stroke-width:1.0042;stroke-miterlimit:10;}
	.st31{fill:#4186C3;stroke:#0C0C0C;stroke-width:1.0939;stroke-miterlimit:10;}
	.st32{fill:#0B0B0B;stroke:#0B0B0B;stroke-width:0.9739;stroke-miterlimit:10;}
	.st33{fill:none;stroke:#F6F7F8;stroke-width:1.0939;stroke-miterlimit:10;}
	.st34{fill:#FFFFFF;stroke:#FFFFFF;stroke-width:1.0939;stroke-miterlimit:10;}
	.st35{fill:#0B0B0B;stroke:#0B0B0B;stroke-width:1.2997;stroke-miterlimit:10;}
	.st36{fill:#0B0B0B;stroke:#0B0B0B;stroke-width:1.2605;stroke-miterlimit:10;}
	.st37{fill:none;stroke:#0B0B0B;stroke-width:1.394;stroke-miterlimit:10;}
	.st38{fill:none;stroke:#0B0B0B;stroke-width:1.0427;stroke-miterlimit:10;}
	.st39{fill:#FFFFFF;stroke:#0B0B0B;stroke-width:1.394;stroke-miterlimit:10;}
	.st40{fill:#0C0C0C;}
	.st41{fill:none;stroke:#0C0C0C;stroke-width:1.0939;stroke-miterlimit:10;}
	.st42{fill:none;stroke:#0C0C0C;stroke-width:1.3528;stroke-miterlimit:10;}
	.st43{fill:none;stroke:#0B0B0B;stroke-width:1.3528;stroke-miterlimit:10;}
	.st44{fill:none;stroke:#0C0C0C;stroke-width:1.0939;stroke-linecap:round;stroke-linejoin:round;stroke-miterlimit:10;}
	.st45{fill:none;stroke:#171616;stroke-width:1.2438;stroke-miterlimit:10;}
	.st46{fill:none;stroke:#171616;stroke-width:1.0939;stroke-miterlimit:10;}
	.st47{fill:none;stroke:#000000;stroke-width:4.0772;stroke-miterlimit:10;}
	.st48{fill:none;stroke:#0B0B0B;stroke-width:1.169;stroke-miterlimit:10;}
	.st49{fill:#FFFFFF;stroke:#0B0B0B;stroke-width:1.2251;stroke-linecap:round;stroke-linejoin:round;stroke-miterlimit:10;}
	.st50{fill:#0B0B0B;stroke:#0B0B0B;stroke-width:1.169;stroke-miterlimit:10;}
	.st51{fill:#C4382C;stroke:#C4382C;stroke-width:0.2922;stroke-miterlimit:10;}
	.st52{fill:#4186C3;stroke:#4186C3;stroke-width:1.169;stroke-miterlimit:10;}
	.st53{fill:#4186C3;stroke:#020202;stroke-width:1.169;stroke-miterlimit:10;}
	.st54{fill:#FFFFFF;stroke:#0B0B0B;stroke-width:1.169;stroke-linecap:round;stroke-linejoin:round;stroke-miterlimit:10;}
	.st55{fill:#FFFFFF;stroke:#0B0B0B;stroke-width:1.169;stroke-miterlimit:10;}
	.st56{fill:none;stroke:#0B0B0B;stroke-width:1.169;stroke-linecap:round;stroke-linejoin:round;stroke-miterlimit:10;}
	.st57{fill:none;stroke:#C4382C;stroke-width:1.169;stroke-miterlimit:10;}
	.st58{fill:#E0DBD7;stroke:#0B0B0B;stroke-width:1.169;stroke-miterlimit:10;}
	.st59{fill:none;stroke:#0B0B0B;stroke-width:1.4612;stroke-miterlimit:10;}
	.st60{fill:none;stroke:#F6F7F8;stroke-width:1.1338;stroke-miterlimit:10;}
	.st61{fill:none;stroke:#0B0B0B;stroke-width:1.1338;stroke-miterlimit:10;}
	.st62{fill:#4186C3;stroke:#0B0B0B;stroke-width:0.8767;stroke-miterlimit:10;}
	.st63{fill:#0B0B0B;stroke:#0B0B0B;stroke-width:1.1338;stroke-miterlimit:10;}
	.st64{fill:none;stroke:#F6F7F8;stroke-width:1.1757;stroke-miterlimit:10;}
	.st65{fill:#FFFFFF;stroke:#0B0B0B;stroke-width:0.8767;stroke-miterlimit:10;}
	.st66{fill:none;stroke:#0B0B0B;stroke-width:0.9801;stroke-miterlimit:10;}
	.st67{fill:#FFFFFF;stroke:#0B0B0B;stroke-width:0.9801;stroke-miterlimit:10;}
	.st68{fill:#C4382C;stroke:#020202;stroke-width:0.9801;stroke-miterlimit:10;}
	.st69{fill:none;stroke:#FFFFFF;stroke-width:6.6158;stroke-miterlimit:10;}
	.st70{fill:#0B0B0B;stroke:#0B0B0B;stroke-width:0.9801;stroke-miterlimit:10;}
	.st71{fill:#0B0B0B;stroke:#0B0B0B;stroke-width:0.9506;stroke-miterlimit:10;}
	.st72{fill:none;stroke:#0B0B0B;stroke-width:1.0731;stroke-miterlimit:10;}
	.st73{fill:#4186C3;stroke:#0C0C0C;stroke-width:1.169;stroke-miterlimit:10;}
	.st74{fill:#0B0B0B;stroke:#0B0B0B;stroke-width:1.0408;stroke-miterlimit:10;}
	.st75{fill:none;stroke:#F6F7F8;stroke-width:1.169;stroke-miterlimit:10;}
	.st76{fill:#FFFFFF;stroke:#FFFFFF;stroke-width:1.169;stroke-miterlimit:10;}
	.st77{fill:#0B0B0B;stroke:#0B0B0B;stroke-width:1.3889;stroke-miterlimit:10;}
	.st78{fill:#0B0B0B;stroke:#0B0B0B;stroke-width:1.3471;stroke-miterlimit:10;}
	.st79{fill:none;stroke:#0B0B0B;stroke-width:1.4897;stroke-miterlimit:10;}
	.st80{fill:none;stroke:#0B0B0B;stroke-width:1.1143;stroke-miterlimit:10;}
	.st81{fill:#FFFFFF;stroke:#0B0B0B;stroke-width:1.4897;stroke-miterlimit:10;}
	.st82{fill:none;stroke:#0C0C0C;stroke-width:1.169;stroke-miterlimit:10;}
	.st83{fill:none;stroke:#0C0C0C;stroke-width:1.4457;stroke-miterlimit:10;}
	.st84{fill:none;stroke:#0B0B0B;stroke-width:1.4457;stroke-miterlimit:10;}
	.st85{fill:none;stroke:#0C0C0C;stroke-width:1.169;stroke-linecap:round;stroke-linejoin:round;stroke-miterlimit:10;}
	.st86{fill:#4186C3;stroke:#0B0B0B;stroke-width:1.169;stroke-miterlimit:10;}
	.st87{fill:none;stroke:#000000;stroke-width:1.0939;stroke-miterlimit:10;}
	.st88{fill:#C4382C;stroke:#0B0B0B;stroke-width:0.8767;stroke-miterlimit:10;}
</style>
<g>
	<line class="st48" x1="114.85" y1="206.98" x2="114.85" y2="14.43"/>
	<line class="st48" x1="114.85" y1="300.25" x2="114.85" y2="238.05"/>
	<line class="st48" x1="130.38" y1="222.52" x2="192.58" y2="222.52"/>
	<line class="st48" x1="37.11" y1="222.52" x2="99.31" y2="222.52"/>
	<line class="st48" x1="125.83" y1="211.53" x2="169.81" y2="167.55"/>
	<line class="st48" x1="59.88" y1="277.48" x2="103.86" y2="233.5"/>
	<line class="st48" x1="125.83" y1="233.5" x2="169.81" y2="277.48"/>
	<line class="st48" x1="59.88" y1="167.55" x2="103.86" y2="211.53"/>
	<line class="st48" x1="133.3" y1="214.76" x2="207.21" y2="183.68"/>
	<line class="st48" x1="22.48" y1="261.35" x2="96.39" y2="230.28"/>
	<line class="st48" x1="122.61" y1="240.97" x2="153.68" y2="314.88"/>
	<line class="st48" x1="76.01" y1="130.15" x2="107.09" y2="204.06"/>
	<line class="st48" x1="133.4" y1="230.03" x2="207.7" y2="260.14"/>
	<line class="st48" x1="21.99" y1="184.89" x2="96.29" y2="215"/>
	<line class="st48" x1="107.33" y1="241.07" x2="77.22" y2="315.37"/>
	<line class="st48" x1="152.47" y1="129.66" x2="122.36" y2="203.96"/>
	<line class="st48" x1="118.73" y1="242.16" x2="134.28" y2="320.8"/>
	<line class="st48" x1="95.41" y1="124.23" x2="110.96" y2="202.87"/>
	<line class="st48" x1="103.74" y1="239.18" x2="59.29" y2="305.89"/>
	<line class="st48" x1="170.4" y1="139.14" x2="125.95" y2="205.85"/>
	<line class="st48" x1="111.14" y1="242.19" x2="96.32" y2="320.98"/>
	<line class="st48" x1="133.37" y1="124.05" x2="118.55" y2="202.84"/>
	<line class="st48" x1="98.34" y1="233.85" x2="32.26" y2="279.24"/>
	<line class="st48" x1="197.43" y1="165.79" x2="131.35" y2="211.18"/>
	<line class="st48" x1="95.3" y1="218.16" x2="17.06" y2="200.7"/>
	<line class="st48" x1="212.63" y1="244.33" x2="134.39" y2="226.87"/>
	<line class="st48" x1="104.07" y1="205.64" x2="60.92" y2="138.07"/>
	<line class="st48" x1="168.77" y1="306.96" x2="125.62" y2="239.39"/>
	<line class="st48" x1="95.16" y1="226.17" x2="16.34" y2="240.81"/>
	<line class="st48" x1="213.35" y1="204.22" x2="134.53" y2="218.86"/>
	<line class="st48" x1="98.31" y1="211.22" x2="32.12" y2="166"/>
	<line class="st48" x1="197.57" y1="279.03" x2="131.38" y2="233.81"/>
	<circle class="st86" cx="114.73" cy="222.52" r="11.79"/>
</g>
<path class="st18" d="M324.94,260.96c0,0-17.95,32.39-29.29,30.69s-21.99-5.73-21.99-5.73l-12.12,22.87c0,0,36.61,15.72,43.07,10.87
	c6.47-4.85,17.79-15.86,17.79-15.86"/>
<path class="st48" d="M332.67,225.48c0,0-4.53,0.25-6.3-1.26c-1.76-1.51,1.26-12.6,1.26-12.6s-7.05-1.51-4.79-2.27
	c2.27-0.76,11.13-12.5,11.13-12.5"/>
<path class="st48" d="M334.43,201.29c0,0,0,5.79,5.79,3.02"/>
<polyline class="st55" points="303.37,387.07 282.82,441.67 320.11,460.03 346.85,401.55 "/>
<polyline class="st55" points="381.82,404.97 410.98,454.05 445.13,423.55 413.47,375.09 "/>
<path class="st18" d="M293.08,380.42c0,0,36.71-130.88,35.43-138.25s-7.26-16.43,5.98-17c13.23-0.57,26.89-6.23,26.89,0
	s40.12,52.69,46.1,86.69c5.98,33.99,11.52,52.69,27.32,55.53c-29.45,17.56-41.4,45.89-75.12,41.36
	C325.95,404.22,293.08,380.42,293.08,380.42z"/>
<path class="st17" d="M328.51,242.18c0,0,26.48,1.19,35.43-11.49c8.95-12.68,43.52,50.92,84.93,33.85
	c-5.55,32.87-17.93,43.96-17.93,43.96s-34.15,2.99-45.67-25.61c-11.52-28.6-17.07-46.95-25.61-41.83s-22.04,30.42-34.71,19.91
	C312.27,250.45,328.51,242.18,328.51,242.18z"/>
<path class="st48" d="M443.74,273.07c0,0,6.4,3.84,14.94,0"/>
<path class="st48" d="M443.74,278.62c0,0,8.96,5.55,11.95,0"/>
<path class="st48" d="M441.18,283.32c0,0,2.99,2.99,10.03,2.56"/>
<path class="st48" d="M439.04,288.86c0,0,5.98,5.98,12.17,5.55"/>
<path class="st48" d="M436.91,294.44c0,0,1.07,5.95,8.22,5.53"/>
<path class="st48" d="M434.78,303.8c0,0,4.27,6.16,8.96,4.79"/>
<path class="st60" d="M331.31,241.25c0,0-3.84-16.8-1.6-11.04"/>
<path class="st60" d="M335,240.35c0,0-3.84-16.8-1.6-11.04"/>
<path class="st60" d="M338.52,240.35c0,0-3.84-16.8-1.6-11.04"/>
<path class="st60" d="M342.74,239.54c0,0-3.84-16.8-1.6-11.04"/>
<path class="st60" d="M346.81,238.56c0,0-3.84-16.8-1.6-11.04"/>
<path class="st60" d="M351.47,237.74c0,0-3.84-16.8-1.6-11.04"/>
<path class="st60" d="M356.79,236.54c0,0-3.84-16.8-1.6-11.04"/>
<path class="st61" d="M344.51,332.72l2.34-57.94c0,0,2.77-21.13,21.66-11.84c18.89,9.28,5.12,75.23,5.12,75.23L344.51,332.72z"/>
<polygon class="st88" points="344.51,332.72 335,331.44 333.85,339.45 381.82,349.69 384.48,338.17 "/>
<path class="st63" d="M296.67,465.67c-1.62,5.44-5.73,15.47-8.19,14.8c-7.44-2.03-7.44-2.03-3.56-7.82c0.82-1.23-5.3,2.97-5.3,2.97
	c-10.3-5.07-35.21-27.32-27.53-21.56c7.68,5.76,40.3,9.46,40.3,9.46L296.67,465.67L296.67,465.67z"/>
<line class="st50" x1="292.38" y1="464.19" x2="298.91" y2="449.75"/>
<line class="st50" x1="296.67" y1="465.67" x2="306.71" y2="453.59"/>
<path class="st63" d="M439.12,449.57c4.11,3.91,11.19,12.12,9.48,14.01c-5.18,5.71-5.18,5.71-8.59-0.38
	c-0.72-1.29,0.24,6.07,0.24,6.07c-5.11,3.83-17.04,9.29-25.11,12.64c-6.42,2.67-10.41,4-6.59,2.13c8.62-4.24,26.7-31.63,26.7-31.63
	L439.12,449.57L439.12,449.57z"/>
<line class="st50" x1="435.86" y1="452.72" x2="425.95" y2="440.35"/>
<line class="st50" x1="439.12" y1="449.57" x2="432.91" y2="435.14"/>
<path class="st48" d="M333.83,190.49c1.69-0.41,5.65,1.11,3.47,2.87c-3.67,3.18-3.34-5.31-2.3-8.14c1.03-2.83,4-4.83,7.01-4.74
	c0.7,0.02,1.42,0.16,1.99,0.57c0.48,0.35,0.81,0.87,1.07,1.39c1.11,2.21,1.31,4.85,0.54,7.2c-0.53-0.57-0.39-1.53,0.1-2.13
	c0.49-0.6,1.25-0.91,1.99-1.14c2-0.64,4.26-0.88,6.15,0.03c1.89,0.91,3.17,3.28,2.32,5.2c0.51-1.72,2.05-2.99,3.73-3.62
	c1.68-0.63,3.52-0.71,5.31-0.72c0.95-0.01,1.94,0,2.82,0.38c2.62,1.11,3,4.61,2.98,7.46c-0.01,0.99-0.08,2.12-0.84,2.75
	c-0.76,0.63-2.32-0.01-1.99-0.95c2.24-0.51,4.65,0.55,6.13,2.31c1.48,1.76,2.11,4.11,2.17,6.4c0.1,3.78-2.13,8.31-6.28,7.71
	c-0.83-0.12-1.61-0.47-2.29-0.96c-1.46-1.06-2.36-2.55-3.02-4.16c-0.42-1.02,0.51-2.12,1.57-1.82c1.12,0.32,2.15,1.08,2.82,2.04
	c1.11,1.59,1.4,3.63,1.33,5.57c-0.11,3.1-1.07,6.16-2.74,8.76c-1.24,1.93-3.12,3.73-5.41,3.78c-1.91,0.04-3.68-1.21-4.71-2.82
	c-1.03-1.61-1.42-3.55-1.63-5.45c-3.24-0.76-5.15-4.08-6.24-7.23c-0.68-1.97-1.03-4.53,0.62-5.8c1.34-1.03,3.6-0.37,4.17,1.22
	c1.72,4.41-7.33,0.13-10.36-1.81c-3.14-2.01-4.95-5.06-6.01-8.54C333.64,200.47,329.25,191.6,333.83,190.49z"/>
<polygon class="st11" points="222.54,254.47 224.52,290.77 264.45,289.72 266.43,249.52 222.54,251.17 "/>
<path class="st48" d="M225.55,229.59c2.99-2.7,8.57-1.55,11.53,1.19c1.17,1.08,1.88,2.57,2.5,4.04c2.65,6.29,4.12,13.08,4.31,19.9
	c-0.17-6.1-0.34-12.2-0.51-18.3c-0.12-4.25-0.12-8.87,2.47-12.24c1.59-2.07,4.52-3.42,6.84-2.23c2.05,1.05,2.82,3.64,2.72,5.94
	c-0.22,5.3-3.66,9.65-6.21,14.05c-1.93,3.34-3.37,9.93-8.21,8.98c-4.01-0.78-8.31-5.68-10.56-8.8
	C229.8,241.24,221.77,233.01,225.55,229.59z"/>
<line class="st60" x1="243.18" y1="250.81" x2="244.49" y2="289.9"/>
<line class="st64" x1="265.43" y1="269.12" x2="223.45" y2="271.55"/>
<path class="st55" d="M263.69,304.08c0,0-21.17,0.87-33.29-7.58c-12.12-8.45,25.8-7.31,29.41-6.49c3.61,0.82-3.6-8.22,0.73-9.44
	c4.33-1.22,11.45,9.04,11.45,9.04L263.69,304.08z"/>
<line class="st48" x1="17.06" y1="480.5" x2="552" y2="480.5"/>
</svg>
