<?xml version="1.0" encoding="utf-8"?>
<!-- Generator: Adobe Illustrator 25.3.1, SVG Export Plug-In . SVG Version: 6.00 Build 0)  -->
<svg version="1.1" id="Layer_1" xmlns="http://www.w3.org/2000/svg" xmlns:xlink="http://www.w3.org/1999/xlink" x="0px" y="0px"
	 viewBox="0 0 1443.01 742.66" style="enable-background:new 0 0 1443.01 742.66;" xml:space="preserve">
<style type="text/css">
	.st0{fill:#E0DBD7;}
	.st1{fill:none;stroke:#0B0B0B;stroke-width:1.0939;stroke-miterlimit:10;}
	.st2{fill:#FFFFFF;stroke:#0B0B0B;stroke-width:1.1464;stroke-linecap:round;stroke-linejoin:round;stroke-miterlimit:10;}
	.st3{fill:#0B0B0B;stroke:#0B0B0B;stroke-width:1.0939;stroke-miterlimit:10;}
	.st4{fill:#C4382C;stroke:#C4382C;stroke-width:0.2735;stroke-miterlimit:10;}
	.st5{fill:#FFFFFF;}
	.st6{fill:#4186C3;stroke:#4186C3;stroke-width:1.0939;stroke-miterlimit:10;}
	.st7{fill:#4186C3;stroke:#020202;stroke-width:1.0939;stroke-miterlimit:10;}
	.st8{fill:#FFFFFF;stroke:#0B0B0B;stroke-width:1.0939;stroke-linecap:round;stroke-linejoin:round;stroke-miterlimit:10;}
	.st9{fill:#FFFFFF;stroke:#0B0B0B;stroke-width:1.0939;stroke-miterlimit:10;}
	.st10{fill:none;stroke:#0B0B0B;stroke-width:1.0939;stroke-linecap:round;stroke-linejoin:round;stroke-miterlimit:10;}
	.st11{fill:#0B0B0B;}
	.st12{fill:none;stroke:#C4382C;stroke-width:1.0939;stroke-miterlimit:10;}
	.st13{fill:#E0DBD7;stroke:#0B0B0B;stroke-width:1.0939;stroke-miterlimit:10;}
	.st14{fill:none;stroke:#0B0B0B;stroke-width:1.3673;stroke-miterlimit:10;}
	.st15{fill:none;stroke:#0B0B0B;stroke-width:1.061;stroke-miterlimit:10;}
	.st16{fill:#FFFFFF;stroke:#0B0B0B;stroke-width:1.3673;stroke-miterlimit:10;}
	.st17{fill:#4186C3;}
	.st18{fill:#C4382C;}
	.st19{fill:none;stroke:#F6F7F8;stroke-width:1.061;stroke-miterlimit:10;}
	.st20{fill:#4186C3;stroke:#0B0B0B;stroke-width:0.8204;stroke-miterlimit:10;}
	.st21{fill:#0B0B0B;stroke:#0B0B0B;stroke-width:1.061;stroke-miterlimit:10;}
	.st22{fill:none;stroke:#F6F7F8;stroke-width:1.1001;stroke-miterlimit:10;}
	.st23{fill:#FFFFFF;stroke:#0B0B0B;stroke-width:0.8204;stroke-miterlimit:10;}
	.st24{fill:none;stroke:#0B0B0B;stroke-width:0.9171;stroke-miterlimit:10;}
	.st25{fill:#FFFFFF;stroke:#0B0B0B;stroke-width:0.9171;stroke-miterlimit:10;}
	.st26{fill:#C4382C;stroke:#020202;stroke-width:0.9171;stroke-miterlimit:10;}
	.st27{fill:none;stroke:#FFFFFF;stroke-width:6.1907;stroke-miterlimit:10;}
	.st28{fill:#0B0B0B;stroke:#0B0B0B;stroke-width:0.9171;stroke-miterlimit:10;}
	.st29{fill:#0B0B0B;stroke:#0B0B0B;stroke-width:0.8895;stroke-miterlimit:10;}
	.st30{fill:none;stroke:#0B0B0B;stroke-width:1.0042;stroke-miterlimit:10;}
	.st31{fill:#4186C3;stroke:#0C0C0C;stroke-width:1.0939;stroke-miterlimit:10;}
	.st32{fill:#0B0B0B;stroke:#0B0B0B;stroke-width:0.9739;stroke-miterlimit:10;}
	.st33{fill:none;stroke:#F6F7F8;stroke-width:1.0939;stroke-miterlimit:10;}
	.st34{fill:#FFFFFF;stroke:#FFFFFF;stroke-width:1.0939;stroke-miterlimit:10;}
	.st35{fill:#0B0B0B;stroke:#0B0B0B;stroke-width:1.2997;stroke-miterlimit:10;}
	.st36{fill:#0B0B0B;stroke:#0B0B0B;stroke-width:1.2605;stroke-miterlimit:10;}
	.st37{fill:none;stroke:#0B0B0B;stroke-width:1.394;stroke-miterlimit:10;}
	.st38{fill:none;stroke:#0B0B0B;stroke-width:1.0427;stroke-miterlimit:10;}
	.st39{fill:#FFFFFF;stroke:#0B0B0B;stroke-width:1.394;stroke-miterlimit:10;}
	.st40{fill:#0C0C0C;}
	.st41{fill:none;stroke:#0C0C0C;stroke-width:1.0939;stroke-miterlimit:10;}
	.st42{fill:none;stroke:#0C0C0C;stroke-width:1.3528;stroke-miterlimit:10;}
	.st43{fill:none;stroke:#0B0B0B;stroke-width:1.3528;stroke-miterlimit:10;}
	.st44{fill:none;stroke:#0C0C0C;stroke-width:1.0939;stroke-linecap:round;stroke-linejoin:round;stroke-miterlimit:10;}
	.st45{fill:none;stroke:#171616;stroke-width:1.2438;stroke-miterlimit:10;}
	.st46{fill:none;stroke:#171616;stroke-width:1.0939;stroke-miterlimit:10;}
	.st47{fill:none;stroke:#000000;stroke-width:4.0772;stroke-miterlimit:10;}
	.st48{fill:none;stroke:#0B0B0B;stroke-width:1.169;stroke-miterlimit:10;}
	.st49{fill:#FFFFFF;stroke:#0B0B0B;stroke-width:1.2251;stroke-linecap:round;stroke-linejoin:round;stroke-miterlimit:10;}
	.st50{fill:#0B0B0B;stroke:#0B0B0B;stroke-width:1.169;stroke-miterlimit:10;}
	.st51{fill:#C4382C;stroke:#C4382C;stroke-width:0.2922;stroke-miterlimit:10;}
	.st52{fill:#4186C3;stroke:#4186C3;stroke-width:1.169;stroke-miterlimit:10;}
	.st53{fill:#4186C3;stroke:#020202;stroke-width:1.169;stroke-miterlimit:10;}
	.st54{fill:#FFFFFF;stroke:#0B0B0B;stroke-width:1.169;stroke-linecap:round;stroke-linejoin:round;stroke-miterlimit:10;}
	.st55{fill:#FFFFFF;stroke:#0B0B0B;stroke-width:1.169;stroke-miterlimit:10;}
	.st56{fill:none;stroke:#0B0B0B;stroke-width:1.169;stroke-linecap:round;stroke-linejoin:round;stroke-miterlimit:10;}
	.st57{fill:none;stroke:#C4382C;stroke-width:1.169;stroke-miterlimit:10;}
	.st58{fill:#E0DBD7;stroke:#0B0B0B;stroke-width:1.169;stroke-miterlimit:10;}
	.st59{fill:none;stroke:#0B0B0B;stroke-width:1.4612;stroke-miterlimit:10;}
	.st60{fill:none;stroke:#F6F7F8;stroke-width:1.1338;stroke-miterlimit:10;}
	.st61{fill:none;stroke:#0B0B0B;stroke-width:1.1338;stroke-miterlimit:10;}
	.st62{fill:#4186C3;stroke:#0B0B0B;stroke-width:0.8767;stroke-miterlimit:10;}
	.st63{fill:#0B0B0B;stroke:#0B0B0B;stroke-width:1.1338;stroke-miterlimit:10;}
	.st64{fill:none;stroke:#F6F7F8;stroke-width:1.1757;stroke-miterlimit:10;}
	.st65{fill:#FFFFFF;stroke:#0B0B0B;stroke-width:0.8767;stroke-miterlimit:10;}
	.st66{fill:none;stroke:#0B0B0B;stroke-width:0.9801;stroke-miterlimit:10;}
	.st67{fill:#FFFFFF;stroke:#0B0B0B;stroke-width:0.9801;stroke-miterlimit:10;}
	.st68{fill:#C4382C;stroke:#020202;stroke-width:0.9801;stroke-miterlimit:10;}
	.st69{fill:none;stroke:#FFFFFF;stroke-width:6.6158;stroke-miterlimit:10;}
	.st70{fill:#0B0B0B;stroke:#0B0B0B;stroke-width:0.9801;stroke-miterlimit:10;}
	.st71{fill:#0B0B0B;stroke:#0B0B0B;stroke-width:0.9506;stroke-miterlimit:10;}
	.st72{fill:none;stroke:#0B0B0B;stroke-width:1.0731;stroke-miterlimit:10;}
	.st73{fill:#4186C3;stroke:#0C0C0C;stroke-width:1.169;stroke-miterlimit:10;}
	.st74{fill:#0B0B0B;stroke:#0B0B0B;stroke-width:1.0408;stroke-miterlimit:10;}
	.st75{fill:none;stroke:#F6F7F8;stroke-width:1.169;stroke-miterlimit:10;}
	.st76{fill:#FFFFFF;stroke:#FFFFFF;stroke-width:1.169;stroke-miterlimit:10;}
	.st77{fill:#0B0B0B;stroke:#0B0B0B;stroke-width:1.3889;stroke-miterlimit:10;}
	.st78{fill:#0B0B0B;stroke:#0B0B0B;stroke-width:1.3471;stroke-miterlimit:10;}
	.st79{fill:none;stroke:#0B0B0B;stroke-width:1.4897;stroke-miterlimit:10;}
	.st80{fill:none;stroke:#0B0B0B;stroke-width:1.1143;stroke-miterlimit:10;}
	.st81{fill:#FFFFFF;stroke:#0B0B0B;stroke-width:1.4897;stroke-miterlimit:10;}
	.st82{fill:none;stroke:#0C0C0C;stroke-width:1.169;stroke-miterlimit:10;}
	.st83{fill:none;stroke:#0C0C0C;stroke-width:1.4457;stroke-miterlimit:10;}
	.st84{fill:none;stroke:#0B0B0B;stroke-width:1.4457;stroke-miterlimit:10;}
	.st85{fill:none;stroke:#0C0C0C;stroke-width:1.169;stroke-linecap:round;stroke-linejoin:round;stroke-miterlimit:10;}
	.st86{fill:none;stroke:#000000;stroke-width:1.0939;stroke-miterlimit:10;}
</style>
<path class="st48" d="M799.87,429.26c0,0-2.34,0.1-5.34,0.13c-4.79,0.06-11.25-0.04-12.61-0.92c-2.21-1.44-0.84-17.29-0.84-17.29
	s-7.7-3.39-6.56-5.85c4.06-8.74,11.89-8.74,11.89-8.74"/>
<path class="st48" d="M787.41,406.77c0,0,3.61,4.53,6.42-1.25"/>
<line class="st48" x1="794.91" y1="442.28" x2="793.86" y2="429.55"/>
<line class="st48" x1="805.63" y1="417.88" x2="807.41" y2="442.89"/>
<polygon class="st49" points="788.77,461.23 792.57,442.89 816.33,434.16 816.99,435.91 "/>
<line class="st50" x1="1068.37" y1="702.85" x2="1059.51" y2="689.72"/>
<line class="st50" x1="1071.88" y1="699.98" x2="1066.87" y2="685.1"/>
<path class="st51" d="M1086.15,718.16c-9.71,6.11-32.5,13.97-41.56,17.15c-6.77,2.38-3.28-5.67,30.25-18.27l-9.92-13.64l7.97-7.28
	L1086.15,718.16z"/>
<path class="st48" d="M1024.76,444.52c0,0-2.06,0.08-4.71,0.12c-4.22,0.05-9.93-0.04-11.12-0.82c-1.95-1.27-0.74-15.25-0.74-15.25
	s-8.18-5.06-5.79-5.16c6.07-0.25,10.49-7.71,10.49-7.71"/>
<path class="st48" d="M1013.59,421.86c0,0,3.61,4.53,6.42-1.25"/>
<line class="st48" x1="1022.14" y1="461.58" x2="1020.04" y2="444.64"/>
<line class="st48" x1="1030.52" y1="441.31" x2="1032.54" y2="461.06"/>
<path class="st5" d="M1029.27,498.35c25.31,22.38,41.09,92.45,41.09,92.45h20.18c0,0,0,0-10.73-34.39
	c-23.51-75.34-42.88-83.33-42.88-83.33l-2.97-0.39c-17.32-0.5-17.51,16.27-17.51,16.27"/>
<path class="st5" d="M1043.81,517.52l-0.83,30.25l-3.17,11.29l-19.73,2.48c0,0-11.39-27.23-19.07-40.85c-7.68-13.62,0-35.87,0-35.87
	s17.83-17.25,17.58-22.7c-0.25-5.45-0.43-4.46,6.59-4.95c7.02-0.5,10.66-2.48,10.57,0c-0.09,2.48,3.13,17.1,4.05,17.91"/>
<path class="st48" d="M1022.23,547.77c0,0-18.85,5.15-27,0"/>
<path class="st52" d="M1019.37,628.95l-38.71,58.71l-21.66-10.66l13.85-57.9l3.33-11.99c0,0,8.42-30.32,15.42-47.15
	c2.08-5,3.18-11.13,3.63-17.48c1.07-15.03-1.51-31.26-3.36-36.48c-2.63-7.43,10.67-23.06,10.67-23.06l13.07,7.07
	c0,0-2.57,32.92,3.5,51.29l3.12,6.48c0,0,0,0,4.95,8.71c4.95,8.71,15.8-8.71,15.8-8.71l10.56,22.69
	c7.54,16.34,11.95,49.66,11.95,49.66l6.73,64.43l-23.5,5.49l-26.02-53.55l-5.03-11.38c0,0-5.1-10.72-9.19-24.63
	c-2.74-9.33-5.03-20.09-5.03-30.02"/>
<polyline class="st48" points="997.66,490 1006.81,494.1 1006.81,531.23 995.23,527.26 "/>
<polygon class="st53" points="959.01,669.37 956.38,677.04 984.36,691.64 988.32,685.07 "/>
<polygon class="st53" points="1044.76,689.56 1048.04,696.97 1078.49,688.7 1076.94,681.19 "/>
<path class="st54" d="M1012.43,488.27c0,0-0.19-17.72,21.26-17.19l3.68,0.42l0,3.96l-3.21-0.42c-18.71-0.53-18.54,17.19-18.54,17.19
	L1012.43,488.27z"/>
<circle class="st55" cx="1014.06" cy="490.09" r="2.44"/>
<path class="st56" d="M1005.4,600.38l-4.29-0.99c-3.3-1.32-3.45-28.93-3.45-28.93h5.79c0,0,1.83,27.55,6.08,36.51"/>
<path class="st48" d="M1022.47,612.24l32.68-6.6c0,0,3.3,9.8,2.97,11.83s-32.68,6.65-32.68,6.65S1023.13,616.53,1022.47,612.24z"/>
<path class="st48" d="M1025.44,624.12c0,0,5.29,24.09,9.74,24.09c4.45,0,22.96-2.52,27.23-3.96c3.72-1.26-4.29-26.79-4.29-26.79"/>
<path class="st11" d="M1076.65,417.88c8.25,1.95,9.08-13.72,4.95-16.96c-8.07-6.32-1.8-21.74-21.7-17.76
	c-3.39-6.57-8.66-10.86-16.09-9.21c-7.43,1.65-7.65,9.21-7.65,9.21c-3.86-10.56-12.32-6.08-19.72,0.52
	c-3.02,2.69-2.3,7.24-3.09,7.92c-1.01,0.86-3.34,1.16-4.2,1.96c-9.58,8.93,0.49,15.21,0.49,15.21s-0.99,10.4,7.34,8.08
	c4.64-1.29,19.98-8.24,16.19,4.87c0,0,6.83,2.72,5.56,6.51c-1.27,3.8-5.56,1.94-5.56,1.94s-4.79,5.6-3.96,10.94s5.18,6.93,9.52,7.26
	c0,0,7.22,12.17,17.45,2.87c0,0,7.26,2.92,10.89-5.01c7.92,4.94,15.76-1.83,11.47-9.74"/>
<circle class="st57" cx="1033.98" cy="432.66" r="5.6"/>
<line class="st50" x1="959.41" y1="696.23" x2="965.93" y2="681.79"/>
<line class="st50" x1="963.69" y1="697.71" x2="973.73" y2="685.63"/>
<path class="st51" d="M958.54,715.92c-10.3-5.07-28.93-20.36-36.39-26.41c-5.57-4.52,3.11-5.77,31.41,16.19l6.42-15.6l10.37,2.97
	L958.54,715.92z"/>
<path class="st58" d="M1198.71,568.47l1.59-6.53L895.18,487.5l-1.59,6.53l23.89,5.83l-12.51,51.26l-24.53-5.98l-1.59,6.53
	l305.12,74.44l1.59-6.53l-26.54-6.47l12.51-51.26L1198.71,568.47z M994.73,518.7l28.83,7.03L1011.06,577l-28.83-7.03L994.73,518.7z
	 M975.69,568.37l-28.83-7.03l12.51-51.26l28.83,7.03L975.69,568.37z M1030.09,527.33l28.83,7.03l-12.51,51.26l-28.83-7.03
	L1030.09,527.33z M1065.45,535.96l28.83,7.03l-12.51,51.26l-28.83-7.03L1065.45,535.96z M1100.81,544.59l28.83,7.03l-12.51,51.26
	l-28.83-7.03L1100.81,544.59z M924.01,501.45l28.83,7.03l-12.51,51.26l-28.83-7.03L924.01,501.45z M1152.5,611.51l-28.83-7.03
	l12.51-51.26l28.83,7.03L1152.5,611.51z"/>
<path class="st58" d="M1074.46,590.81c0,0-3.49,6.38,0,8.69c5.84,3.87,16.65,7.06,16.1,0.36c-0.48-5.76-2.4-10.32-2.4-10.32"/>
<path class="st5" d="M1029.27,498.35c25.31,22.38,41.09,92.45,41.09,92.45h20.18c0,0,0,0-10.73-34.39
	c-11.75-37.67-22.47-58.5-30.26-69.92"/>
<g>
	<path class="st48" d="M1442.01,136.42c-15.64-59.24-76.35-94.59-135.59-78.95c-47.4,12.51-75.67,61.08-63.16,108.47
		c10.01,37.92,48.86,60.54,86.78,50.53c30.33-8.01,48.43-39.09,40.42-69.42c-6.41-24.27-31.27-38.75-55.54-32.34
		c-19.41,5.12-31,25.02-25.87,44.43c4.1,15.53,20.01,24.8,35.54,20.7c12.42-3.28,19.84-16.01,16.56-28.44
		c-2.62-9.94-12.81-15.87-22.75-13.25c-7.95,2.1-12.7,10.25-10.6,18.2"/>
	<path class="st48" d="M1195.31,135.6c-1.41,6.65,2.84,13.18,9.49,14.59c8.31,1.76,16.48-3.55,18.24-11.87
		c2.2-10.39-4.44-20.6-14.83-22.8c-12.99-2.75-25.75,5.55-28.5,18.54c-3.44,16.24,6.94,32.19,23.18,35.62
		c0,0,47.17,11.58,85.29-24.86"/>
	<path class="st48" d="M1422.2,141.49c-5.43,0.62-9.33,5.52-8.71,10.95c0.77,6.79,6.9,11.66,13.69,10.89
		c8.48-0.97,14.57-8.63,13.61-17.11c-1.21-10.6-10.78-18.22-21.38-17.01c0,0-31.12,2.54-46.96,32.52"/>
</g>
<path class="st48" d="M1145.31,232.92v-74.27c-4.89-82.22,57.79-152.83,140-157.73c62.78-3.74,120.16,24.05,156.69,69.67
	l0.42,663.78H3.4"/>
<line class="st48" x1="1183.85" y1="214.38" x2="1107.98" y2="214.38"/>
<line class="st48" x1="1165.31" y1="154.15" x2="1125.75" y2="154.15"/>
<circle class="st55" cx="1145.53" cy="290.34" r="57.48"/>
<path class="st17" d="M1209.87,515.35c0,0-17.95,32.39-29.29,30.69c-11.34-1.7-21.99-5.73-21.99-5.73l-12.12,22.87
	c0,0,36.61,15.72,43.07,10.87c6.47-4.85,17.79-15.86,17.79-15.86"/>
<path class="st48" d="M1217.6,479.86c0,0-4.53,0.25-6.3-1.26c-1.76-1.51,1.26-12.6,1.26-12.6s-7.05-1.51-4.79-2.27
	c2.27-0.76,11.13-12.5,11.13-12.5"/>
<path class="st48" d="M1219.36,455.68c0,0,0,5.79,5.79,3.02"/>
<polyline class="st55" points="1188.3,641.46 1167.75,696.06 1205.03,714.42 1231.77,655.94 "/>
<polyline class="st55" points="1266.75,659.35 1295.91,708.44 1330.06,677.94 1298.4,629.47 "/>
<path class="st17" d="M1178.01,634.81c0,0,36.71-130.88,35.43-138.25s-7.26-16.43,5.98-17c13.23-0.57,26.89-6.23,26.89,0
	c0,6.23,40.12,52.69,46.1,86.69c5.98,33.99,11.52,52.69,27.32,55.53c-29.45,17.56-41.4,45.89-75.12,41.36
	C1210.87,658.61,1178.01,634.81,1178.01,634.81z"/>
<path class="st18" d="M1213.43,496.56c0,0,26.48,1.19,35.43-11.49c8.95-12.68,43.52,50.92,84.93,33.85
	c-5.55,32.87-17.93,43.96-17.93,43.96s-34.15,2.99-45.67-25.61c-11.52-28.6-17.07-46.95-25.61-41.83
	c-8.54,5.12-22.04,30.42-34.71,19.91C1197.2,504.84,1213.43,496.56,1213.43,496.56z"/>
<path class="st48" d="M1328.67,527.46c0,0,6.4,3.84,14.94,0"/>
<path class="st48" d="M1328.67,533.01c0,0,8.96,5.55,11.95,0"/>
<path class="st48" d="M1326.11,537.7c0,0,2.99,2.99,10.03,2.56"/>
<path class="st48" d="M1323.97,543.25c0,0,5.98,5.98,12.16,5.55"/>
<path class="st48" d="M1321.84,548.82c0,0,1.07,5.95,8.22,5.53"/>
<path class="st48" d="M1319.7,558.18c0,0,4.27,6.16,8.96,4.79"/>
<path class="st60" d="M1216.24,495.63c0,0-3.84-16.8-1.6-11.04"/>
<path class="st60" d="M1219.92,494.74c0,0-3.84-16.8-1.6-11.04"/>
<path class="st60" d="M1223.45,494.74c0,0-3.84-16.8-1.6-11.04"/>
<path class="st60" d="M1227.67,493.92c0,0-3.84-16.8-1.6-11.04"/>
<path class="st60" d="M1231.74,492.95c0,0-3.84-16.8-1.6-11.04"/>
<path class="st60" d="M1236.4,492.12c0,0-3.84-16.8-1.6-11.04"/>
<path class="st60" d="M1241.71,490.93c0,0-3.84-16.8-1.6-11.04"/>
<path class="st61" d="M1229.44,587.11l2.34-57.94c0,0,2.77-21.13,21.66-11.84c18.89,9.28,5.12,75.23,5.12,75.23L1229.44,587.11z"/>
<polygon class="st62" points="1229.44,587.11 1219.92,585.83 1218.77,593.83 1266.75,604.08 1269.41,592.55 "/>
<path class="st63" d="M1181.59,720.05c-1.62,5.44-5.73,15.47-8.19,14.8c-7.44-2.03-7.44-2.03-3.56-7.82c0.82-1.23-5.3,2.97-5.3,2.97
	c-10.3-5.07-35.21-27.32-27.53-21.56c7.68,5.76,40.3,9.46,40.3,9.46L1181.59,720.05L1181.59,720.05z"/>
<line class="st50" x1="1177.31" y1="718.58" x2="1183.84" y2="704.13"/>
<line class="st50" x1="1181.59" y1="720.05" x2="1191.63" y2="707.97"/>
<path class="st63" d="M1324.05,703.96c4.11,3.91,11.19,12.12,9.48,14.01c-5.18,5.71-5.18,5.71-8.59-0.38
	c-0.72-1.29,0.24,6.07,0.24,6.07c-5.11,3.83-17.04,9.29-25.11,12.64c-6.42,2.67-10.41,4-6.59,2.13c8.62-4.24,26.7-31.63,26.7-31.63
	L1324.05,703.96L1324.05,703.96z"/>
<line class="st50" x1="1320.79" y1="707.1" x2="1310.88" y2="694.74"/>
<line class="st50" x1="1324.05" y1="703.96" x2="1317.83" y2="689.53"/>
<path class="st48" d="M1218.76,444.87c1.69-0.41,5.65,1.11,3.47,2.87c-3.67,3.18-3.34-5.31-2.3-8.14c1.03-2.83,4-4.83,7.01-4.74
	c0.7,0.02,1.42,0.16,1.99,0.57c0.48,0.35,0.81,0.87,1.07,1.39c1.11,2.21,1.31,4.85,0.54,7.2c-0.53-0.57-0.39-1.53,0.1-2.13
	c0.49-0.6,1.25-0.91,1.99-1.14c2-0.64,4.26-0.88,6.15,0.03c1.89,0.91,3.17,3.28,2.32,5.2c0.51-1.72,2.05-2.99,3.73-3.62
	s3.52-0.71,5.31-0.72c0.95-0.01,1.94,0,2.82,0.38c2.62,1.11,3,4.61,2.98,7.46c-0.01,0.99-0.08,2.12-0.84,2.75s-2.32-0.01-1.99-0.95
	c2.24-0.51,4.65,0.55,6.13,2.31c1.48,1.76,2.11,4.11,2.17,6.4c0.1,3.78-2.13,8.31-6.28,7.71c-0.83-0.12-1.61-0.47-2.29-0.96
	c-1.46-1.06-2.36-2.55-3.02-4.16c-0.42-1.02,0.51-2.12,1.57-1.82c1.12,0.32,2.15,1.08,2.82,2.04c1.11,1.59,1.4,3.63,1.33,5.57
	c-0.11,3.1-1.07,6.16-2.74,8.76c-1.24,1.93-3.12,3.73-5.41,3.78c-1.91,0.04-3.68-1.21-4.71-2.82c-1.03-1.61-1.42-3.55-1.63-5.45
	c-3.24-0.76-5.15-4.08-6.24-7.23c-0.68-1.97-1.03-4.53,0.62-5.8c1.34-1.03,3.6-0.37,4.17,1.22c1.72,4.41-7.33,0.13-10.36-1.81
	c-3.14-2.01-4.95-5.06-6.01-8.54C1218.57,454.85,1214.18,445.99,1218.76,444.87z"/>
<polygon class="st11" points="1107.46,508.86 1109.44,545.16 1149.38,544.11 1151.36,503.9 1107.46,505.55 "/>
<path class="st48" d="M1110.48,483.98c2.99-2.7,8.57-1.55,11.53,1.19c1.17,1.08,1.88,2.57,2.5,4.04c2.65,6.29,4.12,13.08,4.31,19.9
	c-0.17-6.1-0.34-12.2-0.51-18.3c-0.12-4.25-0.12-8.87,2.47-12.24c1.59-2.07,4.52-3.42,6.84-2.23c2.05,1.05,2.82,3.64,2.72,5.94
	c-0.22,5.3-3.66,9.65-6.21,14.05c-1.93,3.34-3.37,9.93-8.21,8.98c-4.01-0.78-8.31-5.68-10.56-8.8
	C1114.73,495.63,1106.69,487.4,1110.48,483.98z"/>
<line class="st60" x1="1128.11" y1="505.19" x2="1129.41" y2="544.28"/>
<line class="st64" x1="1150.36" y1="523.5" x2="1108.38" y2="525.94"/>
<path class="st65" d="M1148.62,558.47c0,0-21.17,0.87-33.29-7.58c-12.12-8.45,25.8-7.31,29.41-6.49c3.61,0.82-3.6-8.22,0.73-9.44
	c4.33-1.22,11.45,9.04,11.45,9.04L1148.62,558.47z"/>
<path class="st5" d="M794.06,538.33l-58.87,159.23h53.08c0,0,42.37-138.27,38.8-154.32c-3.57-7.14-3.57-7.14-3.57-7.14
	L794.06,538.33z"/>
<polyline class="st5" points="827.28,546.84 837.81,620.18 888.05,672.84 859.62,703.81 804,644.18 "/>
<path class="st18" d="M815.74,578.42c-28.27-3.8-55.83-23.75-55.83-23.75s21.64-77.29,23.45-87.75c0,0,30.92-33.21,38.16-34.34
	c5.16-0.81,29.29,36.11,34.3,64.61c0,0,4.64,61.56,0,75.39L815.74,578.42z"/>
<polygon class="st58" points="738,679.12 731.08,699.32 795.28,699.32 799.43,679.12 "/>
<polygon class="st58" points="847.78,696.96 857.89,710.18 898.23,676.63 883.47,664.44 "/>
<path class="st5" d="M769,521.86c0,0,39.01,20.83,45.38,21.11s43.42-4.71,43.42-4.71v14.68c0,0-38.73,5.26-44.4,4.7
	c-5.66-0.55-48.88-19.54-48.88-19.54L769,521.86z"/>
<polygon class="st58" points="856.62,613.81 865.34,641.21 805.24,648.96 797.31,623.37 "/>
<polyline class="st58" points="799.61,596.24 797.31,623.37 811.79,605.85 858.65,598.8 856.62,613.81 797.31,623.37 "/>
<line class="st49" x1="859.53" y1="592.26" x2="860.04" y2="588.49"/>
<polygon class="st58" points="811.79,605.85 809.16,609.24 797.31,623.37 797.31,623.37 799.94,596.24 "/>
<polyline class="st58" points="860.04,588.49 799.61,596.24 799.61,599.05 859.53,592.26 "/>
<path class="st67" d="M820.34,583.45c2.76,16.04,9.86,15.76,11.79,15.55c0,0,6.97,0.82,5.47-4.5c-0.5-1.78-2.63-7.83-2.63-7.83"/>
<polygon class="st58" points="873.92,605.85 878.31,622.82 865.34,641.21 856.62,613.81 860.04,588.49 "/>
<path class="st67" d="M804.55,511.28c10.71,27.66,11.96,71.33,11.96,71.33l19.61,4.33c0,0,0,0-2.57-30.1
	c-5.63-65.93-20.06-75.98-20.06-75.98l-2.36-0.86"/>
<path class="st68" d="M804.25,516.87l-7.31-48.07c0,0-1.08-17.83,15.94-13.2c17.03,4.63,16.2,61.11,16.2,61.11L804.25,516.87z"/>
<path class="st69" d="M779.79,536.1l11.01-66.97c0,0,18.63-20.22,36.48-32.12"/>
<path class="st58" d="M820.34,583.45c2.76,16.04,9.86,15.76,11.79,15.55c0,0,6.97,0.82,5.47-4.5c-0.5-1.78-2.63-7.83-2.63-7.83"/>
<path class="st54" d="M804.55,511.28c10.71,27.66,11.96,71.33,11.96,71.33l19.61,4.33c0,0,0,0-2.57-30.1
	c-5.63-65.93-20.06-75.98-20.06-75.98l-2.36-0.86"/>
<path class="st68" d="M804.25,516.87l-7.31-48.07c0,0-1.08-17.83,15.94-13.2c17.03,4.63,16.2,61.11,16.2,61.11L804.25,516.87z"/>
<line class="st70" x1="880.17" y1="710.18" x2="872.41" y2="698.11"/>
<line class="st70" x1="887.74" y1="702.45" x2="880.5" y2="691.2"/>
<path class="st71" d="M897.42,719.24c-7.68,5.79-26.17,13.96-33.51,17.26c-5.49,2.46-6.81-4.36,20.31-17.25l-9.02-15.44l9.96-6.45
	L897.42,719.24z"/>
<line class="st70" x1="755.68" y1="713.64" x2="757.52" y2="699.4"/>
<line class="st70" x1="766.45" y1="712.6" x2="768.16" y2="699.32"/>
<path class="st71" d="M763.04,731.67c-9.61-0.52-29.01-6.17-36.75-8.38c-5.79-1.65-2.41-7.72,26.65-0.11l3.05-17.62l11.78,1.48
	L763.04,731.67z"/>
<path class="st5" d="M788.16,394.75c0,0-6.28-4.62,1.73-8.66c9.32-4.7,12.58,0.74,19.01,2.23c6.44,1.49,4.45-5.83,17.43,2.64
	c9.78,6.38,5.31,19.12-1.62,18.51c-6.93-0.61-5.04,21.96-11.7,18.76c-3.31-1.59-12.19-7.52-8.46-10.23c8.7-6.3,2.32-9.17,1.07-8.55
	c-2.47,1.24-4.29-2.4,0.02-3.08c6.19-0.97,12.35-12.3,0.5-7.3C788.4,406.56,788.16,394.75,788.16,394.75z"/>
<path class="st68" d="M837.97,390.22c-14.53-5.4,32.38-21.86,26.3-24.46s-51.31,10.26-61.32,13.24c0,0-2.02-4.44-4.94-1.27
	c-2.91,3.17-7.15,7.1,8.45,12.24c15.6,5.14,31.21,10.96,31.21,10.96S851.74,395.34,837.97,390.22z"/>
<circle class="st5" cx="819.09" cy="391.75" r="8.03"/>
<g>
	<line class="st50" x1="699.45" y1="712.88" x2="689.2" y2="684.04"/>
	<line class="st50" x1="702.96" y1="710.65" x2="696.41" y2="680.64"/>
	<line class="st50" x1="647.39" y1="720.45" x2="648.61" y2="686.49"/>
	<line class="st50" x1="651.51" y1="719.83" x2="657.61" y2="689.73"/>
	<path class="st17" d="M696.19,568.69c-6.82,9.43-24.59,39.6-24.59,39.6l-25.22-13.38L667,546.16l-10.49-34.03"/>
	<path class="st17" d="M700.65,558.6c0,0,18.7,73.28,59.8,101.02c15.2,10.26-59.48,19.02-74.53,25.33
		c-15.05,6.31-37.97,16.35-58.49,9.46c-20.52-6.88-25.31-7.74-25.31-7.74l25.66-130.19c0,0,8.21-68.82,16.76-74.56
		s11.97-4.59,11.97-4.59s21.44,1.53,28.28,15.68"/>
	<path class="st48" d="M650.06,460.75c-3.88,0.05-11.25-2.57-12.35-3.28c-1.79-1.16,1.46-11.47,1.46-11.47s-7,0.58-6.02-1.38
		c1.61-3.23,8.74-16.09,8.74-16.09"/>
	<path class="st48" d="M644.22,440.34c0,0,3.94,3.58,5.63-2.07"/>
	<line class="st72" x1="651.98" y1="476.3" x2="650.06" y2="460.75"/>
	<line class="st72" x1="659.68" y1="457.69" x2="661.53" y2="475.82"/>
	<path class="st73" d="M644.53,481.92c0,0,21.62-4.23,22,0.53c0.38,4.76-27.05,51.65-27.05,51.65s0,0,7.94-0.63
		c8.73-0.69-33.69,84.65-34.22,101.03C612.65,651.29,605.29,568.96,644.53,481.92z"/>
	<path class="st5" d="M662.54,454.08c0,0-10.99,7.55-25.73-0.52c-12.5-6.83-18.58,69.67-59.31,64.08
		c12.53,27.91,26.09,34.91,26.09,34.91s31.03-5.24,34.65-33.31s3.5-34.53,12.27-31.96c8.77,2.58,30.93,12.67,36.25-1.47
		C698,455.91,662.54,454.08,662.54,454.08z"/>
	<polygon class="st73" points="629.69,607.85 629.69,655.72 679.09,652.08 679.09,605.42 	"/>
	<path class="st48" d="M584.7,524.53c0,0-6.61,5.56-9.79,5.42"/>
	<path class="st48" d="M585.75,528.3c0,0-6.24,4.13-8.94,5.22"/>
	<path class="st48" d="M589.2,532.69c0,0-4.99,4.94-8.21,4.8"/>
	<path class="st48" d="M593.21,538.02c0,0-6.75,6.08-8.51,6"/>
	<path class="st72" d="M597.22,543.5c0,0-8.16,2.83-8.73,5.38"/>
	<path class="st72" d="M600.97,548.06c0,0-6.43,4.88-5.72,5.97"/>
	<path class="st48" d="M581.06,521.12c0,0-9.79,2-10.29-0.45"/>
	<path class="st74" d="M639.87,432.19l14.43,5.39l7.47-3.79c0,0-2.38,5.73-2.09,7.6s-13.9,55.49,0.92,67.77
		c14.82,12.27,40.05-2.73,40.05-2.73s-7.27,5-8.41-10.45c-1.14-15.45-5-61.65-5.68-62.18c-0.68-0.54-0.68-0.54-0.68-0.54
		S654.3,402.04,639.87,432.19z"/>
	<path class="st17" d="M660.99,417.19c0,0,9.28-3.07,20.9-3.21c11.62-0.14,11.15-7.46,18.74,0.87c3.85,4.22-3.84,8.14-5.72,13.78
		s-7.27,17.64-10.42,17.58C681.33,446.14,651.33,419.4,660.99,417.19z"/>
	<path class="st75" d="M663.07,423.67c0,0,7.11-5.59,4.88-2.78"/>
	<path class="st75" d="M660.79,420.86c0,0,8.54-5.57,5.79-2.75"/>
	<path class="st75" d="M665.75,427.5c0,0,6.43-6.65,4.54-3.8"/>
	<path class="st75" d="M668.11,429.84c0,0,6.59-6.34,4.6-3.09"/>
	<path class="st75" d="M670.92,432.99c0,0,5.42-6.28,3.91-3.43"/>
	<path class="st75" d="M673.59,435.92c0,0,6.43-6.65,4.54-3.8"/>
	<path class="st75" d="M675.96,438.26c0,0,6.59-6.34,4.6-3.09"/>
	<path class="st75" d="M679.63,441.23c0,0,5.16-6.49,3.77-3.59"/>
	<path class="st75" d="M682.89,443.77c0,0,4.07-7.23,3.15-4.14"/>
	<g>
		<polygon class="st11" points="571.56,546.49 575.32,579.82 651.08,578.85 654.83,541.94 571.56,543.46 		"/>
		<path class="st48" d="M593.62,523.65c2.74-2.48,7.87-1.42,10.58,1.09c1.07,1,1.73,2.36,2.3,3.7c2.43,5.77,3.78,12,3.96,18.27
			c-0.16-5.6-0.31-11.2-0.47-16.8c-0.11-3.9-0.11-8.15,2.26-11.24c1.46-1.9,4.15-3.14,6.28-2.05c1.88,0.97,2.59,3.34,2.5,5.46
			c-0.2,4.87-3.36,8.86-5.7,12.9c-1.77,3.06-3.09,9.12-7.54,8.25c-3.68-0.72-7.63-5.22-9.69-8.08
			C597.52,534.35,590.14,526.79,593.62,523.65z"/>
		<line class="st75" x1="610.25" y1="543.11" x2="611.45" y2="579"/>
		<line class="st75" x1="652.89" y1="561.07" x2="572.4" y2="562.17"/>
	</g>
	<path class="st5" d="M608.63,592.69c0,0-27.04-0.3-38.17-8.05c-11.13-7.76,23.68-6.71,26.99-5.95c3.31,0.75-3.31-7.55,0.67-8.67
		c3.98-1.12,10.51,8.3,10.51,8.3V592.69z"/>
	<path class="st73" d="M688.31,512.13c0,0,9.24,3.2,4.96,18.32c-4.28,15.12-24.69,59.38-32.33,61.8c-1.99,0.63-5.41,1.46-9.4,2.34
		c-11.36,2.52-46.52,10.83-46.52,10.83l2.58-29.42l37.08-17.64l14.76-32.41"/>
	<path class="st76" d="M702.96,710.65c2.98,4.27,7.83,12.96,5.94,14.34c-5.71,4.18-2.11,1.82-4.05-4.28
		c-0.41-1.29-9.77,8.41-9.77,8.41c-9.53,4.5-34.49,9.13-25.95,6.9c8.53-2.22,29.83-23.53,29.83-23.53L702.96,710.65L702.96,710.65z"
		/>
	<path class="st76" d="M651.51,719.83c1.01,5.11,1.94,15.02-0.34,15.52c-6.91,1.52-2.67,0.82-1.98-5.55
		c0.15-1.35-12.33,3.76-12.33,3.76c-10.53,0.28-35.24-5.55-26.53-4.14s36.79-9.51,36.79-9.51L651.51,719.83L651.51,719.83z"/>
</g>
<circle class="st11" cx="1077.61" cy="427.34" r="10.09"/>
<g>
	<path class="st55" d="M465.96,410.42c0,0-14.05,19.78-21,21.36s2.84,3.79,5.36,14.2c2.52,10.41-11.67,89.28-11.67,96.22
		s9.46,0.32,9.46,0.32l30.99-98.82l-1.27-26.9l-8.06,0l0.4-6.37H465.96"/>
	<line class="st50" x1="559.26" y1="699.82" x2="548.46" y2="684.4"/>
	<line class="st50" x1="565.45" y1="696.64" x2="554.84" y2="681.29"/>
	<path class="st78" d="M590.66,731.46c-12.76,4.8-41.16,8.51-52.47,10.06c-8.45,1.15-2.47-7.38,39.56-14.06l-20.29-28.18l13.22-5.81
		L590.66,731.46z"/>
	<path class="st55" d="M489.55,408.54c0,0,16.46-6.32,16.77,1.88s0,18.31,11.83,26.93c5.36,3.91,15.14,9.47,6.62,35.12
		c0,0,7.75,14.16,3.18,23.55c-2.31,4.76,3.08,10.8,2.11,17.04c-0.98,6.32-3.02,9.31-2.48,9.75c5.08,4.13,2.6,16.1,0.66,19.7
		c-2.21,4.1-76.34,1.26-80.13,0c-1.48-0.49-4.28-3.72-0.79-16.69c0.11-0.41,0.69-1.53,0.73-1.96c0.07-0.71-0.53-2.31-0.53-5.04
		c0-24.04,4.53-24.08,7.53-24.26c0,0-1.72-1.65-2-2.42c-1.79-5.01-1.72-29.2,6.48-35.45c0.55-0.42,0.18-4.51,0.36-5.17
		c1.11-4.21,2.94-1.31,4.83-3.33c2.52-5.36,7.67-1.58,11.14-10.41S470.72,413.61,489.55,408.54z"/>
	<path class="st48" d="M459.91,456.69c0,0,20.6,7,31.38,3.38"/>
	<path class="st48" d="M455.06,494.56c0,0,19.12,3.44,26.38,1.54"/>
	<path class="st48" d="M477.84,416.79h-4.74c-0.91,0-6.13-0.09-6.37,0.79c-0.77,2.84,5.05,14.71,3.98,16.61
		c-1.78,3.15-4.58,5.68-4.76,12.62"/>
	<path class="st48" d="M473.5,524.48c0,0-17.84,2.6-25.97-0.83"/>
	<path class="st48" d="M466.09,385.07c0,0,3.65,4.9,6.81-1.09"/>
	<line class="st80" x1="469.78" y1="416.79" x2="470.18" y2="410.42"/>
	<path class="st48" d="M493.53,407.23c0,0-8.79-7.89,4.33-23.25c10.69-12.52-11.31-24.46-11.31-24.46s-27.19-18.16-30.23,14.66v1.87
		c0,0,0.99,9.1-4,16.29c-1.44,2.07,8.09,3.65,8.09,3.65s-2.02,10.67-0.01,12.08c1.23,0.86,7.25,1.15,11.7,1.25
		c2.79,0.06,4.97,0.04,4.97,0.04"/>
	<path class="st48" d="M486.09,381.93c0,0,4.93,0.41,2.79,6.91c-2.56,7.8-5.59,2.09-5.59,2.09"/>
	<circle class="st11" cx="485.31" cy="389.06" r="1.05"/>
	<path class="st11" d="M460.37,395.01c0,0,23.16-13.3,23.75-4.07c0.59,9.22,7.83,2.36,7.83,2.36s-2.72,23.34-29.14,17.54
		C452.28,408.52,460.37,395.01,460.37,395.01z"/>
	<line class="st50" x1="418.33" y1="691.9" x2="422.18" y2="673.47"/>
	<line class="st50" x1="424.88" y1="694.25" x2="428.82" y2="676"/>
	<path class="st18" d="M489.22,622.91l-25.79,71.33L417.5,680l16.45-68.8l3.96-14.24c0,0,8.84-33.06,17.15-53.06l68.42,0.74
		l42.74,141.02l-44.7,4.56l-28.34-58.34l-5.97-13.52c0,0-6.06-12.73-10.92-29.27c-3.26-11.08-5.98-23.86-5.98-35.67"/>
	<path class="st78" d="M416.74,736.45c-12.24-6.02-34.37-24.19-43.23-31.38c-6.62-5.37,3.7-6.85,37.32,19.23l6.67-34.08l13.28,5.67
		L416.74,736.45z"/>
	<g>
		<polygon class="st11" points="401.77,628.83 416.08,654.39 543.32,582.66 526.48,548.77 399.85,625.4 		"/>
		<path class="st48" d="M465.62,552.66c-4.66-1.07-9.79,3.37-11.26,7.93c-0.58,1.8-0.46,3.75-0.25,5.64
			c0.9,8.06,3.32,15.95,7.08,23.13c-3.36-6.42-6.72-12.85-10.09-19.27c-2.34-4.47-5.02-9.27-9.66-11.26
			c-2.85-1.22-6.68-0.92-8.39,1.65c-1.51,2.28-0.81,5.41,0.63,7.74c3.31,5.37,9.39,7.88,14.59,10.97c3.94,2.34,9.26,8.34,13.73,4.55
			c3.7-3.14,5.32-10.72,5.84-15.25C467.98,567.21,471.54,554.01,465.62,552.66z"/>
		<line class="st75" x1="460.78" y1="588.79" x2="479.11" y2="619.1"/>
		<line class="st75" x1="534.9" y1="565.71" x2="408.39" y2="642.46"/>
	</g>
	<path class="st58" d="M476.02,567.38c-3.14,8.31-10.06,20.01,1.19,19.93c0,0,18.94,0.07,18.02-6.5
		c-0.31-2.19-6.23-10.57-6.23-10.57"/>
	<path class="st55" d="M495.24,553.24c0,0-2.1,19.87-6.94,18.61c-4.84-1.26-12.42-5.05-12.42-5.05l4.15-15.33L495.24,553.24z"/>
	<path class="st79" d="M521.13,498.28c0,0,4.38,1.37,6.83-2.25"/>
	<path class="st48" d="M527.59,522.82c0,0-5.86,1.72-8.49,1.66"/>
	<g>
		<path class="st55" d="M497.2,449.76c0,0-8.9,8.52-4.91,14.51c-7.26,1.26-6.94,22.08-3.99,26.81c-9.04,0-14.19,23.34-10.93,28.39
			c-7.03,4.42-6.85,22.08-6.53,27.13c0.32,5.05,20.82,6.31,29.97,9.15c9.15,2.84,13.88-20.19,12.3-26.18
			c14.83-8.83,7.49-29.97,7.81-33.23c6.24-12.41,0-23.24-0.56-26.4c1.55-1.77,2.92-16.38,1.58-19.69c-0.75-1.83-1.81-3.52-3.15-4.97
			C515.4,441.63,504.97,444.74,497.2,449.76z"/>
		<path class="st48" d="M488.3,491.09c0,0,25.3,7.68,32.62,5.26"/>
		<path class="st48" d="M520.36,469.95c0,0-5.36-8.52-28.08-5.68"/>
		<path class="st48" d="M513.11,529.58c0,0-14.69-11.36-35.74-10.09"/>
	</g>
</g>
<polygon class="st11" points="96.45,657.42 94.6,691.42 57.19,690.44 55.34,652.78 96.45,654.33 "/>
<path class="st48" d="M73.37,629.83c-3.74,0.49-6.31,5.17-6.16,8.94c0.06,1.49,0.68,2.9,1.35,4.24c2.87,5.71,6.81,10.89,11.55,15.17
	c-4.24-3.83-8.48-7.66-12.72-11.49c-2.95-2.67-6.25-5.48-10.22-5.69c-2.44-0.12-5.19,1.14-5.75,3.51c-0.5,2.1,0.88,4.22,2.58,5.55
	c3.91,3.07,9.1,3.26,13.78,4.13c3.55,0.65,9.12,3.64,11.39-0.39c1.88-3.33,1.01-9.38,0.15-12.87
	C79.09,639.94,78.11,629.21,73.37,629.83z"/>
<line class="st75" x1="77.12" y1="653.99" x2="75.89" y2="690.6"/>
<line class="st75" x1="56.28" y1="671.14" x2="95.6" y2="673.42"/>
<path class="st5" d="M82.53,638.26c0,0,0.01,17.14,6.83,16.26c7.14-0.92,4.75,7.34,6.35,6.72c1.12-0.43,4.47-6.64,9.68-6.23
	c3.73,0.29,7.41,0.5,8.72,4.01c2.21,5.92,4.95,17.42,3.45,36.17c-3.74,1.93-7.46,4.27-10.86,6.74c-0.01,0.01-0.02,0.01-0.02,0.02
	c-0.29,0.21-0.58,0.42-0.86,0.64c-0.03,0.02-0.06,0.04-0.09,0.07c-0.27,0.2-0.54,0.41-0.81,0.61c-0.04,0.03-0.08,0.06-0.12,0.09
	c-0.26,0.2-0.51,0.4-0.77,0.59c-0.05,0.04-0.1,0.08-0.14,0.11c-0.25,0.19-0.49,0.39-0.73,0.58c-0.05,0.04-0.1,0.08-0.15,0.12
	c-0.24,0.19-0.48,0.39-0.71,0.58c-0.04,0.04-0.09,0.07-0.13,0.11c-0.24,0.2-0.48,0.4-0.71,0.6c-0.03,0.02-0.05,0.05-0.08,0.07
	c-0.99,0.84-1.92,1.68-2.79,2.51c-0.07,0.06-0.14,0.13-0.2,0.19c-0.15,0.14-0.29,0.28-0.44,0.43c-0.1,0.09-0.19,0.19-0.28,0.28
	c-0.13,0.13-0.26,0.26-0.38,0.38c-0.1,0.1-0.21,0.21-0.31,0.31c-0.12,0.12-0.23,0.24-0.34,0.36c-0.1,0.11-0.21,0.22-0.31,0.33
	c-0.11,0.11-0.21,0.23-0.31,0.34c-0.1,0.11-0.2,0.22-0.3,0.34c-0.1,0.11-0.19,0.22-0.28,0.32c-0.1,0.11-0.2,0.23-0.3,0.34
	c-0.09,0.1-0.17,0.2-0.26,0.3c-0.1,0.12-0.19,0.23-0.28,0.35c-0.08,0.1-0.16,0.19-0.23,0.29c-0.09,0.12-0.18,0.23-0.27,0.35
	c-0.07,0.09-0.14,0.18-0.2,0.27c-0.09,0.12-0.17,0.24-0.26,0.36c-0.06,0.08-0.12,0.16-0.17,0.24c-0.09,0.13-0.17,0.26-0.26,0.39
	c-0.04,0.06-0.09,0.13-0.13,0.19c-0.12,0.19-0.24,0.38-0.34,0.56c-0.1,0.17-0.19,0.33-0.27,0.48c-0.02,0.03-0.03,0.06-0.05,0.09
	c-0.08,0.14-0.14,0.28-0.21,0.4c-0.01,0.03-0.02,0.05-0.04,0.07c-0.06,0.12-0.11,0.23-0.15,0.33c0,0.01-0.01,0.02-0.01,0.03
	c-0.04,0.11-0.08,0.2-0.11,0.29c-0.01,0.02-0.01,0.04-0.02,0.07c-0.03,0.08-0.05,0.16-0.06,0.23c0,0.02-0.01,0.03-0.01,0.05
	c-0.01,0.06-0.02,0.11-0.02,0.16c0,0.01,0,0.02,0,0.04c0,0.05,0.01,0.1,0.02,0.14c0,0.01,0.01,0.03,0.01,0.04
	c0.01,0.04,0.03,0.07,0.05,0.09c0.01,0.01,0.02,0.01,0.02,0.02c0.02,0.02,0.04,0.03,0.07,0.05c0.01,0,0.02,0.01,0.03,0.01
	c0.03,0.01,0.06,0.02,0.09,0.02c0,0,0,0,0,0c0.37,0.04,1.08-0.29,1.94-0.81c0,0,0,0,0,0c0.04-0.02,0.08-0.05,0.12-0.07
	c0.39-0.23,0.81-0.5,1.24-0.78c0.01-0.01,0.03-0.02,0.04-0.03c0.11-0.07,0.23-0.15,0.35-0.23c0.01,0,0.01-0.01,0.02-0.01
	c0.29-0.19,0.57-0.38,0.86-0.57c0.02-0.01,0.03-0.02,0.05-0.03c0.1-0.07,0.21-0.14,0.31-0.2c0.04-0.03,0.08-0.05,0.12-0.08
	c0.09-0.06,0.17-0.11,0.26-0.17c0.05-0.03,0.09-0.06,0.14-0.09c0.08-0.05,0.16-0.1,0.24-0.15c0.05-0.03,0.1-0.06,0.15-0.09
	c0.07-0.05,0.15-0.09,0.22-0.14c0.05-0.03,0.1-0.06,0.15-0.09c0.07-0.04,0.14-0.09,0.21-0.13c0.05-0.03,0.1-0.06,0.14-0.09
	c0.07-0.04,0.14-0.08,0.21-0.12c0.04-0.03,0.09-0.05,0.14-0.08c0.07-0.04,0.14-0.08,0.21-0.12c0.04-0.02,0.07-0.04,0.11-0.06
	c0.1-0.05,0.21-0.11,0.3-0.15c2.73-1.29,12.69-5.35,20.23-6.55c-0.1,0.69-0.2,1.38-0.33,2.06c0,0.02-0.01,0.04-0.01,0.06
	c-0.06,0.36-0.13,0.71-0.2,1.06c0,0.01,0,0.02-0.01,0.03c-0.14,0.71-0.3,1.42-0.48,2.1c0,0.01-0.01,0.03-0.01,0.04
	c-0.09,0.33-0.17,0.66-0.27,0.99c-0.01,0.02-0.01,0.05-0.02,0.07c-0.09,0.33-0.19,0.65-0.3,0.97c-0.24,0.74-0.5,1.45-0.78,2.14
	c-4.75,11.38-9.37,17.47-11.09,19.21s-5.22,4.36-1.05,4.35c4.18-0.01,8.86-3.34,11.89-6.36c1.8-1.79,7.88-7.85,14-15.99c0,0,0,0,0,0
	c0.29-0.38,0.57-0.76,0.86-1.15c0.1-0.13,0.2-0.27,0.29-0.4c0.2-0.27,0.39-0.54,0.59-0.82c0.11-0.16,0.22-0.31,0.33-0.47
	c0.19-0.27,0.38-0.54,0.56-0.81c0.11-0.15,0.21-0.31,0.32-0.46c0.21-0.31,0.43-0.63,0.64-0.95c0.08-0.11,0.15-0.22,0.23-0.34
	c0.28-0.42,0.56-0.85,0.84-1.29c0.08-0.12,0.15-0.24,0.23-0.35c0.21-0.32,0.41-0.65,0.61-0.97c0.1-0.16,0.2-0.32,0.29-0.48
	c0.18-0.3,0.36-0.59,0.54-0.89c0.1-0.16,0.19-0.33,0.29-0.49c0.19-0.32,0.38-0.65,0.57-0.98c0.08-0.13,0.15-0.27,0.23-0.4
	c0.26-0.46,0.51-0.92,0.77-1.38c0.04-0.08,0.08-0.16,0.13-0.24c0.05-0.09,0.1-0.19,0.15-0.28c2.11-0.48,4.24-1.05,6.35-1.71l0,0
	c0,0,0,0,0,0c0.48-0.15,0.96-0.31,1.43-0.47c0.01,0,0.02-0.01,0.04-0.01c0.43-0.14,0.85-0.29,1.27-0.44
	c0.09-0.03,0.19-0.07,0.28-0.1c0.35-0.13,0.71-0.26,1.06-0.4c0.1-0.04,0.19-0.07,0.29-0.11c0.41-0.16,0.82-0.33,1.23-0.5
	c0.02-0.01,0.03-0.01,0.05-0.02c0.42-0.18,0.84-0.36,1.26-0.55c0.1-0.04,0.19-0.09,0.28-0.13c0.31-0.14,0.61-0.28,0.91-0.43
	c0.13-0.06,0.25-0.12,0.38-0.19c0.28-0.14,0.55-0.28,0.83-0.42c0.12-0.06,0.23-0.12,0.35-0.18c0.38-0.2,0.75-0.41,1.11-0.62
	c10.03-5.8,23.99-1.01,28.06,2.42c0.13,0.11,0.28,0.23,0.43,0.35c0.05,0.04,0.11,0.08,0.16,0.12c0.11,0.09,0.22,0.17,0.34,0.26
	c0.07,0.05,0.14,0.11,0.21,0.16c0.11,0.08,0.22,0.17,0.34,0.25c0.08,0.06,0.16,0.12,0.25,0.18c0.12,0.09,0.24,0.17,0.36,0.26
	c0.09,0.06,0.18,0.13,0.28,0.19c0.13,0.09,0.26,0.18,0.39,0.27c0.1,0.07,0.2,0.14,0.3,0.2c0.14,0.09,0.28,0.19,0.42,0.28
	c0.11,0.07,0.21,0.14,0.32,0.21c0.15,0.1,0.29,0.19,0.44,0.29c0.11,0.07,0.22,0.15,0.33,0.22c0.16,0.1,0.32,0.2,0.48,0.31
	c0.11,0.07,0.23,0.15,0.34,0.22c0.17,0.11,0.35,0.22,0.53,0.33c0.11,0.07,0.22,0.14,0.33,0.2c0.21,0.13,0.42,0.26,0.64,0.4
	c0.08,0.05,0.16,0.1,0.25,0.15c0.3,0.18,0.61,0.37,0.92,0.56c0.06,0.03,0.11,0.07,0.17,0.1c0.26,0.15,0.52,0.31,0.78,0.46
	c0.11,0.07,0.23,0.13,0.34,0.2c0.21,0.12,0.42,0.25,0.64,0.37c0.13,0.07,0.26,0.15,0.39,0.22c0.2,0.12,0.4,0.23,0.61,0.35
	c0.14,0.08,0.28,0.16,0.42,0.24c0.2,0.11,0.39,0.22,0.59,0.33c0.15,0.08,0.29,0.16,0.44,0.24c0.2,0.11,0.39,0.22,0.59,0.32
	c0.08,0.04,0.15,0.08,0.22,0.12c0,0-0.01,0-0.01-0.01l0,0c4.78,2.58,9.91,4.95,13.96,6.05c8.92,2.43,21.4,19.96,22.75,22.16
	c0.45,0.74,1.19,1.4,1.85,1.56c0,0,0,0,0,0c0,0,0.01,0,0.01,0c0.02,0,0.04,0.01,0.06,0.01c0.04,0.01,0.07,0.01,0.11,0.01
	c0.02,0,0.04,0,0.05,0.01c0.05,0,0.09,0,0.14,0c0.02,0,0.04,0,0.05-0.01c0.04,0,0.07-0.01,0.1-0.02c0.01,0,0.03-0.01,0.04-0.01
	c0.04-0.01,0.09-0.03,0.13-0.05c0.01-0.01,0.03-0.02,0.04-0.02c0.03-0.02,0.07-0.04,0.1-0.07c0.01-0.01,0.02-0.02,0.03-0.02
	c0.04-0.03,0.08-0.07,0.11-0.11c0.01-0.01,0.02-0.03,0.03-0.04c0.03-0.04,0.06-0.08,0.09-0.12c0.01-0.01,0.02-0.02,0.02-0.03
	c0.03-0.06,0.06-0.12,0.09-0.18c0.01-0.02,0.02-0.04,0.02-0.06c0.02-0.06,0.05-0.12,0.07-0.19c0-0.01,0.01-0.03,0.01-0.04
	c0.02-0.08,0.04-0.17,0.06-0.26c0-0.02,0.01-0.05,0.01-0.08c0.01-0.09,0.03-0.18,0.04-0.27c0-0.01,0-0.03,0.01-0.04
	c0.01-0.11,0.02-0.22,0.02-0.35c0-0.03,0-0.06,0-0.09c0-0.11,0-0.23,0-0.36c0-0.01,0-0.03,0-0.04c0-0.14-0.01-0.29-0.02-0.44
	c0-0.04-0.01-0.08-0.01-0.11c-0.01-0.15-0.02-0.3-0.04-0.46c0-0.01,0-0.02,0-0.04c-0.02-0.17-0.04-0.35-0.07-0.54
	c-0.01-0.05-0.01-0.09-0.02-0.14c-0.03-0.18-0.06-0.37-0.09-0.57c0-0.01,0-0.02-0.01-0.03c-0.04-0.21-0.08-0.42-0.13-0.64
	c-0.01-0.05-0.02-0.11-0.03-0.16c-0.05-0.22-0.1-0.45-0.15-0.69c0-0.01,0-0.01,0-0.02c-0.06-0.24-0.12-0.5-0.19-0.76
	c-0.02-0.06-0.03-0.13-0.05-0.19c-0.07-0.27-0.14-0.54-0.22-0.82c-0.81-2.87-1.69-5.34-2.71-7.63c-0.23-0.51-0.46-1.01-0.71-1.51
	c-0.24-0.5-0.5-0.98-0.76-1.47c-0.18-0.33-0.36-0.66-0.55-0.99c-0.64-1.12-1.33-2.22-2.08-3.34c-0.23-0.34-0.47-0.69-0.71-1.03
	c-0.62-0.88-1.27-1.77-1.98-2.7c-0.2-0.26-0.4-0.52-0.6-0.78c-0.41-0.53-0.83-1.06-1.27-1.61c-0.22-0.27-0.44-0.55-0.67-0.83
	c-0.52-0.64-1.06-1.31-1.63-1.99c4.4,1.18,9.04,2.91,14.82,5.89c3.17,1.63,13.03,9.05,13.83,8.36c1.2-1.05-7.39-15.29-15.55-19.15
	c-6.73-3.18-16.41-8.2-19-10.42c0,0,0,0,0,0c-0.09-0.8-0.16-1.6-0.24-2.4c-0.04-0.45-0.08-0.9-0.12-1.35
	c-0.06-0.67-0.12-1.35-0.18-2.02c-0.04-0.45-0.08-0.9-0.13-1.35c-0.05-0.45-0.09-0.9-0.15-1.34c-0.03-0.22-0.05-0.45-0.08-0.67
	c-0.06-0.44-0.12-0.89-0.18-1.33c-0.06-0.44-0.13-0.88-0.21-1.31c-0.27-1.52-0.61-3.01-1.07-4.44c-0.07-0.2-0.13-0.41-0.21-0.61
	c-0.14-0.4-0.3-0.8-0.46-1.19c-0.09-0.21-0.18-0.43-0.28-0.64c3.6,1.61,9,3.04,15.28,1.51c0.02,0,0.03-0.01,0.05-0.01
	c0.61-0.15,1.21-0.32,1.78-0.52c0.14-0.05,0.28-0.1,0.41-0.14c0.04-0.01,0.08-0.03,0.12-0.04c9.34-3.37,13.18-11.68,13.64-12.72
	c-3.26,1.82-7.28,0.34-7.28,0.34c0.59-0.47,1.1-1,1.54-1.57c0.17-0.23,0.34-0.47,0.49-0.71c0.15-0.24,0.29-0.49,0.43-0.75
	c0.18-0.35,0.34-0.7,0.48-1.07c0.03-0.09,0.07-0.17,0.1-0.26c0.23-0.63,0.41-1.29,0.54-1.96c0.06-0.29,0.11-0.58,0.15-0.87
	c0.04-0.28,0.07-0.56,0.1-0.84c0-0.03,0.01-0.05,0.01-0.08c0.22-2.31,0.02-4.68-0.31-6.77l0,0c0,0,0,0,0,0
	c-0.52-3.22-1.37-5.77-1.58-6.36c0,0,0-0.01,0-0.01c-0.01-0.04-0.02-0.07-0.03-0.09c0,0,0,0,0-0.01c-0.01-0.02-0.01-0.03-0.01-0.03
	l0,0l0,0c0,0,0,0,0,0c-0.03,0.14-0.06,0.28-0.1,0.41c-0.01,0.04-0.02,0.08-0.04,0.12c-0.03,0.09-0.06,0.18-0.09,0.27
	c-0.01,0.04-0.03,0.08-0.05,0.12c-0.04,0.09-0.07,0.18-0.11,0.27c-0.01,0.03-0.02,0.06-0.04,0.09c-0.05,0.12-0.11,0.23-0.17,0.34
	c0,0.01-0.01,0.01-0.01,0.02c-0.06,0.1-0.12,0.2-0.18,0.29c-0.02,0.02-0.03,0.05-0.05,0.07c-0.05,0.08-0.11,0.15-0.16,0.23
	c-0.02,0.02-0.03,0.04-0.05,0.06c-0.07,0.09-0.13,0.17-0.2,0.25c0,0-0.01,0.01-0.01,0.01c-0.08,0.09-0.16,0.18-0.24,0.26v0
	c-0.12,0.12-0.25,0.24-0.37,0.35c-0.14,0.11-0.27,0.22-0.41,0.32c-0.07,0.05-0.14,0.1-0.21,0.14c-0.14,0.09-0.27,0.17-0.41,0.24
	c-1,0.55-1.87,0.7-1.87,0.7c-1.96-11.79-16.31-15.12-16.31-15.12c0.16,0.48,0.32,0.96,0.48,1.43c0.04,0.12,0.08,0.24,0.12,0.36
	c0.14,0.44,0.29,0.88,0.42,1.31c0.01,0.03,0.02,0.05,0.03,0.08c0.14,0.45,0.28,0.9,0.41,1.34c0.02,0.06,0.04,0.12,0.06,0.19
	c0.19,0.62,0.36,1.22,0.53,1.81c0.02,0.08,0.05,0.16,0.07,0.24c0.14,0.51,0.28,1.02,0.41,1.52c0.02,0.09,0.05,0.17,0.07,0.26
	c0.3,1.14,0.57,2.24,0.8,3.29c0.01,0.05,0.02,0.09,0.03,0.13c0.1,0.47,0.2,0.93,0.29,1.39c0.02,0.08,0.03,0.16,0.05,0.24
	c0.09,0.47,0.18,0.94,0.26,1.39c0,0.02,0.01,0.03,0.01,0.05c0.17,0.96,0.31,1.88,0.42,2.77c0.01,0.07,0.02,0.14,0.03,0.21
	c0.05,0.38,0.09,0.76,0.12,1.13c0,0.05,0.01,0.09,0.01,0.14c0.08,0.83,0.13,1.62,0.16,2.38c0,0.06,0,0.11,0.01,0.17
	c0.01,0.32,0.02,0.63,0.02,0.94c0,0.06,0,0.11,0,0.17c0,0.71-0.03,1.38-0.07,2.02c0,0.04-0.01,0.08-0.01,0.13
	c-0.02,0.27-0.05,0.54-0.08,0.8c-0.01,0.06-0.01,0.12-0.02,0.17c-0.03,0.27-0.07,0.54-0.11,0.8c0,0.02,0,0.03-0.01,0.05
	c-0.05,0.29-0.1,0.57-0.16,0.84c0,0.02-0.01,0.05-0.02,0.07c-0.05,0.24-0.11,0.46-0.16,0.69c-0.01,0.05-0.03,0.11-0.04,0.16
	c-0.06,0.21-0.12,0.41-0.18,0.6c-0.01,0.04-0.02,0.08-0.04,0.11c-0.15,0.46-0.32,0.89-0.5,1.3c-0.02,0.05-0.04,0.09-0.06,0.13
	c-0.07,0.16-0.15,0.31-0.23,0.46c-0.02,0.04-0.04,0.08-0.06,0.12c-3.42,6.34-10.95,5.06-14.35,4.09c0,0,0,0,0,0
	c-0.1-0.03-0.2-0.06-0.3-0.09c0,0-0.01,0-0.01,0c-0.09-0.03-0.18-0.06-0.27-0.08c0,0-0.01,0-0.01,0c-0.08-0.03-0.16-0.05-0.24-0.08
	c-0.01,0-0.01,0-0.02,0c-0.07-0.02-0.14-0.05-0.21-0.07c-0.01,0-0.01,0-0.02-0.01c-0.06-0.02-0.13-0.04-0.18-0.06c0,0-0.01,0-0.01,0
	c-0.06-0.02-0.11-0.04-0.15-0.06c0,0-0.01,0-0.01,0c-0.05-0.02-0.09-0.03-0.12-0.05c0,0-0.01,0-0.01,0
	c-0.03-0.01-0.06-0.02-0.09-0.03c0,0,0,0-0.01,0c-0.02-0.01-0.04-0.02-0.05-0.02c0,0-0.01,0-0.01,0c-0.01,0-0.01-0.01-0.01-0.01
	c0,0,0,0,0,0c-0.85-0.52-1.68-0.98-2.46-1.39c-0.18-0.09-0.35-0.18-0.52-0.26c-0.82-0.41-1.57-0.75-2.22-1.02
	c-0.06-0.02-0.12-0.05-0.18-0.07c-0.27-0.11-0.51-0.21-0.74-0.29c-0.08-0.03-0.16-0.06-0.24-0.09c-0.15-0.06-0.29-0.11-0.41-0.15
	c-0.12-0.04-0.23-0.08-0.33-0.11c-0.09-0.03-0.17-0.05-0.23-0.07c-0.23-0.06-0.47-0.12-0.7-0.18c-0.23-0.05-0.46-0.1-0.68-0.15
	c0,0,0,0,0,0c0,0,0,0,0,0c-7.68-1.54-14.95,1.42-20.99,2.7c-6.82,1.45-16.76,1.49-30.29-4.83c-0.79-0.93-1.43-1.66-2.01-2.34
	c-0.07-0.08-0.13-0.15-0.19-0.22c-0.26-0.3-0.51-0.58-0.76-0.87c-0.13-0.15-0.26-0.29-0.39-0.44c-0.13-0.15-0.26-0.3-0.4-0.46
	c-0.17-0.2-0.35-0.4-0.54-0.62c-0.85-0.97-1.88-2.13-3.32-3.79c-0.3-0.35-0.6-0.68-0.88-1.01c-0.07-0.08-0.14-0.16-0.22-0.25
	c-0.22-0.25-0.44-0.5-0.65-0.74c-0.08-0.1-0.16-0.19-0.25-0.28c-0.18-0.21-0.37-0.42-0.54-0.62c-0.19-0.22-0.38-0.43-0.56-0.64
	c-0.15-0.17-0.29-0.34-0.44-0.5c-0.12-0.14-0.24-0.27-0.35-0.41c-0.12-0.14-0.24-0.27-0.35-0.41c-0.11-0.13-0.23-0.26-0.34-0.38
	c-0.11-0.12-0.21-0.24-0.31-0.36c-0.12-0.14-0.23-0.27-0.35-0.4c-0.09-0.11-0.19-0.21-0.28-0.31c-0.11-0.12-0.21-0.24-0.32-0.36
	c-0.09-0.1-0.19-0.21-0.28-0.31c-0.11-0.12-0.21-0.23-0.31-0.35c-0.08-0.09-0.17-0.19-0.25-0.28c-0.15-0.17-0.3-0.33-0.44-0.49
	c-0.07-0.08-0.14-0.15-0.21-0.23c-0.12-0.14-0.25-0.27-0.36-0.41c-0.07-0.07-0.13-0.14-0.2-0.22c-0.09-0.1-0.19-0.2-0.27-0.3
	c-0.07-0.07-0.13-0.15-0.2-0.22c-0.08-0.09-0.17-0.18-0.25-0.27c-0.07-0.07-0.13-0.14-0.2-0.21c-0.08-0.08-0.15-0.16-0.23-0.24
	c-0.07-0.07-0.13-0.14-0.19-0.2c-0.04-0.04-0.08-0.08-0.12-0.12c0,0,0,0,0,0c-2.44-2.54-3.82-3.47-5.9-4.19
	c-3.54-1.22-6.71-1.11-8.34-0.9c0,0,0,0,0,0c-1.66,0.13-3.72,0.3-5.98,0.88c-3.88,1-6.65,2.78-7.76,3.39
	c-3,1.66-8.29,2.74-18.29-0.37c0,0,0,0,0,0"/>
<line class="st50" x1="282.98" y1="723.06" x2="284.94" y2="691.15"/>
<line class="st50" x1="285.82" y1="722.43" x2="289.65" y2="695.7"/>
<path class="st40" d="M286.56,734.17c-7.35-0.72-22.05-5.7-27.91-7.66c-4.38-1.46,0.57-4.18,22.6,2.62l0.33-10.85l6.92-0.57
	L286.56,734.17z"/>
<line class="st50" x1="329.81" y1="721" x2="314.64" y2="692.86"/>
<line class="st50" x1="331.9" y1="718.96" x2="321.05" y2="694.23"/>
<path class="st40" d="M338.72,728.55c-6.62,3.27-21.74,6.79-27.75,8.22c-4.49,1.07-1.72-3.85,20.58-9.69l-5.45-9.39l5.58-4.13
	L338.72,728.55z"/>
<path class="st48" d="M295.39,538.76c0,0-6.57-2.18-9.21-2.31c-4.22-0.21-6.18-1.77-7.32-2.62c-1.86-1.39-0.19-14.42-0.19-14.42
	s-3.2-3.62-0.81-3.57c6.08,0.13,7.76-4.74,7.76-4.74"/>
<path class="st48" d="M286.47,517.3c0,0,3.76,4.41,6.37-1.45"/>
<path class="st17" d="M310.99,525.94c0,0,1.98,5.45,0,9.92c-1.98,4.46,62.47,155.18,56.52,157.66c-2.51,1.05-7.59,3.06-14.9,4.67
	c-10.01,2.21-24.2,3.65-41.66,0.78c-30.2-4.96-62.92,1.98-61.93-5.45c0.99-7.44,16.36-114.53,22.31-124.44
	c5.95-9.92,4.96-14.87,8.43-12.39c3.47,2.48,15.87,1.98,7.93,0.99c-7.93-0.99-4.46-6.45-4.46-6.45S291.16,525.94,310.99,525.94z"/>
<path class="st18" d="M315.2,542.79c0,0-8.86-13.43-25.54-8.09c-16.5,5.28-21.06,39.11-11.66,25c2.41-3.62,35.22,4.41,38.69-0.06
	C320.16,555.19,322.64,548.74,315.2,542.79z"/>
<path class="st82" d="M262.57,616.84c0,0-12.3-1.08-20.55,4.67s1.18,9.47,3.63,8.91c2.46-0.56,6.18,2.4,9.13,3.23
	s7.79-6.16,7.79-6.16V616.84z"/>
<path class="st73" d="M319.21,569.22c0,0,6.85,2.37,3.68,13.58c-3.17,11.21-18.31,44.03-23.98,45.83c-1.47,0.47-4.02,1.08-6.97,1.74
	c-8.42,1.87-34.5,8.03-34.5,8.03l1.92-21.81l27.49-13.08l10.94-24.03"/>
<path class="st18" d="M317.43,553.21c0,0,26.89,30.26,45.23,32.49c-2.48,10.66,5.23,44.72,5.23,44.72s-68.06-43.75-70.91-73.99
	C310.99,553.21,317.43,553.21,317.43,553.21z"/>
<path class="st82" d="M248.99,631.04c0,0-6.64,3.01-4.33,10.6"/>
<path class="st82" d="M246.58,619.1c0,0-12.15-17.99-23.04-2.34c-10.89,15.64,22.44,69.12-16.83,58.55
	c-39.28-10.56-19.86-57.59-68.38-25.25"/>
<path class="st82" d="M359.86,602.4c0,0,6.78,0.6,7.75-1.59"/>
<path class="st82" d="M361.44,605.66c0,0,2.79,1.06,7.09-0.85"/>
<path class="st82" d="M360.96,607.83c0,0,4.25,2.66,8.06,0.89"/>
<path class="st82" d="M360.48,611.03c0,0,4.66,2.8,8.15,3.03"/>
<path class="st82" d="M361.21,615.14c0,0,1.73,1.62,6.68,1.62"/>
<path class="st82" d="M363.04,619.4c0,0,2.79,1.06,7.09-0.85"/>
<path class="st82" d="M362.56,621.48c0,0,4.25,2.66,8.06,0.89"/>
<path class="st82" d="M363.62,625.43c0,0,4.66,2.8,8.15,3.03"/>
<path class="st82" d="M359.7,588.39c0,0,2.91,0.63,6.89-1.9"/>
<path class="st82" d="M359.55,590.61c0,0,4.6,2,8.1-0.33"/>
<path class="st82" d="M359.55,593.85c0,0,5.03,2.07,8.51,1.78"/>
<path class="st82" d="M360.89,597.8c0,0,1.95,1.34,6.85,0.6"/>
<path class="st48" d="M293.6,508.9c-1.88,0.26-3.94,0.19-5.45-0.95c-1.51-1.14-2.03-3.68-0.6-4.92c1.05-0.91,2.6-0.79,3.98-0.63
	c0.56,0.22,0.56,1.09,0.13,1.51s-1.08,0.5-1.68,0.5c-1.12,0.01-2.34-0.21-3.05-1.07c-0.44-0.53-0.61-1.24-0.65-1.92
	c-0.1-1.59,0.5-3.26,1.7-4.3c0.75-0.65,1.71-1.04,2.7-1.21c3.61-0.6,7.43,2.27,7.79,5.91c0.12,1.18-0.14,2.47-1,3.29
	c-0.86,0.82-2.41,0.93-3.17,0.02"/>
<path class="st48" d="M302.76,511.18c-2.01,2.09-1.3,5.83,0.91,7.69c2.22,1.86,5.4,2.15,8.25,1.63c0.27-0.05,0.55-0.11,0.81-0.19
	c0.85-0.26,1.49-0.94,1.71-1.8c0.47-1.83-1.43-3-2.85-2.48c-1.46,0.54-1.92,2.57-1.19,3.95c0.73,1.38,2.26,2.15,3.78,2.5
	c1.52,0.35,3.1,0.36,4.62,0.68c2.29,0.48,4.49,1.75,5.7,3.75c1.21,2,1.25,4.77-0.24,6.58c-1.49,1.8-4.55,2.19-6.22,0.55
	c-0.99-1.41,0.79-3.66,2.39-3.03c1.22,2.76-0.88,5.77-2.71,8.16c-1.84,2.4-3.53,5.84-1.68,8.22c1.3,1.67,3.82,1.94,5.79,1.88
	c0.94-0.03,1.85-0.41,2.46-1.12c1.1-1.26,0.49-2.51-0.44-3.15c-1.82-1.24-4.51-0.1-5.59,1.83s-0.93,4.29-0.53,6.46
	c0.34,1.83,0.85,3.67,1.87,5.22c2.14,3.23,6.51-7.26,8.15-3.76c1.98,4.21,8.2,10.41,10.95,8.86c1.53-0.86,2.78-2.28,4.11-3.46
	c2.21-1.96,1.71-5.6-0.98-6.82c-0.71-0.32-1.46-0.56-2.22-0.71c-0.61-0.12-1.27-0.17-1.85,0.05c-1.13,0.43-1.65,1.73-1.88,2.91
	c-0.53,2.64-0.28,5.44,0.71,7.95c0.07,0.19,0.18,0.37,0.32,0.52c0.84,0.86,1.93,0.04,2.55-0.77c2.62-3.39,3.75-7.9,3.04-12.13
	c-0.07-0.41-0.16-0.84-0.44-1.16c-0.37-0.43-0.98-0.55-1.53-0.68c-1.91-0.42-3.86-1.22-4.99-2.81c-1.13-1.59-1.08-4.12,0.52-5.24
	c1.6-1.11,4.39,0.39,3.91,2.28c-1.68,2.03-4.89,2.16-7.26,1.01s-0.58-7.06-2.23-9.12"/>
<path class="st68" d="M305.71,507.71c0,0,20.37,13.05,21.63,4.2S324.4,495.52,305.71,507.71z"/>
<path class="st68" d="M307.76,507.72c0,0,15.88-17.91,6.69-19.93S296.87,489,307.76,507.72z"/>
<circle class="st68" cx="306.98" cy="506.84" r="2.39"/>
<path class="st83" d="M86.23,639.22c0,0-2.96-1.55-3.7-0.96c-0.74,0.59,0.07,3.29,0.07,3.29s1.95,0.94,3.27,0
	C87.19,640.62,87.48,640.21,86.23,639.22z"/>
<path class="st84" d="M100.28,641.96c0,0,3.52,4.14,5.98-1.37"/>
<path class="st18" d="M140.36,650.87c0,0-11.35,15.72-26.16,14.71c-0.17-3.78-0.17-3.78-0.17-3.78s11.8,3.83,23.69-14.88
	C140.36,649.94,140.36,650.87,140.36,650.87z"/>
<path class="st85" d="M132.39,639.15c0.56,1.42,0.56,3.12-0.29,4.38c-0.85,1.26-2.67,1.88-3.99,1.14c1.9,0.23,3.56,1.77,3.95,3.64
	s-0.54,3.94-2.19,4.9c2.04,1.49,3.93,3.62,3.98,6.15c0.05,2.53-2.67,5.05-4.96,3.97c0.86,1.03,0.65,2.66-0.16,3.73
	c-0.83,1.1-2.14,1.72-3.43,2.18c-1.47,0.52-2.99,0.86-4.53,1.03c-2.01,0.22-4.29,0.21-6.01-0.96c-1.47-0.99-2.34-3.04-1.53-4.62
	c-1.13,0.79-2.83,0.17-3.54-1.01c-0.71-1.18-0.62-2.69-0.21-4c0.42-1.36,1.23-3.2,2.25-4.61c0.66-0.92,0.14-2.18-0.96-2.43
	c-0.38-0.08-0.73-0.23-1.04-0.52c-2.23-2.14-0.56-16.94,7.96-12.04c2.13,1.23,0.1-6.58,2.37-7.53c3.11-1.31,5.63,1.76,5.79,4.57
	C126,639.88,131.13,635.96,132.39,639.15z"/>
</svg>
