<svg class="hpph-logo" xmlns="http://www.w3.org/2000/svg" width="514.1" height="186.3" viewbox="0 0 514.1 186.3">
  <style>@media (min-width: 110px) { .est-1914 { display: none } }</style>

  <path fill="#000" d="M299.7 174.3c-2.2 3.7-4.8 7.2-7.2 10.7-.3.3-.8.8-1.3.8H284c2.2-3 3.7-5.4 5.6-7.7-5.1-.3-8-2.2-9.1-6.4-1.9-7.7 3.5-13.4 10.7-13.1 9.2.1 12.2 9.3 8.5 15.7zm-5.4-6.2c0-2.2-1.3-3.7-3.5-3.7-1.9 0-3.7 1.6-3.7 3.5 0 2.2 1.6 3.7 3.5 3.7 2.4 0 3.7-1.3 3.7-3.5zm64.5 7.5h3v5.1c-.8 0-1.6 0-2.7.3v4.5h-6.7V181h-11.7c-.3-2.7-.3-5.1 1.3-7.5 3.2-4.3 6.4-8.9 9.4-13.4.5-.8 1.3-1.3 2.4-1.3h5.1l-.1 16.8zm-6.1-8.3c-1.9 3-3.5 5.6-5.1 8.3h5.1v-8.3zm-194.3-8.6c-.5 0-.8.5-1.3.5 0 .3 0 .3.3.5.8 0 1.9 0 3 .3-1.6 8-3.2 16.1-4.8 23.8-1 1-2.7-.3-3.2 1.6h22c.3-1.6.8-3 1-4.3s.5-3 .8-4.5c-1.3 0-1.3 0-2.2 1.6-3 5.4-6.4 6.4-11.7 5.9.8-4 1.6-7.7 2.4-11.7 3-.3 3.2 0 3.7 5.1 1.3.5 1.6-.3 1.6-1 .3-1.6.8-3.5 1-5.1l.8-4.8c-.3 0-.5-.3-.5-.3-.5.5-1 1-1.3 1.6-.3.5-.8 1.3-1 1.6-.8.8-1.6 1.3-2.4 1.3-.5 0-1 0-1.6-.3.5-3 1-5.6 1.6-8.6.3-.5.5-1.6 1-1.9 4-1.3 7.5.8 7.7 5.1 0 .5.5.8.8 1 .3-.3.8-.8.8-1 .3-2.2.5-4.3 1-6.4h-19.5zm155.2 6.2h4.5v20.9h6.7V159h-10.9c-.3 1.9-.3 3.8-.3 5.9zm-60.2-.2h4.3v20.9h6.7V159h-10.9v5.7zm-53.2 5.6c-1.3-.5-2.7-.8-4.3-.8-2.7 0-4.8 1.9-5.6 4-.5 2.4.8 4 2.7 5.1 1.3.8 2.4 1.9 3.5 3 1.3 1 1 2.7-.5 3.2-1.3.3-2.7 0-4 0 .3-1 .3-1.3.5-1.9.3-1.6-.5-2.4-1.9-2.7-1.3 0-2.4.8-2.4 2.4 0 1.6 1 2.4 2.2 3 2.2.8 4.3 1 6.4.3 2.2-.8 3.5-2.2 4-4.5.3-2.2-.5-3.7-2.4-5.1-1-.8-2.4-1.6-3.2-2.4-.5-.5-.8-1.3-1.3-1.9.8-.3 1.6-.8 2.4-1 .5 0 1 .3 1.3.3v.5c-.5 1.3-.3 2.7 1.3 3 .8 0 1.9-.3 2.2-1 1.2-1.7.1-3-.9-3.5zm20.6 2.7c.3-1.3.8-2.2 2.4-2.2.3 0 .8-.3 1-.5 0 0 0-.3-.3-.5-.8 0-1.6-.3-2.4-.3.3-1.6.5-3 .8-4.5h-2.7c-1.6 0-2.7.3-2.7 2.2 0 .8-.5 1.6-.5 2.2-1 .3-1.9.5-2.7.8v.5c.8 0 1.3.3 2.2.3-.8 3.7-1.6 7.2-2.4 10.9-.5 1.6.3 2.7 1.6 3.2 3.2 1.3 7.7-1 8.3-4.5 0-.3-.3-.5-.5-1-1 2.2-1.6 4.3-4.3 4.5v-1.2c.5-3.2 1.6-6.4 2.2-9.9zm19.2 6.7c-1.9 0-3.5 1.3-3.5 3 0 1.9 1.3 3.5 3 3.5 1.9.3 3.5-1.3 3.5-3.2-.1-1.7-1.4-3.3-3-3.3z"/><path fill="#FD0" d="M448.5 79.5h20.2V45.3h.2l21.5 34.2H514l-27.8-39.6L512.4.5h-21.1L469 36h-.2V.5h-20.2l-.1 79zm-42.3-61.4h7.4c7.8 0 13 3.5 13 10.7 0 3.8-1.4 11.3-13.3 11.3h-7.2l.1-22zm-19.4 61.3h19.3V53.9h.2l18.2 25.5h23.1l-21.4-26.9c14.9-2.4 19.7-15.8 19.7-24.9 0-8.1-3.2-16.4-9.7-21.6-5.1-4-10.5-5.7-24.3-5.7h-25l-.1 79.1zm-37.4-54.5H349.7l8.1 27h-16.5l8.1-27zm13.8 43l3.8 11.4h21.9L357.6.3h-15.9l-31.8 79h21.7l4.2-11.4h27.4zM286.8 18h7.5c4.4 0 13.3 0 13.3 9.3 0 9.5-8.8 9.5-12.6 9.5h-8.2V18zm-19.4 61.3h19.3V54.5h8.8c12.3 0 17.6-2.2 23.1-6.8 5-4.3 8.3-12.7 8.4-20.7 0-8-3.1-15.8-9.3-20.9-4.3-3.5-9.7-5.8-24.3-5.8h-25.8l-.2 79zm-69.1-.1h43.9V61.5h-24.6V47.9h23.8V30.2h-23.8V17.9h24.5V.2h-43.9l.1 79zm-49.9-61.3h8.8c9 0 13 3.7 15.4 7.3 2.9 4.5 3.8 10.1 3.8 14.6 0 11.2-4.3 21.7-19.3 21.6h-8.6l-.1-43.5zm-20.2 61.2h27.6c30 0 40.7-18.1 40.7-39.7 0-8.6-1.8-17.1-7.2-24.6C179.1.1 163.3 0 154.4 0h-26.2v79.1zm-40.5 0h20.2V50.4L131.3.1h-21.7L97.8 31.8 86.1.1H64.2l23.5 50.3v28.7zM0 79h20.2V47.4H46V79h20.2l.1-79H46.1v29.7H20.3V0H.1L0 79z"/><path fill="#000" d="M481.8 137.5H514v-13h-18v-9.9h17.5v-13H496v-9h18v-13h-32.2v57.9zm.3-41c-.2-3.3-.4-7.2-3.8-11.4-3.8-4.5-9.9-6.6-15.6-6.6-9.7 0-20.3 6.2-20.3 17 0 10.9 10.1 15 14.2 16.6 8.9 3.8 11.3 4.7 11.3 8.5 0 2.7-2.1 5.6-5.6 5.6-1.9 0-6-1.2-6-7.9h-14.7v1.9c0 7.4 4.1 18.4 20.9 18.4 15.3 0 20.2-9.3 20.2-17.8 0-6.7-2.7-11.7-13.5-16.6-10.4-4.7-12-5.4-12-8.9 0-2.7 2.5-4.5 5.1-4.5 4.5 0 5 3.7 5.3 5.6l14.5.1zm-84.2-17v35c0 8.5 1 12.6 5.8 17.9 4.8 5.2 12.4 6.2 16.7 6.2 7.2 0 12.4-2.4 16.2-6.2 3.7-3.8 5.8-8.1 5.8-17.8v-35h-14.8v35c0 4.6 0 11-7.4 11-7.3 0-7.5-7.1-7.5-11v-35l-14.8-.1zm-46.4 28.8c0-8.1 5.6-16.9 15.8-16.9 10.6 0 15.7 9.6 15.7 17.2 0 7.4-5.1 17-15.6 17-9.9-.1-15.9-8.4-15.9-17.3M339 96.7c-1.7 4.2-2.3 8.5-2.3 12.4 0 14.9 12.2 29.4 30.4 29.4 18 0 30.7-13.9 30.7-30s-12.7-30.1-30.6-30.1c-16.1 0-25.2 10.8-28.2 18.3m-51 40.6h14.8v-23.2h18.9v23.2h14.8l.1-57.9h-14.8v21.8h-18.9V79.4h-14.8l-.1 57.9zm-49.9 0h32.2v-13h-18v-9.9h17.5v-13h-17.5v-9h18v-13h-32.2v57.9zm-29.1-45h5.4c5.7 0 9.5 2.6 9.5 7.8 0 2.8-1 8.3-9.7 8.3H209V92.3zm-14.2 44.9H209v-18.7h.2l13.4 18.7h16.9l-15.7-19.7c11-1.8 14.4-11.6 14.4-18.2 0-5.9-2.3-12.1-7.1-15.8-3.8-2.9-7.7-4.2-17.8-4.2H195l-.2 57.9zm-46.9-58v35c0 8.5 1 12.6 5.8 17.9 4.8 5.2 12.4 6.2 16.7 6.2 7.2 0 12.5-2.4 16.2-6.2 3.7-3.8 5.8-8.1 5.8-17.8v-35h-14.8v35c0 4.6 0 11-7.4 11-7.3 0-7.5-7.1-7.5-11v-35l-14.8-.1zm-24.2 57.9h14.8V92.2h11.4v-13h-37.6v13h11.4v44.9zm-22.2-21.7c-.9 2-4.7 9.8-13.9 9.8-9.6 0-15.6-8.5-15.6-17.2 0-8.2 5.6-16.9 15.5-16.9 8 0 12.4 5.8 14 10.1H117c-1.6-9.1-11.2-23.1-29.4-23.1-18.9 0-30.4 15.2-30.4 29.9 0 15.7 12.3 30.1 30.5 30.2 14 0 25.9-9.1 29.3-22.8h-15.5zM42 137.1h14.8l.1-57.9H42.1l-.1 57.9zm-27.7-45h5.5c3.2 0 9.8 0 9.8 6.8 0 7-6.4 7-9.2 7h-6l-.1-13.8zM.1 137h14.2v-18.2h6.4c9 0 12.9-1.6 16.9-5 3.7-3.1 6.1-9.3 6.1-15.2 0-5.9-2.3-11.6-6.8-15.3-3.1-2.6-7.1-4.2-17.8-4.2H.2L.1 137z"/></svg>