<?xml version="1.0" encoding="utf-8"?>
<!-- Generator: Adobe Illustrator 18.0.0, SVG Export Plug-In . SVG Version: 6.00 Build 0)  -->
<!DOCTYPE svg PUBLIC "-//W3C//DTD SVG 1.1//EN" "http://www.w3.org/Graphics/SVG/1.1/DTD/svg11.dtd">
<svg version="1.1" id="Layer_1" xmlns="http://www.w3.org/2000/svg" xmlns:xlink="http://www.w3.org/1999/xlink" x="0px" y="0px"
	 viewBox="0 327 767.1 142.2" enable-background="new 0 327 767.1 142.2" xml:space="preserve">
<path d="M699.6,454.8c-2.4,4-5.2,7.8-7.8,11.6c-0.3,0.3-0.9,0.9-1.4,0.9h-7.8c2.4-3.3,4-5.9,6.1-8.4c-5.5-0.3-8.7-2.4-9.9-6.9
	c-2.1-8.4,3.8-14.5,11.6-14.2C700.4,437.9,703.6,447.9,699.6,454.8z M693.8,448.1c0-2.4-1.4-4-3.8-4c-2.1,0-4,1.7-4,3.8
	c0,2.4,1.7,4,3.8,4C692.3,451.9,693.8,450.5,693.8,448.1z M763.7,456.3h3.3v5.5c-0.9,0-1.7,0-2.9,0.3v4.9h-7.3v-4.9h-12.7
	c-0.3-2.9-0.3-5.5,1.4-8.1c3.5-4.7,6.9-9.7,10.2-14.5c0.5-0.9,1.4-1.4,2.6-1.4h5.5L763.7,456.3L763.7,456.3z M757.1,447.3
	c-2.1,3.3-3.8,6.1-5.5,9h5.5V447.3z M546.4,437.9c-0.5,0-0.9,0.5-1.4,0.5c0,0.3,0,0.3,0.3,0.5c0.9,0,2.1,0,3.3,0.3
	c-1.7,8.7-3.5,17.5-5.2,25.8c-1.1,1.1-2.9-0.3-3.5,1.7h23.9c0.3-1.7,0.9-3.3,1.1-4.7c0.2-1.4,0.5-3.3,0.9-4.9c-1.4,0-1.4,0-2.4,1.7
	c-3.3,5.9-6.9,6.9-12.7,6.4c0.9-4.3,1.7-8.4,2.6-12.7c3.3-0.3,3.5,0,4,5.5c1.4,0.5,1.7-0.3,1.7-1.1c0.3-1.7,0.9-3.8,1.1-5.5l0.9-5.2
	c-0.3,0-0.5-0.3-0.5-0.3c-0.5,0.5-1.1,1.1-1.4,1.7c-0.3,0.5-0.9,1.4-1.1,1.7c-0.9,0.9-1.7,1.4-2.6,1.4c-0.5,0-1.1,0-1.7-0.3
	c0.5-3.3,1.1-6.1,1.7-9.3c0.3-0.5,0.5-1.7,1.1-2.1c4.3-1.4,8.1,0.9,8.4,5.5c0,0.5,0.5,0.9,0.9,1.1c0.3-0.3,0.9-0.9,0.9-1.1
	c0.3-2.4,0.5-4.7,1.1-6.9L546.4,437.9L546.4,437.9z M714.7,444.6h4.9v22.7h7.3v-29.1H715C714.7,440.3,714.7,442.4,714.7,444.6
	L714.7,444.6z M649.4,444.4h4.7v22.7h7.3v-28.8h-11.8v6.2H649.4z M591.7,450.5c-1.4-0.5-2.9-0.9-4.7-0.9c-2.9,0-5.2,2.1-6.1,4.3
	c-0.5,2.6,0.9,4.3,2.9,5.5c1.4,0.9,2.6,2.1,3.8,3.3c1.4,1.1,1.1,2.9-0.5,3.5c-1.4,0.3-2.9,0-4.3,0c0.3-1.1,0.3-1.4,0.5-2.1
	c0.3-1.7-0.5-2.6-2.1-2.9c-1.4,0-2.6,0.9-2.6,2.6s1.1,2.6,2.4,3.3c2.4,0.9,4.7,1.1,6.9,0.3c2.4-0.9,3.8-2.4,4.3-4.9
	c0.3-2.4-0.5-4-2.6-5.5c-1.1-0.9-2.6-1.7-3.5-2.6c-0.5-0.5-0.9-1.4-1.4-2.1c0.9-0.3,1.7-0.9,2.6-1.1c0.5,0,1.1,0.3,1.4,0.3v0.5
	c-0.5,1.4-0.3,2.9,1.4,3.3c0.9,0,2.1-0.3,2.4-1.1C594,452.5,592.8,451,591.7,450.5L591.7,450.5z M614,453.4c0.3-1.4,0.9-2.4,2.6-2.4
	c0.3,0,0.9-0.3,1.1-0.5c0,0,0-0.3-0.3-0.5c-0.9,0-1.7-0.3-2.6-0.3c0.3-1.7,0.5-3.3,0.9-4.9h-2.9c-1.7,0-2.9,0.3-2.9,2.4
	c0,0.9-0.5,1.7-0.5,2.4c-1.1,0.3-2.1,0.5-2.9,0.9v0.5c0.9,0,1.4,0.3,2.4,0.3c-0.9,4-1.7,7.8-2.6,11.8c-0.5,1.7,0.3,2.9,1.7,3.5
	c3.5,1.4,8.4-1.1,9-4.9c0-0.3-0.3-0.5-0.5-1.1c-1.1,2.4-1.7,4.7-4.7,4.9v-1.3C612.2,460.7,613.4,457.2,614,453.4L614,453.4z
	 M634.9,460.7c-2.1,0-3.8,1.4-3.8,3.3c0,2.1,1.4,3.8,3.3,3.8c2.1,0.3,3.8-1.4,3.8-3.5C638,462.4,636.6,460.7,634.9,460.7z"/>
<path fill="#FFDD00" d="M452.9,407.9h20.3v-34.4h0.2l21.6,34.4h23.7l-27.9-39.8l26.3-39.6h-21.2l-22.4,35.7h-0.2v-35.7H453
	L452.9,407.9L452.9,407.9z M410.4,346.2h7.4c7.8,0,13.1,3.5,13.1,10.8c0,3.8-1.4,11.4-13.4,11.4h-7.2L410.4,346.2z M390.9,407.8
	h19.4v-25.6h0.2l18.3,25.6H452l-21.5-27c15-2.4,19.8-15.9,19.8-25c0-8.1-3.2-16.5-9.8-21.7c-5.1-4-10.6-5.7-24.4-5.7H391
	L390.9,407.8L390.9,407.8z M353.3,353h0.3l8.1,27.1h-16.6L353.3,353z M367.1,396.2l3.8,11.5h22l-31.5-79.4h-16l-32,79.4h21.8
	l4.2-11.5L367.1,396.2L367.1,396.2z M290.3,346.1h7.5c4.4,0,13.4,0,13.4,9.3c0,9.6-8.8,9.6-12.7,9.6h-8.2L290.3,346.1L290.3,346.1z
	 M270.8,407.7h19.4v-24.9h8.8c12.4,0,17.7-2.2,23.2-6.8c5-4.3,8.3-12.8,8.4-20.8c0-8-3.1-15.9-9.3-21c-4.3-3.5-9.8-5.8-24.4-5.8H271
	L270.8,407.7z M201.4,407.6h44.1v-17.8h-24.7v-13.7h23.9v-17.8h-23.9V346h24.6v-17.8h-44.1C201.3,328.2,201.4,407.6,201.4,407.6z
	 M151.2,346h8.8c9,0,13.1,3.7,15.5,7.3c2.9,4.5,3.8,10.2,3.8,14.7c0,11.3-4.3,21.8-19.4,21.7h-8.6L151.2,346L151.2,346z
	 M130.9,407.5h27.7c30.2,0,40.9-18.2,40.9-39.9c0-8.6-1.8-17.2-7.2-24.7c-10.3-14.8-26.1-14.9-35.1-14.9h-26.3
	C130.9,328,130.9,407.5,130.9,407.5z M90.2,407.5h20.3v-28.9l23.5-50.6h-21.8L100.3,360l-11.8-31.9h-22l23.6,50.6
	C90.2,378.7,90.2,407.5,90.2,407.5z M2,407.4h20.3v-31.8h25.9v31.8h20.3l0.1-79.4H48.3v29.9H22.4V328H2.1L2,407.4z"/>
<path d="M486.4,466.2h32.4v-13.1h-18.1v-10h17.6v-13.1h-17.6v-9h18.1V408h-32.4V466.2z M486.7,425c-0.2-3.3-0.4-7.2-3.8-11.5
	c-3.8-4.5-10-6.6-15.7-6.6c-9.8,0-20.4,6.2-20.4,17.1c0,11,10.2,15.1,14.3,16.7c8.9,3.8,11.4,4.7,11.4,8.5c0,2.7-2.1,5.6-5.6,5.6
	c-1.9,0-6-1.2-6-7.9H446v1.9c0,7.4,4.1,18.5,21,18.5c15.4,0,20.3-9.3,20.3-17.9c0-6.7-2.7-11.8-13.6-16.7
	c-10.5-4.7-12.1-5.4-12.1-8.9c0-2.7,2.5-4.5,5.1-4.5c4.5,0,5,3.7,5.3,5.6L486.7,425L486.7,425z M402,407.9v35.2c0,8.5,1,12.7,5.8,18
	c4.8,5.2,12.5,6.2,16.8,6.2c7.2,0,12.5-2.4,16.3-6.2c3.7-3.8,5.8-8.1,5.8-17.9V408h-14.9v35.2c0,4.6,0,11.1-7.4,11.1
	c-7.3,0-7.5-7.1-7.5-11.1V408L402,407.9L402,407.9z M355.4,436.9c0-8.1,5.6-17,15.9-17c10.7,0,15.8,9.7,15.8,17.3
	c0,7.4-5.1,17.1-15.7,17.1C361.4,454.2,355.4,445.8,355.4,436.9 M342.8,425.2c-1.7,4.2-2.3,8.5-2.3,12.5c0,15,12.3,29.6,30.6,29.6
	c18.1,0,30.9-14,30.9-30.2c0-16.2-12.8-30.3-30.8-30.3C355,406.8,345.8,417.7,342.8,425.2 M291.5,466h14.9v-23.3h19V466h14.9
	l0.1-58.2h-14.9v21.9h-19v-21.9h-14.9L291.5,466L291.5,466z M241.4,466h32.4v-13.1h-18.1v-10h17.6v-13.1h-17.6v-9h18.1v-13.1h-32.4
	L241.4,466L241.4,466z M212.1,420.8h5.4c5.7,0,9.6,2.6,9.6,7.8c0,2.8-1,8.3-9.8,8.3h-5.2V420.8L212.1,420.8z M197.8,465.9h14.3
	v-18.8h0.2l13.5,18.8h17L227,446.1c11.1-1.8,14.5-11.7,14.5-18.3c0-5.9-2.3-12.2-7.1-15.9c-3.8-2.9-7.7-4.2-17.9-4.2H198
	L197.8,465.9z M150.7,407.6v35.2c0,8.5,1,12.7,5.8,18c4.8,5.2,12.5,6.2,16.8,6.2c7.2,0,12.6-2.4,16.3-6.2s5.8-8.1,5.8-17.9v-35.2
	h-14.9v35.2c0,4.6,0,11.1-7.4,11.1c-7.3,0-7.5-7.1-7.5-11.1v-35.2C165.6,407.7,150.7,407.6,150.7,407.6z M126.4,465.8h14.9v-45.1
	h11.5v-13.1h-37.8v13.1h11.5V465.8L126.4,465.8z M104,444c-0.9,2-4.7,9.9-14,9.9c-9.7,0-15.7-8.5-15.7-17.3c0-8.2,5.6-17,15.6-17
	c8,0,12.5,5.8,14.1,10.2h15.6c-1.6-9.1-11.3-23.2-29.6-23.2c-19,0-30.6,15.3-30.6,30.1c0,15.8,12.4,30.3,30.7,30.4
	c14.1,0,26-9.1,29.5-22.9H104z M44.2,465.8h14.9l0.1-58.2H44.3L44.2,465.8z M16.4,420.6h5.5c3.2,0,9.9,0,9.9,6.8c0,7-6.4,7-9.2,7h-6
	C16.5,434.4,16.4,420.6,16.4,420.6z M2.1,465.7h14.3v-18.3h6.4c9,0,13-1.6,17-5c3.7-3.1,6.1-9.3,6.1-15.3c0-5.9-2.3-11.7-6.8-15.4
	c-3.1-2.6-7.1-4.2-17.9-4.2h-19L2.1,465.7z"/>
</svg>
