<svg alt="Your friendly, local, independent cinema" xmlns="http://www.w3.org/2000/svg" viewBox="0 0 421 102.2"><path fill="#fff" d="M6 28.2v-1.1h2.7v-9.5L2.2 7H0V6h11.2v1H8.5l5.4 9 3.8-7.2c.2-.3.3-.6.4-.8.1-.2.1-.3.1-.4 0-.2-.1-.4-.3-.5-.1-.1-.4-.1-.8-.1h-1.9V6h7.2v1h-.9c-.6 0-1.1.2-1.4.5-.4.3-.8 1-1.4 2l-4.2 7.8v9.9h2.7v1.1H6zM24.9 17.1c0-1.5.3-2.9.9-4.3.6-1.4 1.4-2.6 2.5-3.8 1.2-1.2 2.4-2.1 3.8-2.7 1.3-.6 2.8-.9 4.3-.9 1.6 0 3 .3 4.4.9 1.3.7 2.5 1.5 3.7 2.7 1.1 1.1 2 2.4 2.5 3.8.6 1.4.9 2.8.9 4.3s-.3 3-.9 4.3c-.6 1.4-1.4 2.6-2.5 3.8-1.1 1.2-2.4 2.1-3.7 2.6-1.3.6-2.8.9-4.4.9-1.6 0-3-.3-4.4-.9-1.3-.6-2.6-1.4-3.7-2.6-1.1-1.1-1.9-2.4-2.5-3.8-.6-1.4-.9-2.8-.9-4.3zm6.7 0c0 2.8 0 4.8.1 5.9.1 1.1.3 1.9.5 2.4.4.8.9 1.4 1.5 1.8.7.4 1.5.5 2.7.5 1.1 0 2-.2 2.7-.5.7-.4 1.2-.9 1.5-1.8.3-.6.4-1.4.5-2.6s.1-3 .1-5.7 0-4.6-.1-5.7-.3-2-.5-2.6c-.4-.8-.9-1.4-1.5-1.8-.7-.4-1.5-.5-2.7-.5-1.1 0-2 .2-2.7.5-.7.4-1.2.9-1.5 1.8-.2.5-.4 1.3-.5 2.4-.1 1.1-.1 3.1-.1 5.9zM54.6 22.2V7H52V6h11.1v1h-2.9v15.1c0 1.9.4 3.3 1.1 4.1.7.9 1.9 1.3 3.4 1.3.8 0 1.6-.1 2.3-.4s1.3-.6 1.8-1.1c.6-.5 1-1.1 1.2-1.9.2-.7.4-2 .4-3.8V8.7c0-.8-.1-1.2-.3-1.4-.3-.2-.7-.3-1.5-.3h-1.1V6h7v1h-1.1c-.8 0-1.3.1-1.6.4-.2.2-.4.7-.4 1.4v11.6c0 1.7-.1 2.9-.2 3.6-.2.7-.4 1.4-.8 1.9-.7.9-1.6 1.7-2.7 2.1-1.2.5-2.6.7-4.4.7-2.9 0-5.1-.6-6.6-1.7-1.4-1.1-2.1-2.7-2.1-4.8zM77.7 27.1h2.6V7h-2.6V6h12.4c2.6 0 4.5.4 5.9 1.3 1.4.8 2 2 2 3.6s-.6 2.9-1.9 3.8c-1.3.9-3.1 1.5-5.5 1.6v.3c2.4.3 4.1 1.1 5.1 2.3s1.5 3.1 1.5 5.7c0 1.1.1 1.8.3 2.1.2.3.6.5 1.1.5.2 0 .4 0 .7-.1.3 0 .5-.1.8-.2l.4.9c-.7.3-1.4.6-2.1.8-.7.2-1.3.3-1.8.3-.9 0-1.8-.1-2.5-.4-.8-.3-1.3-.7-1.8-1.2-.9-1-1.3-2.8-1.4-5.4v-.8c-.1-1.5-.4-2.6-1.1-3.2-.7-.6-1.8-.9-3.3-.9h-.6v10.3h2.9v1.1H77.7v-1.3zm8.2-11.4h2.8c1.3 0 2.1-.3 2.6-.8s.7-1.6.7-3.4c0-2.2-.2-3.5-.6-3.9-.4-.4-1.3-.6-2.7-.6h-2.8v8.7zM115.2 28.2v-1.1h2.7V7h-2.7V6h18.9l.2 6.5h-1.2c-.5-2-1.3-3.4-2.2-4.2-.9-.8-2.2-1.2-4-1.2h-3.4v9.1h.8c1.2 0 2.1-.3 2.7-1 .6-.6 1-1.7 1.2-3.1h1.1v9.5h-1.1c-.1-1.5-.5-2.6-1.1-3.3-.6-.7-1.6-1-2.9-1h-.7v9.8h3.3v1.1h-11.6zM137.2 27.1h2.6V7h-2.6V6h12.4c2.6 0 4.5.4 5.9 1.3 1.4.8 2 2 2 3.6s-.6 2.9-1.9 3.8c-1.3.9-3.1 1.5-5.5 1.6v.3c2.4.3 4.1 1.1 5.1 2.3s1.5 3.1 1.5 5.7c0 1.1.1 1.8.3 2.1.2.3.6.5 1.1.5.2 0 .4 0 .7-.1.3 0 .5-.1.8-.2l.4.9c-.7.3-1.4.6-2.1.8-.7.2-1.3.3-1.8.3-.9 0-1.8-.1-2.5-.4-.8-.3-1.3-.7-1.8-1.2-.9-1-1.3-2.8-1.4-5.4v-.8c-.1-1.5-.4-2.6-1.1-3.2-.7-.6-1.8-.9-3.3-.9h-.6v10.3h2.9v1.1h-11.2v-1.3zm8.2-11.4h2.8c1.3 0 2.1-.3 2.6-.8s.7-1.6.7-3.4c0-2.2-.2-3.5-.6-3.9-.4-.4-1.3-.6-2.7-.6h-2.8v8.7zM162.8 28.2v-1.1h2.7V7h-2.7V6H174v1h-2.7v20.1h2.7v1.1h-11.2zM177.3 28.2v-1.1h2.7V7h-2.3V6h18.5l.1 5.8h-1.1c-.8-1.9-1.5-3.2-2.3-3.8-.8-.7-1.9-1-3.4-1h-3.8v9.1h.8c1.2 0 2.1-.3 2.8-1 .6-.6 1-1.7 1.2-3.1h1.1v9.5h-1.1c-.1-1.5-.5-2.6-1.1-3.3-.6-.7-1.6-1-3-1h-.7V27h3.7c1.8 0 3.3-.5 4.3-1.5s1.8-2.6 2.4-4.9h1.1L197 28h-19.7zM201.1 28.2v-1.1h1.7c.4 0 .8-.1.9-.3.2-.2.3-.6.3-1.1V8.2c0-.5-.1-.8-.3-.9-.2-.1-.6-.2-1.2-.2h-1.4V6h9l9.4 12.8V8.6c0-.7-.1-1.1-.3-1.3-.2-.2-.6-.3-1.3-.3h-1.4V6h7.1v1h-1.3c-.6 0-.9.1-1.2.3s-.3.7-.3 1.3v20.1h-.9l-14.5-20v17.2c0 .4.1.7.3.9.2.2.5.3.9.3h2v1.1h-7.5zM227.3 27.1h2.7V7h-2.7V6h11.4c1.6 0 3 .2 4.2.5 1.2.3 2.2.8 3.2 1.5 1.4 1 2.4 2.3 3.2 3.9.8 1.6 1.2 3.4 1.2 5.2 0 1.9-.4 3.6-1.2 5.3-.8 1.6-1.9 2.9-3.3 3.9-.9.7-2 1.1-3.2 1.5-1.2.3-2.6.5-4.2.5h-11.3v-1.2zm8.3 0h2.8c1.3 0 2.2-.1 2.8-.3.6-.2 1.1-.5 1.5-1 .5-.6.9-1.5 1.1-2.5.2-1.1.3-2.7.3-4.9v-1.6c0-2.4-.1-4.2-.2-5.3-.1-1.1-.4-1.9-.7-2.5-.4-.7-.9-1.3-1.6-1.6-.6-.3-1.7-.5-3.1-.5h-2.8v20.2zM255 28.2v-1.1h2.3V7H255V6h11.1v1H263v20.1h3.3c1.8 0 3.3-.5 4.3-1.5s1.8-2.6 2.4-4.9h1.1l-.3 7.4H255zM279.7 28.2v-1.1h2.7v-9.5L276 7h-2.2V6H285v1h-2.7l5.4 9 3.8-7.2c.2-.3.3-.6.4-.8.1-.2.1-.3.1-.4 0-.2-.1-.4-.3-.5-.2-.1-.5-.1-.9-.1h-1.9V6h7.2v1h-.9c-.6 0-1.1.2-1.4.5-.4.3-.8 1-1.4 2l-4.2 7.8v9.9h2.7v1.1h-11.2zM298.1 33.6c1.1-.8 2-1.7 2.6-2.6s.9-1.7.9-2.5c0-.5 0-.9-.1-1.2-.1-.2-.2-.4-.4-.4-.9 1.1-1.6 1.7-2.3 1.7-.7 0-1.3-.2-1.7-.7-.4-.4-.6-1-.6-1.8 0-.9.3-1.6.8-2.2.6-.6 1.3-.8 2.1-.8 1.1 0 2 .4 2.7 1.2.7.8 1.1 1.8 1.1 3 0 1.3-.4 2.5-1.1 3.6-.8 1.1-1.9 2.2-3.4 3.2l-.6-.5zM1.4 61.2v-1.1h2.3V40H1.4v-1h11.1v1H9.4v20.1h3.3c1.8 0 3.3-.5 4.3-1.5s1.8-2.6 2.4-4.9h1.1l-.3 7.4H1.4zM23.7 50.1c0-1.5.3-2.9.9-4.3.6-1.4 1.4-2.6 2.5-3.8 1.2-1.2 2.4-2.1 3.8-2.7 1.3-.6 2.8-.9 4.3-.9 1.6 0 3 .3 4.4.9 1.3.6 2.6 1.5 3.8 2.7 1.1 1.1 2 2.4 2.5 3.8.6 1.4.9 2.8.9 4.3s-.3 3-.9 4.3c-.6 1.4-1.4 2.6-2.5 3.8-1.1 1.2-2.4 2.1-3.7 2.6-1.3.6-2.8.9-4.4.9-1.6 0-3-.3-4.4-.9-1.3-.6-2.6-1.4-3.7-2.6-1.1-1.1-1.9-2.4-2.5-3.8-.7-1.4-1-2.8-1-4.3zm6.6 0c0 2.8 0 4.8.1 5.9.1 1.1.3 1.9.5 2.4.4.8.9 1.4 1.5 1.8.7.4 1.5.5 2.7.5 1.1 0 2-.2 2.7-.5.7-.4 1.2-.9 1.5-1.8.3-.6.4-1.4.5-2.6s.1-3 .1-5.7 0-4.6-.1-5.7-.3-2-.5-2.6c-.4-.8-.9-1.4-1.5-1.8-.7-.4-1.5-.5-2.7-.5-1.1 0-2 .2-2.7.5-.7.4-1.2.9-1.5 1.8-.2.5-.4 1.3-.5 2.4 0 1.1-.1 3.1-.1 5.9zM70.2 54.5v6.7h-1.1L67.6 60c-.7.6-1.4 1-2.3 1.3s-1.9.5-3 .5c-1.5 0-2.9-.3-4.2-.9-1.3-.6-2.4-1.5-3.5-2.7-1.1-1.2-1.9-2.4-2.4-3.8s-.8-2.8-.8-4.3.3-2.9.8-4.2c.5-1.3 1.4-2.6 2.4-3.8 1.1-1.2 2.3-2.1 3.6-2.7 1.3-.6 2.7-.9 4.2-.9.9 0 1.8.1 2.7.4.8.3 1.6.7 2.4 1.2l1.2-1.2h1.1l.1 6.1h-1.2c-.7-2-1.6-3.4-2.6-4.3-1-.9-2.3-1.3-3.8-1.3-1.7 0-2.9.6-3.5 1.7-.6 1.1-.9 3.9-.9 8.5 0 2.4 0 4.2.1 5.3.1 1.2.1 2 .3 2.6.3 1.1.7 1.9 1.4 2.4.6.5 1.5.7 2.7.7 1.6 0 3-.6 4.2-1.7s2-2.6 2.4-4.4h1.2zM73.6 61.2v-1.1H75c.4 0 .7-.1.9-.4s.5-.7.8-1.3l7.6-19.9h1.3L94 60.1h2v1.1H85.2v-1.1h2.7l-2-5.2h-6.8l-1.5 3.8c0 .1-.1.2-.1.3v.5c0 .2.1.3.3.4.2.1.4.2.7.2h2v1.1h-6.9zm6-7.4h6l-3-7.8-3 7.8zM98.9 61.2v-1.1h2.3V40h-2.3v-1H110v1h-3.1v20.1h3.3c1.8 0 3.3-.5 4.3-1.5s1.8-2.6 2.4-4.9h1.1l-.3 7.4H98.9zM123.2 66.6c1.1-.8 2-1.7 2.6-2.6s.9-1.7.9-2.5c0-.5 0-.9-.1-1.2-.1-.2-.2-.4-.4-.4-.9 1.1-1.6 1.7-2.3 1.7-.7 0-1.3-.2-1.7-.7-.4-.4-.6-1-.6-1.8 0-.9.3-1.6.8-2.2.6-.6 1.3-.8 2.1-.8 1.1 0 2 .4 2.7 1.2.7.8 1.1 1.8 1.1 3 0 1.3-.4 2.5-1.1 3.6-.8 1.1-1.9 2.2-3.4 3.2l-.6-.5zM143.8 61.2v-1.1h2.7V40h-2.7v-1H155v1h-2.7v20.1h2.7v1.1h-11.2zM158.3 61.2v-1.1h1.7c.4 0 .8-.1.9-.3.2-.2.3-.6.3-1.1V41.2c0-.5-.1-.8-.3-.9-.2-.1-.6-.2-1.2-.2h-1.4v-1h9l9.4 12.8V41.6c0-.7-.1-1.1-.3-1.3-.2-.2-.6-.3-1.3-.3h-1.4v-1h7.1v1h-1.3c-.6 0-.9.1-1.2.3s-.3.7-.3 1.3v20.1h-1l-14.5-20v17.2c0 .4.1.7.3.9.2.2.5.3.9.3h2v1.1h-7.4zM184.5 60.1h2.7V40h-2.7v-1h11.4c1.6 0 3 .2 4.2.5 1.2.3 2.2.8 3.2 1.5 1.4 1 2.4 2.3 3.2 3.9.8 1.6 1.2 3.4 1.2 5.2 0 1.9-.4 3.6-1.2 5.3-.8 1.6-1.9 2.9-3.3 3.9-.9.7-2 1.1-3.2 1.5-1.2.3-2.6.5-4.2.5h-11.3v-1.2zm8.3 0h2.8c1.3 0 2.2-.1 2.8-.3.6-.2 1.1-.5 1.5-1 .5-.6.9-1.5 1.1-2.5.2-1.1.3-2.7.3-4.9v-1.6c0-2.4-.1-4.2-.2-5.3-.1-1.1-.4-1.9-.7-2.5-.4-.7-.9-1.3-1.6-1.6-.6-.3-1.7-.5-3.1-.5h-2.8v20.2zM211.8 61.2v-1.1h2.7V40h-2.3v-1h18.5l.1 5.8h-1.1c-.8-1.9-1.5-3.2-2.3-3.8-.8-.7-1.9-1-3.4-1h-3.8v9.1h.8c1.2 0 2.1-.3 2.8-1 .6-.6 1-1.7 1.2-3.1h1.1v9.5H225c-.1-1.5-.5-2.6-1.1-3.3-.6-.7-1.6-1-3-1h-.7V60h3.7c1.8 0 3.3-.5 4.3-1.5s1.8-2.6 2.4-4.9h1.1l-.2 7.4h-19.7zM235.7 60.1h2.7V40h-2.7v-1h11.5c3.1 0 5.5.5 7 1.4 1.5.9 2.3 2.4 2.3 4.3 0 2-.8 3.5-2.4 4.5-1.6 1-3.9 1.5-7.1 1.5h-3v9.4h3.2v1.1h-11.5v-1.1zM244 40v9.8h3.1c1.3 0 2.1-.3 2.5-.8.4-.5.6-2 .6-4.3 0-2.1-.2-3.4-.6-3.9-.4-.5-1.3-.8-2.6-.8h-3zM259.5 61.2v-1.1h2.7V40h-2.3v-1h18.5l.1 5.8h-1.1c-.8-1.9-1.5-3.2-2.3-3.8-.8-.7-1.9-1-3.4-1h-3.8v9.1h.8c1.2 0 2.1-.3 2.8-1 .6-.6 1-1.7 1.2-3.1h1.1v9.5h-1.1c-.1-1.5-.5-2.6-1.1-3.3-.6-.7-1.6-1-3-1h-.7V60h3.7c1.8 0 3.3-.5 4.3-1.5s1.8-2.6 2.4-4.9h1.1l-.2 7.4h-19.7zM283.3 61.2v-1.1h1.7c.4 0 .8-.1.9-.3.2-.2.3-.6.3-1.1V41.2c0-.5-.1-.8-.3-.9-.2-.1-.6-.2-1.2-.2h-1.4v-1h9l9.4 12.8V41.6c0-.7-.1-1.1-.3-1.3-.2-.2-.6-.3-1.3-.3h-1.4v-1h7.1v1h-1.3c-.6 0-.9.1-1.2.3s-.3.7-.3 1.3v20.1h-.9l-14.5-20v17.2c0 .4.1.7.3.9.2.2.5.3.9.3h2v1.1h-7.5zM309.5 60.1h2.7V40h-2.7v-1h11.4c1.6 0 3 .2 4.2.5 1.2.3 2.2.8 3.2 1.5 1.4 1 2.4 2.3 3.2 3.9.8 1.6 1.2 3.4 1.2 5.2 0 1.9-.4 3.6-1.2 5.3-.8 1.6-1.9 2.9-3.3 3.9-.9.7-2 1.1-3.2 1.5-1.2.3-2.6.5-4.2.5h-11.3v-1.2zm8.3 0h2.8c1.3 0 2.2-.1 2.8-.3.6-.2 1.1-.5 1.5-1 .5-.6.9-1.5 1.1-2.5.2-1.1.3-2.7.3-4.9v-1.6c0-2.4-.1-4.2-.2-5.3-.1-1.1-.4-1.9-.7-2.5-.4-.7-.9-1.3-1.6-1.6-.6-.3-1.7-.5-3.1-.5h-2.8v20.2zM336.8 61.2v-1.1h2.7V40h-2.3v-1h18.5l.1 5.8h-1.1c-.8-1.9-1.5-3.2-2.3-3.8-.8-.7-1.9-1-3.4-1h-3.8v9.1h.8c1.2 0 2.1-.3 2.8-1 .6-.6 1-1.7 1.2-3.1h1.1v9.5H350c-.1-1.5-.5-2.6-1.1-3.3-.6-.7-1.6-1-3-1h-.7V60h3.7c1.8 0 3.3-.5 4.3-1.5s1.8-2.6 2.4-4.9h1.1l-.2 7.4h-19.7zM360.5 61.2v-1.1h1.7c.4 0 .8-.1.9-.3.2-.2.3-.6.3-1.1V41.2c0-.5-.1-.8-.3-.9-.2-.1-.6-.2-1.2-.2h-1.4v-1h9l9.4 12.8V41.6c0-.7-.1-1.1-.3-1.3-.2-.2-.6-.3-1.3-.3h-1.4v-1h7.1v1h-1.3c-.6 0-.9.1-1.2.3s-.3.7-.3 1.3v20.1h-.9l-14.5-20v17.2c0 .4.1.7.3.9.2.2.5.3.9.3h2v1.1h-7.5zM391.1 61.2v-1.1h2.7V40h-1.2c-1.5 0-2.6.5-3.4 1.4s-1.6 2.5-2.2 4.8h-.9l.3-7.2h20.7l.3 7.2h-.9c-.6-2.2-1.3-3.8-2.2-4.8-.9-.9-2-1.4-3.4-1.4h-1.3v20.1h2.7v1.1h-11.2zM20.5 87.5v6.7h-1.1L17.9 93c-.7.6-1.4 1-2.3 1.3s-1.9.5-3 .5c-1.5 0-2.9-.3-4.2-.9-1.3-.6-2.4-1.5-3.5-2.7C3.8 90 3 88.7 2.4 87.4s-.8-2.8-.8-4.3.3-2.9.8-4.2c.6-1.4 1.4-2.7 2.5-3.9 1.1-1.2 2.3-2 3.6-2.6 1.3-.6 2.7-.9 4.2-.9.9 0 1.8.1 2.7.4.8.3 1.6.7 2.4 1.2l1.2-1.2h1.1l.1 6.1H19c-.7-2-1.6-3.4-2.6-4.3-1-.9-2.3-1.3-3.8-1.3-1.7 0-2.9.6-3.5 1.7-.6 1.1-.9 3.9-.9 8.5 0 2.4 0 4.2.1 5.3.1 1.2.1 2 .3 2.6.3 1.1.7 1.9 1.4 2.4.6.5 1.5.7 2.7.7 1.6 0 3-.6 4.2-1.7s2-2.6 2.4-4.4h1.2zM24.8 94.2v-1.1h2.7V73h-2.7v-1H36v1h-2.7v20.1H36v1.1H24.8zM39.2 94.2v-1.1H41c.4 0 .8-.1.9-.3.2-.2.3-.6.3-1.1V74.2c0-.5-.1-.8-.3-.9-.2-.1-.6-.2-1.2-.2h-1.4v-1h9l9.4 12.8V74.6c0-.7-.1-1.1-.3-1.3-.2-.2-.7-.3-1.4-.3h-1.4v-1h7.1v1h-1.3c-.6 0-.9.1-1.2.3s-.3.7-.3 1.3v20.1H58l-14.5-20v17.2c0 .4.1.7.3.9.2.2.5.3.9.3h2v1.1h-7.5zM65.2 94.2v-1.1h2.7V73h-2.3v-1h18.5l.1 5.8H83c-.8-1.9-1.5-3.2-2.3-3.8-.8-.7-1.9-1-3.4-1h-3.8v9.1h.8c1.2 0 2.1-.3 2.8-1 .6-.6 1-1.7 1.2-3.1h1.1v9.5h-1.1c-.1-1.5-.5-2.6-1.1-3.3-.6-.7-1.6-1-3-1h-.7V93h3.7c1.8 0 3.3-.5 4.3-1.5s1.8-2.6 2.4-4.9H85l-.2 7.4H65.2zM88.8 94.2v-1.1h1.6c.4 0 .8-.1 1-.4.2-.3.3-.7.3-1.2V73h-3v-1h9.6l3.9 12.8 4.1-12.8h9.1v1h-2.9v20.1h2.8v1.1H104v-1.1h3V73.3h-.1l-6.6 20.9h-1.2l-6.5-21.1v18.3c0 .6.1 1.1.4 1.4.2.3.7.4 1.3.4H96v1.1h-7.2zM117.6 94.2v-1.1h1.4c.4 0 .7-.1.9-.4s.5-.7.8-1.3l7.6-19.9h1.3l8.3 21.6h2v1.1h-10.8v-1.1h2.7l-2-5.2H123l-1.5 3.8c0 .1-.1.2-.1.3v.5c0 .2.1.3.3.4.2.1.4.2.7.2h2v1.1h-6.8zm5.9-7.4h6l-2.9-7.8-3.1 7.8zM143.9 91.8c0-.8.3-1.4.8-1.9s1.2-.8 1.9-.8a2.732 2.732 0 0 1 2.7 2.7 2.732 2.732 0 0 1-2.7 2.7c-.7 0-1.4-.3-1.9-.8-.6-.5-.8-1.1-.8-1.9zM153.9 94.2v-.8h1.9V79.3h-1.6v-.7h13v4.1h-.8c-.5-1.3-1.1-2.2-1.6-2.7s-1.3-.7-2.4-.7h-2.7v6.4h.5c.9 0 1.5-.2 1.9-.7s.7-1.2.9-2.2h.8v6.7h-.8c-.1-1.1-.4-1.9-.8-2.3s-1.1-.7-2.1-.7h-.5v6.9h2.6c1.3 0 2.3-.3 3-1s1.3-1.8 1.7-3.4h.7l-.2 5.2h-13.5zM170.9 94.2v-3.5h.6c.3 1 .7 1.8 1.3 2.3s1.3.8 2.2.8c.7 0 1.2-.2 1.6-.5s.6-.7.6-1.2c0-.6-.7-1-2.1-1.2-.4 0-.7-.1-.9-.1-1.2-.2-2.1-.5-2.6-.9s-.7-1.1-.7-2c0-1 .3-1.8.9-2.4s1.4-.9 2.5-.9c.4 0 .8 0 1.2.1s.8.2 1.1.4l.5-.4h.5l.1 2.7h-.7c-.2-.7-.6-1.3-1.1-1.6s-1-.6-1.7-.6c-.6 0-1.2.1-1.6.4s-.6.6-.6.9c0 .5.8.9 2.4 1.1.3 0 .5.1.6.1 1.3.2 2.1.5 2.6 1s.8 1.3.8 2.3c0 1.1-.3 2-1 2.6s-1.5 1-2.7 1c-.5 0-1-.1-1.5-.2s-.9-.3-1.2-.6l-.7.5h-.4zM181.9 92.1v-6.5h-1.4v-.7h1.4v-3c.2 0 .3.1.5.1h1.9c.3 0 .6 0 .9-.1v3h1.9v.7h-1.9v6.5c0 .4.1.7.2.8s.3.2.6.2.5-.1.7-.4.3-.6.3-1h.6c0 .8-.4 1.5-1 2s-1.4.7-2.4.7c-.9 0-1.5-.2-1.9-.5s-.4-.9-.4-1.8zM190.6 92.5c0-.5.2-1 .6-1.4s.8-.6 1.4-.6 1 .2 1.3.6.6.8.6 1.4c0 .5-.2 1-.6 1.3s-.8.6-1.3.6-1-.2-1.4-.6-.6-.8-.6-1.3zM199.7 94.2v-.7h3V79.9c0-.3-.1-.5-.2-.6s-.6-.1-1.4-.1h-1.3v-.6c.8 0 1.7-.1 2.6-.1s1.9-.2 3-.3h.8v15.3h2.8v.7h-9.3zM221.7 87.2c-.3.4-.8.8-1.3 1s-1.1.3-1.7.3c-1.5 0-2.7-.5-3.7-1.4s-1.5-2.1-1.5-3.5c0-.7.1-1.4.4-2s.7-1.2 1.3-1.7c.6-.6 1.3-1 2.1-1.3s1.6-.5 2.4-.5c1.8 0 3.3.6 4.5 1.9s1.8 3 1.8 5c0 1.2-.2 2.3-.7 3.4s-1.1 2-1.9 2.8c-1 1-2.2 1.8-3.6 2.4s-2.8.9-4.4.9v-.7c1.9-.1 3.4-.8 4.5-1.9s1.7-2.7 1.8-4.7zm.1-1c.1-.4.1-.9.2-1.4s0-1 0-1.6c0-1.7-.2-2.9-.5-3.5s-.9-.9-1.8-.9-1.5.3-1.8.9-.5 1.9-.5 3.9c0 1.8.1 2.9.4 3.3s.8.7 1.5.7c.4 0 .9-.1 1.3-.4s.9-.5 1.2-1zM230.6 94.2v-.7h3V79.9c0-.3-.1-.5-.2-.6s-.6-.1-1.4-.1h-1.3v-.6c.8 0 1.7-.1 2.6-.1s1.9-.2 3-.3h.8v15.3h2.8v.7h-9.3zM248.2 94.2v-.7h2.1v-3.7h-6.2v-1c1.5-2.3 2.9-4.3 4.2-6.1s2.5-3.3 3.6-4.5h2v10.9h2.6v-1.8h.5v4.2h-.5v-1.7h-2.6v3.7h1.9v.7h-7.6zm2.2-5.1l.1-8h-.1c-1.2 1.5-2.3 3-3.3 4.3s-1.8 2.6-2.4 3.7h5.7z"/></svg>